<?xml version="1.0" encoding="utf-8"?>
<!-- Generator: Adobe Illustrator 27.2.0, SVG Export Plug-In . SVG Version: 6.00 Build 0)  -->
<svg version="1.1" id="Capa_1" xmlns="http://www.w3.org/2000/svg" xmlns:xlink="http://www.w3.org/1999/xlink" x="0px" y="0px"
	 viewBox="0 0 512 512" style="enable-background:new 0 0 512 512;" xml:space="preserve">
<style type="text/css">
	.st0{fill:#02B663;}
</style>
<g>
	<path class="st0" d="M496.2,135.3c-16.7-26.3-50.5-32.2-80.3-37.4c-23-4-44.6-7.7-49.8-19.5c-3.4-7.7-2.4-24.7,21.6-62.3
		c2-3.1,2.1-7.1,0.3-10.3c-1.8-3.2-5.3-5.2-9-5.1c-29.9,1-58,20.8-71.8,50.6c-12.2,26.5-9.5,54.8,7.1,75.6c0.3,0.4,0.6,0.7,1,1
		c22.3,20.9,54,24.6,82,27.8c25,2.9,46.7,5.4,54.7,18.6c7.2,11.9,4.5,34.5-7.9,67c-5.4,13.4-7.5,22.3-2.4,28.5
		c2.2,2.7,5.5,4.1,9,4.1c0.9,0,1.8-0.1,2.7-0.3c6.7-1.4,15.6-9.6,26.2-24.3c4.6-6.4,15.9-23,20.4-38.5c0,0,0-0.1,0-0.1
		C508.9,178.3,507.7,153.5,496.2,135.3L496.2,135.3z M480.6,205.6c-2,7-6.2,15.1-11,22.7c8.5-28.8,8.3-49.5-0.6-64.2
		c-13.1-21.6-40.5-24.8-69.5-28.1c-25.9-3-52.6-6.1-70-22c-11.6-15-13.2-34.7-4.2-54.2c7.1-15.4,19.4-27.5,33.5-34
		c-14,26.5-17.5,46.1-11,60.7c9.5,21.6,36.3,26.2,64.7,31.1c27,4.7,54.9,9.5,66.8,28.3C487.5,159,487.9,179.1,480.6,205.6
		L480.6,205.6z M421.5,362.4c1.8-5.3,2.4-10.9,1.7-16.4c-6.1-48.1-24.3-88.5-54.1-120.1c-8.1-8.6-19.6-12.6-30.9-11.2l-0.1,0
		c-3.2,0.4-6.3,1.2-9.2,2.4c-24.2,9.7-41.8,17.5-65.1,28.8c-0.2,0.1-0.5,0.2-0.7,0.4c-3-2.8-6.8-4.7-10.9-5.8
		c-7-1.7-14.6-0.4-20.9,3.5l-26.5,16.9c-3.9-2-8.3-2.4-12.5-1.2c-4.3,1.3-7.9,4.2-10,8.1c-1.4,2.7-2.1,5.6-2,8.7l-28,17.8
		c-0.9-1.3-1.9-2.4-3.1-3.4c-3.4-2.9-7.8-4.2-12.3-3.8c-4.4,0.4-8.5,2.5-11.4,6c-2.9,3.4-4.2,7.8-3.8,12.3l0.8,8l-56.3,35.8
		c-1.6-1.7-3.6-3-5.8-3.8c-4.1-1.6-8.8-1.6-12.9,0.2c-4.1,1.8-7.3,5.1-8.9,9.3c-1.5,3.8-1.6,7.9-0.2,11.7c-0.5,0.2-1,0.4-1.4,0.6
		c-6,3.3-8.2,4.4-14.2,7.6c-14.7,7.9-20.7,25.9-13.9,41l35.4,77.7c5.3,11.6,16.8,18.5,28.8,18.5c3.7,0,7.6-0.7,11.2-2.1
		c6.1-2.3,9.1-3.5,15.2-5.8c0.6-0.2,1.1-0.5,1.6-0.8c3.1,3,7.3,4.6,11.6,4.6c2.3,0,4.6-0.5,6.7-1.4c4.1-1.8,7.3-5.1,8.9-9.3
		c0.6-1.4,0.9-2.9,1.1-4.5c0.6-0.1,1.1-0.3,1.7-0.5c4.9-1.8,5.4-2,8.6-3.2c2.5,6.1,8.5,10.3,15.5,10.3c0.5,0,1,0,1.5-0.1
		c4.4-0.4,8.5-2.5,11.4-6c2.9-3.4,4.2-7.8,3.8-12.3l-0.4-4c0.8-0.1,1.5-0.3,2.2-0.5l10.5-3.8c16.9-6.2,30.3-11.1,48.7-17.9l0.1,0.4
		c1.9,6.6,7.7,11.3,14.6,11.9c2.1,0.2,4.3,0,6.3-0.6c3.7-1.1,6.7-3.4,8.8-6.3c5.8,2.8,11.5,4.3,16.7,4.3c6,0,11.3-1.9,15.2-5.7
		c3.5-3.5,5.4-8.1,5.8-13.4c0.2,0.1,0.4,0.3,0.6,0.4c9.3,5.8,19,8.6,27.4,8.6c9.1,0,16.8-3.3,20.9-9.9c0.8-1.4,1.5-2.8,2-4.4
		c5.3,1.7,10.4,2.5,15.2,2.5c10.7,0,19.5-4.1,23.4-11.8c3.4-6.7,2.5-14.7-1.9-22.3c1.9-0.1,3.8-0.3,5.7-0.6
		c22.4-3.6,38-18,35.6-32.7C428.7,370.2,425.8,365.8,421.5,362.4L421.5,362.4z M403.4,348.5c0.3,2.2,0.1,4.5-0.6,6.6
		c-5.4-0.7-11.2-0.7-17.3,0.3c-1.2,0.2-2.5,0.4-3.7,0.7c3.1-9.9,1.9-19.3-4.1-25.3c-2.8-2.9-6.4-4.6-10.5-5.4c-0.2-1-0.5-1.9-1-2.8
		c-12.1-22.8-21.6-48.5-28.3-76.3c-2.1-8.9,0.9-10.9,3.5-11.9c4.8-0.3,9.7,1.5,13.2,5.2C381.3,268.1,397.8,304.7,403.4,348.5
		L403.4,348.5z M353.1,375c-1.4-1.3-3-2.4-4.6-3.3c-4-2.2-8.6-3.4-13.4-3.6c2.3-6.4,3.2-12.6,2.6-18.1c0.3-0.4,0.7-0.7,1-1.1
		c11.9-11.8,25.6-14.5,30.5-9.6c4.9,4.9,2.1,18.6-9.8,30.4C357.4,371.7,355.3,373.4,353.1,375L353.1,375z M333.9,402.4
		c-4.4,0.7-8.8,0-12.2-1.8c-1.7-0.9-4.7-3.1-5.2-6.6c-0.6-3.6,1.6-6.5,2.9-7.9c2.6-2.8,6.6-4.9,11-5.6c1.1-0.2,2.3-0.3,3.4-0.3
		c3.2,0,6.3,0.7,8.8,2.1c1.7,0.9,4.7,3.1,5.2,6.6s-1.6,6.5-2.9,7.9C342.3,399.6,338.3,401.7,333.9,402.4L333.9,402.4z M305.5,386.2
		c-4-6.8-10.6-11.8-18.5-13.7c1.3-4.7,3.7-9.6,6.9-14.1c9.7-13.6,22.7-18.7,28.4-14.7c5.5,3.9,4.8,15.8-1.6,27.1
		c-3.9,1.7-7.3,4-10.1,7C308.2,380.3,306.5,383.2,305.5,386.2L305.5,386.2z M279.9,419.1c-9.8,0-17.7-8-17.7-17.7
		c0-9.8,8-17.7,17.7-17.7l0,0h0c9.8,0,17.7,8,17.7,17.7C297.6,411.2,289.7,419.1,279.9,419.1L279.9,419.1z M240.7,363.2
		c5.7-15,16.4-23,22.8-20.7c3.1,1.1,5.5,4.7,6.6,9.9c1.3,6.3,0.5,14.2-2.1,21.7c0,0,0,0,0,0.1c-9,4-15.6,12.2-17.3,22.1L240.7,363.2
		z M329.2,333.9c-12.2-8.6-32-0.9-45.1,17.6c-0.6,0.8-1.1,1.6-1.6,2.4c-0.1-1.3-0.3-2.7-0.6-4c-1.9-9.1-6.6-15.6-13.3-18.4
		l66.9-27.6c3.4,8.4,7.2,16.7,11.4,24.8c-4.7,2.1-9.3,5.1-13.7,9C332,336.3,330.7,335,329.2,333.9z M237.4,344.3
		c-0.6,0.8-1.1,1.5-1.7,2.3l-0.4-1.5L237.4,344.3z M318.4,251c1.4,5.9,3,11.8,4.7,17.6l-37.9,15.6c-0.5-2.4-1.4-4.7-2.7-6.8
		l-8.3-14.4c15.5-7.5,28.6-13.4,43-19.5C317.4,246,317.8,248.5,318.4,251L318.4,251z M284.7,297.5l42-17.3c1.4,4.2,2.8,8.4,4.4,12.6
		l-84.2,34.7l25.6-14.8C278.5,309.2,282.7,303.6,284.7,297.5z M237.8,254.1c3.5-2.2,7.7-2.9,11.5-2c3.5,0.9,6.5,3,8.2,6.1l14.6,25.3
		c3.7,6.4,1.1,14.9-5.8,18.8L229,323.9L213.2,271c-0.1-0.3-0.2-0.7-0.4-1L237.8,254.1z M165,407.2l51.7-6.6l3.8,12.9l-54.4,7
		L165,407.2z M163.9,395.3l-1.8-18.9l5.9-3.4l36.1-14.9l9.2,30.9L163.9,395.3z M162.7,362.2l-1.8,0.8l-5.3-56.5l27.8-17.7l15.6,52.5
		L162.7,362.2z M130.6,399.6l-11,1.4l10.6-6.1L130.6,399.6z M97.4,415.9l34.3-4.4l1.2,13.2l-29.9,3.8L97.4,415.9z M128.9,381.7
		l-37.2,21.5l-19.6-43.6l51.6-32.9L128.9,381.7z M68.2,433l-5.5,0.7l4.6-2.7L68.2,433z M39.1,433.6l-11.9-26.1
		c-2.5-5.5-0.3-12.2,5.1-15c4.8-2.5,9.5-5.1,14.3-7.7l15.9,35.3L39.1,433.6z M77.3,491.2c-5.7,2.2-12.2-0.5-14.7-6L45.7,448
		l27.7-3.6l18.5,41.2C87,487.5,82.1,489.4,77.3,491.2z M117.2,493c-0.5,1.2-1.4,2.1-2.6,2.6c-0.6,0.3-1.2,0.4-1.9,0.4
		c-1.9,0-3.6-1.1-4.4-3L49.9,362.9c-0.5-1.2-0.5-2.5-0.1-3.7c0.5-1.2,1.4-2.1,2.6-2.6c0.6-0.3,1.3-0.4,1.9-0.4
		c0.6,0,1.2,0.1,1.8,0.3c1.2,0.5,2.1,1.4,2.7,2.6l58.4,130.2C117.7,490.5,117.7,491.8,117.2,493L117.2,493z M133.4,470.3
		c-3.7,1.4-4,1.5-9.2,3.4c-0.3,0.1-0.5,0.2-0.7,0.3l-15.2-34l25.8-3.3l3,32.3c-0.5,0.1-0.9,0.2-1.4,0.4L133.4,470.3z M158.9,485.9
		c-0.8,1-2,1.6-3.3,1.7c-2.7,0.2-5-1.8-5.2-4.4l-16.8-179c-0.1-1.3,0.3-2.5,1.1-3.5c0.8-1,2-1.6,3.3-1.7c1.3-0.1,2.5,0.3,3.5,1.1
		c1,0.8,1.6,2,1.7,3.3l6.4,68.7l0,0.1L160,482.4C160.1,483.7,159.7,484.9,158.9,485.9L158.9,485.9z M226.5,436.2
		c-18.5,6.9-31.9,11.8-49,18l-7.8,2.8l-2.3-24.6l56.7-7.3l3.2,10.7C227,436,226.8,436.1,226.5,436.2L226.5,436.2z M250.6,455.2
		c-0.6,0.2-1.2,0.2-1.8,0.2h0c-2-0.2-3.6-1.5-4.2-3.4l-10.3-34.6c-0.1-0.4-0.2-0.8-0.3-1.2l-41.5-139.1c-0.4-1.2-0.2-2.5,0.4-3.7
		c0.6-1.1,1.6-2,2.8-2.3c1.2-0.4,2.5-0.2,3.7,0.4c1.1,0.6,2,1.6,2.3,2.8l52.1,174.9C254.6,451.8,253.2,454.5,250.6,455.2
		L250.6,455.2z M286.2,450.5c-3.7,3.7-12,2.8-20.3-2c-0.1-0.9-0.3-1.8-0.5-2.6l-7.2-24.2c5.4,5.8,13.2,9.5,21.7,9.5
		c1.6,0,3.1-0.1,4.7-0.4c0.2,0.2,0.4,0.5,0.5,0.7C289.2,439.4,289.7,447,286.2,450.5L286.2,450.5z M339.3,438.4
		c-3.7,5.9-17.6,6.3-31.8-2.6c-4.4-2.7-8.2-6-11.2-9.6c6.9-4.6,11.8-11.9,13.1-20.5c1.8,2.1,4,3.9,6.6,5.3c3.6,2,7.8,3.2,12.2,3.5
		c0.1,0.1,0.2,0.2,0.3,0.2C337.8,422.6,342.6,433,339.3,438.4L339.3,438.4z M379.4,425.6c-3.1,6.1-15.6,7-28,2
		c-1.4-5.1-4.3-10.4-8.5-15.3c4.2-1.7,8-4.2,10.9-7.3c1.8-1.9,3.3-4.1,4.4-6.6c0.9,0.4,1.7,0.8,2.6,1.2
		C375.6,407.2,382.5,419.4,379.4,425.6L379.4,425.6z M392,396.2c-5,0.8-9.9,0.8-14.4,0.2c-3.3-2.8-7.2-5.3-11.4-7.5
		c-2.1-1.1-4.4-2.1-6.6-2.9c-0.1-0.3-0.1-0.5-0.2-0.8c3-2.1,5.9-4.4,8.5-7c2.1-2.1,4.1-4.3,5.9-6.7c0.3-0.1,0.5-0.2,0.8-0.3
		c3.9-1.9,8.2-3.2,12.9-3.9c16.5-2.7,29.2,3.1,30.3,10C418.8,384.1,408.5,393.6,392,396.2L392,396.2z"/>
	<path class="st0" d="M95.4,372c-3.5,0-6.8-1.9-8.6-4.9c-2.8-4.7-1.3-10.9,3.5-13.7l10.2-6.1c4.7-2.8,10.9-1.3,13.7,3.5
		c2.8,4.7,1.3,10.9-3.5,13.7l-10.2,6.1C99,371.5,97.2,372,95.4,372z"/>
	<circle class="st0" cx="277.9" cy="398.2" r="6"/>
	<path class="st0" d="M197,2.4l-8.2,23.1c-0.4,1-1,1.8-1.9,2.2L166.3,37c-2.9,1.3-2.9,5.9,0,7.2l20.5,9.3c0.9,0.4,1.6,1.2,1.9,2.2
		l8.2,23.1c1.2,3.3,5.3,3.3,6.4,0l8.2-23.1c0.4-1,1-1.8,1.9-2.2l20.5-9.3c2.9-1.3,2.9-5.9,0-7.2l-20.5-9.3c-0.9-0.4-1.6-1.2-1.9-2.2
		l-8.2-23.1C202.3-0.8,198.2-0.8,197,2.4z M66.4,177.6l-6.1,17.1c-0.3,0.7-0.8,1.3-1.4,1.6l-15.2,6.9c-2.2,1-2.2,4.4,0,5.4l15.2,6.9
		c0.7,0.3,1.2,0.9,1.4,1.6l6.1,17.1c0.9,2.4,3.9,2.4,4.8,0l6.1-17.1c0.3-0.7,0.8-1.3,1.4-1.6l15.2-6.9c2.2-1,2.2-4.4,0-5.4
		l-15.2-6.9c-0.7-0.3-1.2-0.9-1.4-1.6l-6.1-17.1C70.4,175.2,67.3,175.2,66.4,177.6z M214.8,157.9c0,9.9,8,18,18,18s18-8,18-18
		s-8-18-18-18C222.9,139.9,214.8,147.9,214.8,157.9z M97.5,129.9c0,4.1,3.4,7.5,7.5,7.5c4.1,0,7.5-3.4,7.5-7.5s-3.4-7.5-7.5-7.5
		C100.8,122.4,97.5,125.8,97.5,129.9z"/>
</g>
</svg>
