<svg xmlns="http://www.w3.org/2000/svg" version="1.1" xmlns:xlink="http://www.w3.org/1999/xlink" width="512" height="512" x="0" y="0" viewBox="0 0 512 512" style="enable-background:new 0 0 512 512" xml:space="preserve" class=""><g><path d="M496.177 135.278c-16.665-26.342-50.467-32.196-80.289-37.361-22.957-3.976-44.641-7.731-49.833-19.499-3.392-7.686-2.397-24.739 21.604-62.331a10.01 10.01 0 0 0 .262-10.338 10.045 10.045 0 0 0-9.023-5.051c-29.851.972-58.018 20.848-71.758 50.637-12.211 26.476-9.541 54.755 7.144 75.646.296.371.619.721.966 1.047 22.264 20.928 53.979 24.598 81.961 27.835 25.037 2.897 46.661 5.399 54.662 18.601 7.214 11.905 4.546 34.46-7.931 67.041-5.418 13.35-7.534 22.298-2.361 28.491 2.244 2.687 5.47 4.15 8.959 4.15.875 0 1.767-.092 2.663-.28 6.746-1.415 15.565-9.585 26.211-24.282 4.634-6.397 15.897-22.951 20.397-38.466.01-.036.021-.071.03-.107 9.088-32.697 7.89-57.47-3.664-75.733zm-15.606 70.318c-2.043 7.012-6.213 15.104-10.953 22.677 8.542-28.81 8.279-49.484-.626-64.181-13.081-21.587-40.476-24.757-69.48-28.112-25.852-2.991-52.577-6.085-70.027-22.049-11.633-15-13.16-34.715-4.167-54.211 7.082-15.356 19.401-27.513 33.468-33.961-14.016 26.504-17.508 46.09-11.043 60.741 9.522 21.579 36.339 26.224 64.73 31.142 26.977 4.672 54.872 9.504 66.789 28.34 8.236 13.017 8.676 33.076 1.309 59.614zM421.505 362.413a36.463 36.463 0 0 0 1.704-16.448c-6.143-48.105-24.332-88.497-54.063-120.051-8.146-8.646-19.606-12.627-30.942-11.239l-.075.009a36.868 36.868 0 0 0-9.219 2.367c-24.198 9.733-41.838 17.528-65.086 28.762-.231.112-.45.239-.668.365-3.047-2.757-6.775-4.738-10.946-5.759-7.036-1.72-14.635-.436-20.855 3.527l-26.548 16.912c-3.879-2-8.299-2.429-12.495-1.178a16.699 16.699 0 0 0-9.983 8.113 16.705 16.705 0 0 0-1.996 8.656l-27.993 17.832a16.92 16.92 0 0 0-3.104-3.428 16.684 16.684 0 0 0-12.272-3.838 16.697 16.697 0 0 0-11.397 5.965c-2.879 3.446-4.243 7.806-3.838 12.301l.752 8.021-56.256 35.838a16.75 16.75 0 0 0-5.769-3.805 16.683 16.683 0 0 0-12.859.225 16.694 16.694 0 0 0-8.937 9.253c-1.487 3.774-1.551 7.865-.21 11.704a10.14 10.14 0 0 0-1.441.63c-5.996 3.26-8.186 4.439-14.175 7.65-14.66 7.861-20.748 25.865-13.86 40.987l35.397 77.711C49.636 505.061 61.128 512 73.195 512c3.747 0 7.552-.67 11.24-2.078 6.096-2.328 9.056-3.454 15.169-5.75.57-.214 1.103-.482 1.608-.783a16.798 16.798 0 0 0 11.559 4.617c2.314 0 4.568-.471 6.695-1.397a16.694 16.694 0 0 0 8.937-9.253 16.839 16.839 0 0 0 1.077-4.467 10.078 10.078 0 0 0 1.653-.453c4.851-1.792 5.412-1.999 8.596-3.165 2.527 6.141 8.513 10.349 15.508 10.349.507 0 1.019-.023 1.514-.068a16.697 16.697 0 0 0 11.397-5.965c2.878-3.446 4.242-7.806 3.838-12.301l-.37-3.953a10.009 10.009 0 0 0 2.218-.525l10.548-3.844c16.934-6.171 30.348-11.058 48.651-17.883l.107.359a16.73 16.73 0 0 0 14.596 11.939 16.773 16.773 0 0 0 6.314-.636c3.696-1.102 6.717-3.38 8.811-6.292 5.753 2.823 11.476 4.254 16.678 4.254 6.002 0 11.313-1.899 15.172-5.737 3.477-3.458 5.397-8.094 5.768-13.372.201.129.392.266.596.393 9.252 5.763 18.971 8.621 27.449 8.621 9.135 0 16.829-3.322 20.93-9.905a18.667 18.667 0 0 0 1.992-4.367c5.279 1.668 10.428 2.49 15.191 2.49 10.724 0 19.5-4.115 23.423-11.83 3.4-6.685 2.451-14.667-1.884-22.258a62.85 62.85 0 0 0 5.736-.643c22.358-3.593 38.015-17.973 35.643-32.738-.824-5.13-3.706-9.533-8.05-12.946zm-18.152-13.912c.287 2.245.083 4.47-.555 6.631-5.372-.729-11.247-.674-17.349.306-1.242.2-2.464.44-3.673.707 3.072-9.895 1.898-19.262-4.115-25.307-2.839-2.854-6.428-4.625-10.464-5.393a10.007 10.007 0 0 0-.988-2.808c-12.102-22.845-21.627-48.519-28.312-76.31-2.145-8.919.91-10.916 3.524-11.865 4.847-.341 9.672 1.479 13.157 5.178 26.769 28.413 43.179 65.039 48.775 108.861zm-50.277 26.526a24.491 24.491 0 0 0-4.639-3.319c-3.982-2.2-8.597-3.393-13.404-3.56 2.307-6.384 3.176-12.621 2.629-18.14.344-.362.676-.732 1.028-1.082 11.856-11.793 25.567-14.535 30.456-9.618 4.889 4.915 2.075 18.611-9.782 30.404a50.02 50.02 0 0 1-6.288 5.315zm-19.14 27.343c-4.392.705-8.846.04-12.224-1.826-1.706-.942-4.652-3.058-5.228-6.642-.576-3.583 1.56-6.515 2.884-7.944 2.622-2.83 6.645-4.858 11.036-5.564a21.765 21.765 0 0 1 3.438-.275c3.21 0 6.292.723 8.787 2.101 1.706.942 4.652 3.058 5.228 6.641s-1.56 6.516-2.884 7.945c-2.623 2.83-6.646 4.858-11.037 5.564zm-28.463-16.139c-4.021-6.77-10.649-11.815-18.492-13.743 1.316-4.702 3.654-9.553 6.871-14.099 9.664-13.649 22.702-18.694 28.361-14.69 5.483 3.882 4.784 15.773-1.576 27.11-3.887 1.662-7.34 4.031-10.078 6.986-2.353 2.538-4.067 5.418-5.086 8.436zm-25.591 32.878c-9.781 0-17.737-7.957-17.737-17.737 0-9.777 7.952-17.732 17.729-17.737l.032.002h.005c9.767.016 17.709 7.965 17.709 17.736-.001 9.779-7.958 17.736-17.738 17.736zm-39.172-55.927c5.667-14.998 16.41-22.953 22.777-20.72 3.096 1.085 5.489 4.689 6.563 9.887 1.298 6.275.526 14.199-2.118 21.741-.007.019-.011.039-.017.058-8.964 3.956-15.616 12.209-17.336 22.137zm88.442-29.285c-12.202-8.64-32.015-.931-45.102 17.553a62.533 62.533 0 0 0-1.631 2.433 40.899 40.899 0 0 0-.608-3.966c-1.883-9.108-6.6-15.584-13.328-18.385l66.923-27.601a317.474 317.474 0 0 0 11.404 24.78c-4.654 2.127-9.314 5.144-13.702 9.004a18.45 18.45 0 0 0-3.956-3.818zm-91.72 10.441a52.575 52.575 0 0 0-1.652 2.314l-.434-1.455zm81.003-93.328a386.976 386.976 0 0 0 4.69 17.638l-37.871 15.619a24.507 24.507 0 0 0-2.669-6.814l-8.337-14.44c15.497-7.463 28.56-13.405 43.025-19.52a44.362 44.362 0 0 0 1.162 7.517zm-33.759 46.487 42.012-17.327a356.829 356.829 0 0 0 4.363 12.564l-84.241 34.743 25.615-14.789c6.108-3.525 10.32-9.051 12.251-15.191zm-46.867-43.42c3.472-2.212 7.681-2.937 11.548-1.991 3.541.867 6.458 3.021 8.217 6.066l14.611 25.305c3.701 6.412 1.116 14.86-5.764 18.831l-37.425 21.607-15.775-52.909c-.104-.347-.234-.681-.358-1.018zm-72.763 153.166 51.746-6.631 3.846 12.899-54.352 6.965zm-1.121-11.964-1.773-18.923 5.882-3.396 36.078-14.88 9.204 30.87zm-1.205-33.119-1.829.754-5.293-56.467 27.833-17.73 15.639 52.455zm-32.155 37.394-11.046 1.415 10.605-6.123zm-33.179 16.36 34.301-4.396 1.24 13.233-29.856 3.826zm31.505-34.224-37.222 21.49-19.554-43.552 51.626-32.888zm-60.659 51.351-5.478.702 4.6-2.656zm-29.17.513L27.19 407.49c-2.527-5.55-.286-12.16 5.103-15.05a2227.63 2227.63 0 0 0 14.255-7.694l15.862 35.327zm38.232 57.668c-5.715 2.182-12.176-.462-14.708-6.021l-16.926-37.16 27.712-3.552 18.5 41.203a2659.78 2659.78 0 0 0-14.578 5.53zm39.935 1.732a4.763 4.763 0 0 1-2.554 2.642c-.609.265-1.25.4-1.904.4-1.913 0-3.642-1.133-4.433-2.952l-58.44-130.157a4.764 4.764 0 0 1-.063-3.671 4.763 4.763 0 0 1 2.554-2.642c.612-.266 1.26-.4 1.908-.4.594 0 1.188.112 1.758.336 1.192.47 2.132 1.377 2.671 2.617l58.44 130.157a4.77 4.77 0 0 1 .063 3.67zm16.165-22.679c-3.71 1.359-4.048 1.483-9.198 3.385a9.944 9.944 0 0 0-.739.316l-15.244-33.951 25.836-3.311 3.03 32.331c-.462.098-.923.217-1.379.384zm25.536 15.613a4.764 4.764 0 0 1-3.259 1.703c-2.658.238-4.967-1.755-5.203-4.373l-16.781-179.035a4.768 4.768 0 0 1 1.096-3.503 4.772 4.772 0 0 1 3.26-1.703 4.75 4.75 0 0 1 3.495 1.095 4.789 4.789 0 0 1 1.708 3.278l6.44 68.71.008.081 10.333 110.243a4.764 4.764 0 0 1-1.097 3.504zm67.578-49.735c-18.477 6.892-31.938 11.796-48.979 18.005l-7.818 2.849-2.303-24.568 56.707-7.267 3.198 10.726c-.269.076-.538.156-.805.255zm24.109 19.083a4.76 4.76 0 0 1-1.799.183h-.001a4.776 4.776 0 0 1-4.167-3.41l-10.309-34.577a5.99 5.99 0 0 0-.347-1.163l-41.476-139.112a4.759 4.759 0 0 1 .377-3.652 4.761 4.761 0 0 1 2.848-2.315 4.762 4.762 0 0 1 3.653.378 4.755 4.755 0 0 1 2.314 2.849l52.132 174.852a4.8 4.8 0 0 1-3.225 5.967zm35.625-4.781c-3.72 3.701-11.996 2.793-20.349-1.997a16.76 16.76 0 0 0-.539-2.621l-7.213-24.193c5.434 5.824 13.168 9.475 21.742 9.475a29.81 29.81 0 0 0 4.686-.372c.165.234.351.46.521.692 4.105 7.931 4.635 15.551 1.152 19.016zm53.018-12.098c-3.665 5.884-17.641 6.282-31.836-2.56-4.377-2.727-8.214-6.04-11.19-9.593 6.912-4.567 11.815-11.936 13.073-20.479 1.787 2.086 4.008 3.901 6.596 5.331 3.646 2.014 7.818 3.195 12.186 3.51.088.081.171.164.264.241 9.478 7.809 14.268 18.154 10.907 23.55zm40.096-12.802c-3.11 6.113-15.634 7.011-27.954 2.017-1.378-5.111-4.265-10.365-8.503-15.295 4.215-1.67 7.958-4.152 10.883-7.308a23.978 23.978 0 0 0 4.35-6.555c.865.382 1.727.78 2.577 1.212 14.905 7.581 21.79 19.749 18.647 25.929zm12.651-29.314c-4.952.795-9.921.845-14.433.165-3.329-2.777-7.156-5.316-11.421-7.485a62.994 62.994 0 0 0-6.617-2.894 19.258 19.258 0 0 0-.179-.755 61.685 61.685 0 0 0 8.477-7.045 62.892 62.892 0 0 0 5.854-6.708c.272-.084.542-.182.806-.307 3.905-1.854 8.232-3.171 12.861-3.915 16.511-2.651 29.241 3.126 30.343 9.971 1.099 6.844-9.181 16.32-25.691 18.973z" fill="#000000" opacity="1" data-original="#000000" class=""></path><path d="M95.444 371.977a10.002 10.002 0 0 1-8.605-4.883c-2.832-4.747-1.279-10.891 3.468-13.722l10.193-6.08c4.748-2.834 10.892-1.279 13.722 3.468 2.832 4.747 1.279 10.891-3.468 13.722l-10.193 6.08a9.953 9.953 0 0 1-5.117 1.415z" fill="#000000" opacity="1" data-original="#000000" class=""></path><circle cx="277.856" cy="398.176" r="6.005" fill="#000000" opacity="1" data-original="#000000" class=""></circle><path d="m196.99 2.449-8.221 23.117c-.352.99-1.049 1.774-1.928 2.17l-20.538 9.253c-2.902 1.307-2.902 5.931 0 7.238l20.538 9.253c.879.396 1.576 1.181 1.928 2.17l8.221 23.117c1.161 3.266 5.269 3.266 6.43 0l8.221-23.117c.352-.99 1.049-1.774 1.928-2.17l20.538-9.253c2.902-1.307 2.902-5.931 0-7.238l-20.538-9.253c-.879-.396-1.576-1.181-1.928-2.17L203.42 2.449c-1.161-3.265-5.268-3.265-6.43 0zM66.443 177.63l-6.098 17.148c-.261.734-.778 1.316-1.43 1.61l-15.235 6.864c-2.152.97-2.152 4.399 0 5.369l15.235 6.864c.652.294 1.169.876 1.43 1.61l6.098 17.148c.862 2.423 3.908 2.423 4.77 0l6.099-17.148c.261-.734.778-1.316 1.43-1.61l15.235-6.864c2.152-.97 2.152-4.399 0-5.369l-15.235-6.864c-.652-.294-1.169-.876-1.43-1.61l-6.099-17.148c-.862-2.422-3.908-2.422-4.77 0zM214.814 157.862c0 9.914 8.037 17.952 17.951 17.952s17.952-8.037 17.952-17.952-8.037-17.952-17.952-17.952c-9.914 0-17.951 8.037-17.951 17.952zM97.466 129.915a7.506 7.506 0 1 0 15.012 0 7.506 7.506 0 0 0-15.012 0z" fill="#000000" opacity="1" data-original="#000000" class=""></path></g></svg>