<svg xmlns="http://www.w3.org/2000/svg" version="1.1" xmlns:xlink="http://www.w3.org/1999/xlink" width="512" height="512" x="0" y="0" viewBox="0 0 512 512" style="enable-background:new 0 0 512 512" xml:space="preserve" class=""><g><path d="M92.195 268.563c-27.74 0-49.469 14.592-49.469 33.22 0 .602.066 14.912 5.859 29.407 6.429 16.089 17.265 26.147 31.685 29.611-14.76 3.339-25.141 12.758-25.141 24.154 0 14.276 16.282 25.46 37.066 25.46s37.065-11.184 37.065-25.46c0-11.397-10.38-20.816-25.14-24.154 14.419-3.464 25.256-13.523 31.684-29.611 5.793-14.495 5.859-28.805 5.859-29.407 0-18.628-21.729-33.22-49.468-33.22zm0 12.126c20.242 0 37.342 9.66 37.342 21.094s-17.101 21.094-37.342 21.094-37.343-9.66-37.343-21.094c-.001-11.434 17.101-21.094 37.343-21.094zm24.939 104.267c0 6.307-10.242 13.334-24.939 13.334-14.698 0-24.94-7.027-24.94-13.334 0-5.397 7.503-11.317 18.877-12.914v12.914a6.064 6.064 0 0 0 12.126 0v-12.914c11.372 1.597 18.876 7.517 18.876 12.914zm-24.939-34.921c-18.12 0-27.446-11.241-32.247-22.878 8.602 4.91 19.817 7.847 32.247 7.847 12.366 0 23.53-2.906 32.115-7.77-6.227 15.121-17.023 22.801-32.115 22.801z" fill="#000000" opacity="1" data-original="#000000" class=""></path><path d="M512 141.772c0-12.704-10.335-23.039-23.039-23.039H238.682l9.78-17.502a6.062 6.062 0 0 0-2.335-8.25 6.057 6.057 0 0 0-8.25 2.335l-13.085 23.417h-92.655v-7.351c0-.355-.036-.701-.095-1.04a16.42 16.42 0 0 0 .095-1.681c0-8.942-7.174-16.499-17.817-20.103 5.017-3.861 8.221-9.705 8.221-16.235 0-6.94-5.304-16.512-7.585-20.305C106.588 38.1 101.81 38.1 100.011 38.1s-6.578 0-14.946 13.918c-2.281 3.793-7.585 13.363-7.585 20.305 0 6.53 3.204 12.374 8.222 16.235-10.644 3.605-17.818 11.162-17.818 20.103 0 .567.038 1.126.095 1.681a6.04 6.04 0 0 0-.095 1.04v7.351H23.039C10.335 118.732 0 129.067 0 141.772v297.106c0 .054.007.106.008.159 0 .053-.008.106-.008.159v43.176c0 12.703 10.335 23.038 23.039 23.038H488.96c12.704 0 23.039-10.335 23.039-23.038v-43.176c0-.054-.007-.106-.008-.159.001-.054.008-.106.008-.159V141.772zm-431.989-15.49c5.453 2.983 12.374 4.749 20.001 4.749 7.626 0 14.547-1.766 20-4.749v89.446c0 4.835-8.553 10.243-20 10.243s-20.001-5.408-20.001-10.243zm20.001-74.62c3.965 4.755 10.404 16.16 10.404 20.66 0 4.912-4.668 8.908-10.404 8.908-5.737 0-10.405-3.996-10.405-8.908 0-4.5 6.44-15.905 10.405-20.66zm-6.063 47.282v5.104a6.064 6.064 0 0 0 12.126 0v-5.104c8.275 1.471 13.937 5.783 13.937 9.717 0 4.835-8.553 10.243-20 10.243s-20.001-5.408-20.001-10.243c0-3.934 5.663-8.246 13.938-9.717zM20.21 141.772a2.832 2.832 0 0 1 2.829-2.829h44.846v76.785c0 12.543 14.112 22.369 32.127 22.369 18.014 0 32.126-9.826 32.126-22.369v-76.785h81.361l-8.721 15.607h-8.58c-10.563 0-19.157 8.594-19.157 19.157s8.594 19.156 19.157 19.156h119.605c10.563 0 19.157-8.593 19.157-19.156s-8.594-19.157-19.157-19.157h-97.135l8.721-15.607h261.572a2.832 2.832 0 0 1 2.829 2.829v287.001H20.21zm179.824 33.695a6.058 6.058 0 0 0 8.25-2.335l3.607-6.456h103.911a7.039 7.039 0 0 1 7.031 7.031c0 3.876-3.154 7.03-7.031 7.03H196.198c-3.877 0-7.031-3.154-7.031-7.03a7.039 7.039 0 0 1 7.031-7.031h1.804l-.302.541a6.062 6.062 0 0 0 2.334 8.25zM491.79 482.373a2.832 2.832 0 0 1-2.829 2.828H23.039a2.832 2.832 0 0 1-2.829-2.828v-33.071h471.58z" fill="#000000" opacity="1" data-original="#000000" class=""></path><path d="M256 213.303c-51.505 0-93.408 41.902-93.408 93.408 0 51.505 41.902 93.409 93.408 93.409s93.408-41.903 93.408-93.409c0-51.505-41.903-93.408-93.408-93.408zm73.799 59.405-49.048.016-15.16-46.709c28.543 3.372 52.592 21.583 64.208 46.693zM256 235.745l12.003 36.98h-24.005zm25.79 79.425L256 333.908h-.001L230.21 315.17l-.001-.001 9.85-30.318h.001l.001-.001h31.877v.001h.002l9.85 30.318zm-61.897-7.491-31.461-22.843 38.879.012zm6.374 19.616 19.421 14.11-31.446 22.862zm59.466 0 12.026 36.972-31.447-22.862zm6.374-19.616-7.418-22.831 38.879-.012zm-45.698-81.664-15.161 46.709-49.048-.016c11.617-25.11 35.666-43.321 64.209-46.693zm-71.69 80.696c0-5.381.538-10.636 1.541-15.727l39.693 28.818-15.132 46.52c-16.038-14.857-26.102-36.077-26.102-59.611zm41.705 70.96L256 348.899l39.576 28.772c-11.721 6.563-25.214 10.322-39.576 10.322s-27.855-3.759-39.576-10.322zm94.756-11.349-15.132-46.52 39.693-28.819a81.285 81.285 0 0 1 1.541 15.728c-.001 23.534-10.065 44.754-26.102 59.611zM479.335 358.643c.021-.282.023-.567.002-.854-.003-.046-.01-.091-.014-.137a6.034 6.034 0 0 0-.117-.747c-.011-.049-.019-.099-.031-.148-.007-.027-.01-.053-.017-.08a6.008 6.008 0 0 0-.242-.719c-.02-.051-.043-.099-.065-.15a6.045 6.045 0 0 0-.383-.753l-.01-.019a6.077 6.077 0 0 0-.526-.721l-.087-.102a6.051 6.051 0 0 0-.635-.626c-.009-.008-.016-.018-.026-.026L447.5 328.694a6.062 6.062 0 0 0-7.786 0l-5.729 4.799-27.06-35.391a6.063 6.063 0 0 0-9.296-.403l-36.404 39.897a6.062 6.062 0 0 0-1.356 5.732l16.625 58.955a6.062 6.062 0 0 0 5.835 4.417h33.453l25.872 7.51.055.016 2.927.85a6.064 6.064 0 0 0 6.535-2.177l11.774-15.649c.291-.388.535-.808.726-1.254l15.19-35.396c.011-.026.016-.054.027-.081a6.007 6.007 0 0 0 .431-1.732 1.92 1.92 0 0 0 .016-.144zm-35.727-17.393 16.781 14.059-11.549 3.014-10.2-12.911zm-21.186 54.749-2.251-35.116 9.17-7.681 10.977 13.895-2.469 33.38zm-12.39-42.44a6.06 6.06 0 0 0-2.157 5.036l2.306 35.978h-4.517l-3.182-50.002 9.563-19.811 12.637 16.527zm-8.333-42.331 2.092 2.736-11.876 24.601-13.767-1.526zm-27.691 37.554 16.708 1.852 2.797 43.939h-6.592zm76.508 44.819 1.749-23.64 10.569-2.759-10.015 23.338zM267.295 77.777c.079-.085 8.051-8.43 18.796-7.414 4.8.457 8.617 2.81 13.449 5.789 7.279 4.486 16.337 10.07 31.593 10.07 22.162 0 33.257-18.864 36.028-28.839a6.063 6.063 0 1 0-11.684-3.244c-.055.199-5.758 19.957-24.344 19.957-11.82 0-18.333-4.015-25.23-8.267-5.434-3.349-11.053-6.813-18.664-7.536-16.836-1.608-28.376 10.738-28.859 11.264-2.254 2.457-2.088 6.261.357 8.529s6.276 2.122 8.558-.309zM375.904 271.626l57.509-47.474 2.196 2.196a14.294 14.294 0 0 0 10.112 4.177c3.398 0 6.77-1.212 9.363-3.653a13.718 13.718 0 0 0 4.349-9.859 13.71 13.71 0 0 0-4.048-9.98l-1.808-1.808a3.396 3.396 0 0 1-1.002-2.436 3.392 3.392 0 0 1 1.027-2.42c6.843-6.686 16.404-16.163 16.501-16.259l.018-.018a14.143 14.143 0 0 0 4.171-10.069c0-3.803-1.481-7.379-4.171-10.068l-3.854-3.854a14.143 14.143 0 0 0-10.069-4.171c-3.803 0-7.379 1.481-10.086 4.189-.096.097-9.573 9.658-16.26 16.5a3.383 3.383 0 0 1-2.419 1.027l-.02.001a3.395 3.395 0 0 1-2.418-1.005l-1.577-1.575c-5.354-5.357-14.091-5.592-19.474-.524a13.718 13.718 0 0 0-4.349 9.86 13.707 13.707 0 0 0 4.047 9.978l2.286 2.286-47.985 56.825c-4.375 5.052-4.103 12.695.628 17.426 2.474 2.475 5.761 3.728 9.056 3.727a12.748 12.748 0 0 0 8.277-3.019zm36.355-88.254c.271-.256.646-.379 1.045-.379.537 0 1.117.224 1.543.65l1.576 1.575a15.429 15.429 0 0 0 10.988 4.555l.093-.001a15.428 15.428 0 0 0 11.022-4.678 3954.096 3954.096 0 0 1 16.18-16.419c.538-.539 1.166-.619 1.493-.619s.956.081 1.495.619l3.853 3.854c.538.539.619 1.168.619 1.495 0 .326-.08.949-.612 1.486-.378.375-9.721 9.634-16.427 16.187a15.429 15.429 0 0 0-4.679 11.022 15.433 15.433 0 0 0 4.554 11.08l1.808 1.809c.441.441.5.956.496 1.225a1.667 1.667 0 0 1-.537 1.212c-.638.6-1.845.472-2.587-.269l-31.967-31.968a1.684 1.684 0 0 1-.495-1.223c.007-.328.104-.803.539-1.213zm-45.112 78.972a.673.673 0 0 1-.032-.916l47.42-56.156 10.265 10.266-56.652 46.766-.089.075a.67.67 0 0 1-.912-.035zM343.345 384.177a6.064 6.064 0 0 0-6.063 6.063v11.424a6.064 6.064 0 0 0 12.126 0V390.24a6.064 6.064 0 0 0-6.063-6.063zM441.856 278.145v11.424a6.064 6.064 0 0 0 12.126 0v-11.424a6.064 6.064 0 0 0-12.126 0zM98.252 209.181c-5.58 0-10.105-4.525-10.105-10.105v-19.484c0-5.581 4.525-10.105 10.105-10.105s10.105 4.525 10.105 10.105v19.484c0 5.581-4.525 10.105-10.105 10.105zM98.252 160.267c-5.58 0-10.105-4.525-10.105-10.105v-1.825c0-5.581 4.525-10.105 10.105-10.105s10.105 4.525 10.105 10.105v1.825c0 5.58-4.525 10.105-10.105 10.105zM459.455 9.062l-8.301 23.34c-.355.999-1.059 1.791-1.947 2.191l-20.737 9.343c-2.93 1.32-2.93 5.988 0 7.308l20.737 9.343c.888.4 1.591 1.192 1.947 2.191l8.301 23.34c1.173 3.298 5.32 3.298 6.493 0l8.301-23.34c.355-.999 1.059-1.791 1.947-2.191l20.737-9.343c2.93-1.32 2.93-5.988 0-7.308l-20.737-9.343c-.888-.4-1.591-1.192-1.947-2.191l-8.301-23.34c-1.173-3.297-5.321-3.297-6.493 0zM187.257 8.424 181.1 25.737c-.264.741-.786 1.329-1.444 1.625l-15.382 6.93c-2.173.979-2.173 4.441 0 5.421l15.382 6.93c.658.297 1.18.884 1.444 1.625l6.157 17.314c.87 2.446 3.946 2.446 4.816 0l6.157-17.314c.264-.741.785-1.329 1.444-1.625l15.382-6.93c2.173-.979 2.173-4.441 0-5.421l-15.382-6.93c-.659-.297-1.18-.884-1.444-1.625l-6.157-17.313c-.871-2.446-3.947-2.446-4.816 0zM5.826 73.886c0 10.01 8.115 18.125 18.125 18.125s18.125-8.115 18.125-18.125-8.115-18.125-18.125-18.125S5.826 63.876 5.826 73.886z" fill="#000000" opacity="1" data-original="#000000" class=""></path><circle cx="398.138" cy="87.293" r="7.579" transform="rotate(-67.48 398.191 87.18)" fill="#000000" opacity="1" data-original="#000000" class=""></circle></g></svg>