<?xml version="1.0" encoding="utf-8"?>
<!-- Generator: Adobe Illustrator 27.2.0, SVG Export Plug-In . SVG Version: 6.00 Build 0)  -->
<svg version="1.1" id="Capa_1" xmlns="http://www.w3.org/2000/svg" xmlns:xlink="http://www.w3.org/1999/xlink" x="0px" y="0px"
	 viewBox="0 0 512 512" style="enable-background:new 0 0 512 512;" xml:space="preserve">
<style type="text/css">
	.st0{fill:#FFFFFF;}
</style>
<g>
	<path class="st0" d="M92.2,268.6c-27.7,0-49.5,14.6-49.5,33.2c0,0.6,0.1,14.9,5.9,29.4c6.4,16.1,17.3,26.1,31.7,29.6
		c-14.8,3.3-25.1,12.8-25.1,24.2c0,14.3,16.3,25.5,37.1,25.5s37.1-11.2,37.1-25.5c0-11.4-10.4-20.8-25.1-24.2
		c14.4-3.5,25.3-13.5,31.7-29.6c5.8-14.5,5.9-28.8,5.9-29.4C141.7,283.2,119.9,268.6,92.2,268.6z M92.2,280.7
		c20.2,0,37.3,9.7,37.3,21.1s-17.1,21.1-37.3,21.1s-37.3-9.7-37.3-21.1C54.9,290.3,72,280.7,92.2,280.7z M117.1,385
		c0,6.3-10.2,13.3-24.9,13.3c-14.7,0-24.9-7-24.9-13.3c0-5.4,7.5-11.3,18.9-12.9V385c0.1,3.3,2.8,6,6.2,6c3.3-0.1,5.9-2.7,6-6V372
		C109.6,373.6,117.1,379.6,117.1,385z M92.2,350c-18.1,0-27.4-11.2-32.2-22.9c8.6,4.9,19.8,7.8,32.2,7.8c12.4,0,23.5-2.9,32.1-7.8
		C118.1,342.4,107.3,350,92.2,350L92.2,350z"/>
	<path class="st0" d="M512,141.8c0-12.7-10.3-23-23-23H238.7l9.8-17.5c1.6-2.9,0.6-6.6-2.3-8.2c0,0,0,0,0,0
		c-2.9-1.6-6.6-0.6-8.2,2.3c0,0,0,0,0,0l-13.1,23.4h-92.7v-7.4c0-0.4,0-0.7-0.1-1c0.1-0.6,0.1-1.1,0.1-1.7c0-8.9-7.2-16.5-17.8-20.1
		c5-3.9,8.2-9.7,8.2-16.2c0-6.9-5.3-16.5-7.6-20.3c-8.4-13.9-13.1-13.9-14.9-13.9s-6.6,0-14.9,13.9c-2.3,3.8-7.6,13.4-7.6,20.3
		c0,6.5,3.2,12.4,8.2,16.2c-10.6,3.6-17.8,11.2-17.8,20.1c0,0.6,0,1.1,0.1,1.7c-0.1,0.3-0.1,0.7-0.1,1v7.4H23c-12.7,0-23,10.3-23,23
		v297.1c0,0.1,0,0.1,0,0.2c0,0.1,0,0.1,0,0.2v43.2c0,12.7,10.3,23,23,23H489c12.7,0,23-10.3,23-23v-43.2c0-0.1,0-0.1,0-0.2
		c0-0.1,0-0.1,0-0.2L512,141.8L512,141.8z M80,126.3c5.5,3,12.4,4.7,20,4.7c7.6,0,14.5-1.8,20-4.7v89.4c0,4.8-8.6,10.2-20,10.2
		s-20-5.4-20-10.2V126.3z M100,51.7c4,4.8,10.4,16.2,10.4,20.7c0,4.9-4.7,8.9-10.4,8.9c-5.7,0-10.4-4-10.4-8.9
		C89.6,67.8,96,56.4,100,51.7z M93.9,98.9v5.1c0.1,3.3,2.8,6,6.2,6c3.3-0.1,5.9-2.7,6-6v-5.1c8.3,1.5,13.9,5.8,13.9,9.7
		c0,4.8-8.6,10.2-20,10.2s-20-5.4-20-10.2C80,104.7,85.7,100.4,93.9,98.9z M20.2,141.8c0-1.6,1.3-2.8,2.8-2.8h44.8v76.8
		c0,12.5,14.1,22.4,32.1,22.4c18,0,32.1-9.8,32.1-22.4v-76.8h81.4l-8.7,15.6h-8.6c-10.6,0-19.2,8.6-19.2,19.2s8.6,19.2,19.2,19.2
		h119.6c10.6,0,19.2-8.6,19.2-19.2s-8.6-19.2-19.2-19.2h-97.1l8.7-15.6H489c1.6,0,2.8,1.3,2.8,2.8v287H20.2V141.8z M200,175.5
		c2.9,1.6,6.6,0.6,8.2-2.3c0,0,0,0,0,0l3.6-6.5h103.9c3.9,0,7,3.1,7,7c0,3.9-3.2,7-7,7H196.2c-3.9,0-7-3.2-7-7c0-3.9,3.1-7,7-7h1.8
		l-0.3,0.5C196.1,170.1,197.1,173.8,200,175.5C200,175.5,200,175.5,200,175.5z M491.8,482.4c0,1.6-1.3,2.8-2.8,2.8H23
		c-1.6,0-2.8-1.3-2.8-2.8v-33.1h471.6L491.8,482.4z"/>
	<path class="st0" d="M256,213.3c-51.5,0-93.4,41.9-93.4,93.4c0,51.5,41.9,93.4,93.4,93.4s93.4-41.9,93.4-93.4
		C349.4,255.2,307.5,213.3,256,213.3L256,213.3z M329.8,272.7l-49,0L265.6,226C294.1,229.4,318.2,247.6,329.8,272.7z M256,235.7
		l12,37h-24L256,235.7z M281.8,315.2L256,333.9h0l-25.8-18.7l0,0l9.9-30.3h0l0,0h31.9v0h0L281.8,315.2L281.8,315.2z M219.9,307.7
		l-31.5-22.8l38.9,0L219.9,307.7z M226.3,327.3l19.4,14.1l-31.4,22.9L226.3,327.3z M285.7,327.3l12,37l-31.4-22.9L285.7,327.3z
		 M292.1,307.7l-7.4-22.8l38.9,0L292.1,307.7z M246.4,226l-15.2,46.7l-49,0C193.8,247.6,217.9,229.4,246.4,226L246.4,226z
		 M174.7,306.7c0-5.4,0.5-10.6,1.5-15.7l39.7,28.8l-15.1,46.5C184.8,351.5,174.7,330.2,174.7,306.7z M216.4,377.7l39.6-28.8
		l39.6,28.8c-11.7,6.6-25.2,10.3-39.6,10.3S228.1,384.2,216.4,377.7L216.4,377.7z M311.2,366.3L296,319.8l39.7-28.8
		c1,5.2,1.5,10.4,1.5,15.7C337.3,330.2,327.2,351.5,311.2,366.3z M479.3,358.6c0-0.3,0-0.6,0-0.9c0,0,0-0.1,0-0.1
		c0-0.3-0.1-0.5-0.1-0.7c0,0,0-0.1,0-0.1c0,0,0-0.1,0-0.1c-0.1-0.2-0.1-0.5-0.2-0.7c0-0.1,0-0.1-0.1-0.1c-0.1-0.3-0.2-0.5-0.4-0.8
		l0,0c-0.2-0.3-0.3-0.5-0.5-0.7l-0.1-0.1c-0.2-0.2-0.4-0.4-0.6-0.6c0,0,0,0,0,0l-29.7-24.9c-2.3-1.9-5.5-1.9-7.8,0l-5.7,4.8
		l-27.1-35.4c-2-2.7-5.8-3.2-8.5-1.1c-0.3,0.2-0.6,0.5-0.8,0.7l-36.4,39.9c-1.4,1.5-1.9,3.7-1.4,5.7l16.6,59
		c0.7,2.6,3.1,4.4,5.8,4.4h33.5l25.9,7.5l0.1,0l2.9,0.9c2.4,0.7,5-0.2,6.5-2.2l11.8-15.6c0.3-0.4,0.5-0.8,0.7-1.3l15.2-35.4
		c0,0,0-0.1,0-0.1c0.2-0.6,0.4-1.1,0.4-1.7C479.3,358.7,479.3,358.7,479.3,358.6L479.3,358.6z M443.6,341.2l16.8,14.1l-11.5,3
		l-10.2-12.9L443.6,341.2z M422.4,396l-2.3-35.1l9.2-7.7l11,13.9l-2.5,33.4L422.4,396z M410,353.6c-1.5,1.2-2.3,3.1-2.2,5l2.3,36
		h-4.5l-3.2-50l9.6-19.8l12.6,16.5L410,353.6z M401.7,311.2l2.1,2.7l-11.9,24.6l-13.8-1.5L401.7,311.2z M374,348.8l16.7,1.9
		l2.8,43.9h-6.6L374,348.8z M450.5,393.6l1.7-23.6l10.6-2.8l-10,23.3L450.5,393.6z M267.3,77.8c0.1-0.1,8.1-8.4,18.8-7.4
		c4.8,0.5,8.6,2.8,13.4,5.8c7.3,4.5,16.3,10.1,31.6,10.1c22.2,0,33.3-18.9,36-28.8c0.9-3.2-1-6.6-4.2-7.5c-3.2-0.9-6.6,1-7.5,4.2
		c0,0,0,0,0,0c-0.1,0.2-5.8,20-24.3,20c-11.8,0-18.3-4-25.2-8.3c-5.4-3.3-11.1-6.8-18.7-7.5c-16.8-1.6-28.4,10.7-28.9,11.3
		c-2.3,2.5-2.1,6.3,0.4,8.5S265,80.2,267.3,77.8z M375.9,271.6l57.5-47.5l2.2,2.2c2.7,2.7,6.3,4.2,10.1,4.2c3.4,0,6.8-1.2,9.4-3.7
		c2.7-2.6,4.3-6.1,4.3-9.9c0.1-3.7-1.4-7.3-4-10l-1.8-1.8c-0.6-0.6-1-1.5-1-2.4c0-0.9,0.4-1.8,1-2.4c6.8-6.7,16.4-16.2,16.5-16.3
		l0,0c2.7-2.7,4.2-6.3,4.2-10.1c0-3.8-1.5-7.4-4.2-10.1l-3.9-3.9c-2.7-2.7-6.3-4.2-10.1-4.2c-3.8,0-7.4,1.5-10.1,4.2
		c-0.1,0.1-9.6,9.7-16.3,16.5c-0.6,0.7-1.5,1-2.4,1l0,0c-0.9,0-1.8-0.4-2.4-1l-1.6-1.6c-5.4-5.4-14.1-5.6-19.5-0.5
		c-2.7,2.6-4.3,6.1-4.3,9.9c-0.1,3.7,1.4,7.3,4,10l2.3,2.3l-48,56.8c-4.4,5.1-4.1,12.7,0.6,17.4c2.5,2.5,5.8,3.7,9.1,3.7
		C370.7,274.7,373.6,273.6,375.9,271.6L375.9,271.6z M412.3,183.4c0.3-0.3,0.6-0.4,1-0.4c0.5,0,1.1,0.2,1.5,0.6l1.6,1.6
		c2.9,2.9,6.9,4.6,11,4.6l0.1,0c4.2,0,8.1-1.7,11-4.7c5.4-5.5,10.8-11,16.2-16.4c0.5-0.5,1.2-0.6,1.5-0.6s1,0.1,1.5,0.6l3.9,3.9
		c0.5,0.5,0.6,1.2,0.6,1.5c0,0.3-0.1,0.9-0.6,1.5c-0.4,0.4-9.7,9.6-16.4,16.2c-3,2.9-4.7,6.9-4.7,11c0,4.2,1.6,8.2,4.6,11.1l1.8,1.8
		c0.4,0.4,0.5,1,0.5,1.2c0,0.5-0.2,0.9-0.5,1.2c-0.6,0.6-1.8,0.5-2.6-0.3l-32-32c-0.3-0.3-0.5-0.8-0.5-1.2
		C411.7,184.3,411.8,183.8,412.3,183.4L412.3,183.4z M367.1,262.3c-0.2-0.2-0.3-0.6,0-0.9l47.4-56.2l10.3,10.3l-56.7,46.8l-0.1,0.1
		C367.8,262.6,367.4,262.6,367.1,262.3L367.1,262.3z M343.3,384.2c-3.3,0-6.1,2.7-6.1,6.1v11.4c0.1,3.3,2.8,6,6.2,6
		c3.3-0.1,5.9-2.7,6-6v-11.4C349.4,386.9,346.7,384.2,343.3,384.2L343.3,384.2z M441.9,278.1v11.4c0.1,3.3,2.8,6,6.2,6
		c3.3-0.1,5.9-2.7,6-6v-11.4c-0.1-3.3-2.8-6-6.2-6C444.5,272.3,441.9,274.9,441.9,278.1z M98.3,209.2c-5.6,0-10.1-4.5-10.1-10.1
		v-19.5c0-5.6,4.5-10.1,10.1-10.1s10.1,4.5,10.1,10.1v19.5C108.4,204.7,103.8,209.2,98.3,209.2z M98.3,160.3
		c-5.6,0-10.1-4.5-10.1-10.1v-1.8c0-5.6,4.5-10.1,10.1-10.1s10.1,4.5,10.1,10.1v1.8C108.4,155.7,103.8,160.3,98.3,160.3z M459.5,9.1
		l-8.3,23.3c-0.4,1-1.1,1.8-1.9,2.2l-20.7,9.3c-2.9,1.3-2.9,6,0,7.3l20.7,9.3c0.9,0.4,1.6,1.2,1.9,2.2l8.3,23.3
		c1.2,3.3,5.3,3.3,6.5,0l8.3-23.3c0.4-1,1.1-1.8,1.9-2.2l20.7-9.3c2.9-1.3,2.9-6,0-7.3l-20.7-9.3c-0.9-0.4-1.6-1.2-1.9-2.2
		l-8.3-23.3C464.8,5.8,460.6,5.8,459.5,9.1z M187.3,8.4l-6.2,17.3c-0.3,0.7-0.8,1.3-1.4,1.6l-15.4,6.9c-2.2,1-2.2,4.4,0,5.4
		l15.4,6.9c0.7,0.3,1.2,0.9,1.4,1.6l6.2,17.3c0.9,2.4,3.9,2.4,4.8,0l6.2-17.3c0.3-0.7,0.8-1.3,1.4-1.6l15.4-6.9c2.2-1,2.2-4.4,0-5.4
		l-15.4-6.9c-0.7-0.3-1.2-0.9-1.4-1.6l-6.2-17.3C191.2,6,188.1,6,187.3,8.4z M5.8,73.9C5.8,83.9,13.9,92,24,92s18.1-8.1,18.1-18.1
		S34,55.8,24,55.8S5.8,63.9,5.8,73.9z"/>
	<circle class="st0" cx="398.3" cy="87.3" r="7.6"/>
</g>
</svg>
