<svg xmlns="http://www.w3.org/2000/svg" version="1.1" xmlns:xlink="http://www.w3.org/1999/xlink" width="512" height="512" x="0" y="0" viewBox="0 0 64 64" style="enable-background:new 0 0 512 512" xml:space="preserve" class=""><g><path d="M61.742 41.33C61.178 40.7 47.728 26 32 26S2.822 40.7 2.258 41.33a1 1 0 0 0 0 1.34C2.822 43.3 16.272 58 32 58s29.178-14.7 29.742-15.33a1 1 0 0 0 0-1.34Zm-7.38-4.015C48.869 34.818 40.735 32 32 32s-16.873 2.822-22.365 5.318C14.924 33.125 23.189 28 32 28s17.073 5.123 22.362 9.315ZM44 40a12 12 0 1 1-23.092-4.552 49.934 49.934 0 0 1 5.386-1.048 8 8 0 1 0 11.411 0 49.887 49.887 0 0 1 5.386 1.045A11.9 11.9 0 0 1 44 40Zm-6 0a6 6 0 1 1-6-6 6.006 6.006 0 0 1 6 6Zm-6 16C19.288 56 7.709 45.334 4.576 42.193a63.783 63.783 0 0 1 13.994-6.1 14 14 0 1 0 26.859 0A63.651 63.651 0 0 1 59.424 42.2C56.292 45.333 44.712 56 32 56Z" fill="#000000" opacity="1" data-original="#000000" class=""></path><path d="M3.656 36.754C9.126 31.991 20.082 24 32 24s22.874 7.991 28.344 12.754a1 1 0 1 0 1.312-1.508C55.977 30.3 44.569 22 32 22S8.023 30.3 2.344 35.246a1 1 0 1 0 1.312 1.508ZM32 20a1 1 0 0 0 1-1V7a1 1 0 0 0-2 0v12a1 1 0 0 0 1 1ZM18.09 21.414a1 1 0 0 0 1.82-.828l-5-11a1 1 0 0 0-1.82.828ZM25.03 19.243A1 1 0 0 0 26 20a.968.968 0 0 0 .243-.03 1 1 0 0 0 .728-1.213l-2-8a1 1 0 0 0-1.94.486ZM12.231 23.64a1 1 0 0 0 1.538-1.28l-5-6a1 1 0 0 0-1.538 1.28ZM2.485 24.857l5 3a1 1 0 1 0 1.03-1.714l-5-3a1 1 0 0 0-1.03 1.714ZM44.586 21.91a1 1 0 0 0 1.324-.5l5-11a1 1 0 1 0-1.82-.828l-5 11a1 1 0 0 0 .496 1.328ZM37.758 19.97A.968.968 0 0 0 38 20a1 1 0 0 0 .969-.757l2-8a1 1 0 0 0-1.94-.486l-2 8a1 1 0 0 0 .729 1.213ZM50.359 23.768a1 1 0 0 0 1.41-.128l5-6a1 1 0 0 0-1.538-1.28l-5 6a1 1 0 0 0 .128 1.408ZM55.143 27.515a1 1 0 0 0 1.372.342l5-3a1 1 0 1 0-1.03-1.714l-5 3a1 1 0 0 0-.342 1.372Z" fill="#000000" opacity="1" data-original="#000000" class=""></path></g></svg>