<svg xmlns="http://www.w3.org/2000/svg" version="1.1" xmlns:xlink="http://www.w3.org/1999/xlink" width="512" height="512" x="0" y="0" viewBox="0 0 39 39" style="enable-background:new 0 0 512 512" xml:space="preserve" class=""><g><path d="M20.663 18.595c-.599-.64-1.56-.542-1.769-.342.406.686-.195 1.198-.72 1.043-.1-.029-.181-.084-.267-.142-.582 2.19 2.824 3.085 3.182.566-.058-.22.053-.615-.426-1.125zM20.778 13.113c-.27-.37-.55-.733-.816-1.105-.153-.213-.295-.463-.469-.658-.081.104-1.22 1.662-1.293 1.766 1.348-.187 1.468-.124 2.578-.003zm-1.282-1.161c.232.222.42.556.6.823-.448.025-.806.026-1.204.004.172-.283.385-.577.604-.827z" fill="#000000" opacity="1" data-original="#000000" class=""></path><path d="M19.266 15.078c-3.63.114-6.38 1.896-8.75 4.573 2.33 2.676 5.493 4.557 9.094 4.54 2.929-.014 5.768-1.434 7.806-3.49.316-.32.664-.666.929-1.027-2.227-3.023-5.783-4.67-9.079-4.596zm-7.454 4.638c.222-.178 1.554-1.038 1.713-1.14l.018.03c-.43.803-.572 1.227.026 2.33-.118-.072-1.578-1.056-1.757-1.22zm10.695 2.514c-2.34 2.698-6.693 1.202-6.991-2.2-.206-2.343 1.423-4.208 3.628-4.405l.022-.002c3.38-.296 5.72 3.802 3.34 6.607zm3.686-1.806c-.304.181-.638.354-.968.48.236-.294.45-.562.5-.948.072-.55-.19-.995-.512-1.416.49.134 1.48.865 1.91 1.204-.306.227-.607.48-.93.68z" fill="#000000" opacity="1" data-original="#000000" class=""></path><path d="M19.199 16.392c-.008 0-.015.002-.023.003-3.13.325-3.873 4.047-1.72 5.761 1.512 1.204 3.674.836 4.753-.778 1.496-2.197-.378-5.258-3.01-4.986zm2.383 5.033c-1.06 1.207-2.818 1.284-3.939.273-1.39-1.255-1.12-3.343.024-4.175.248-.32 1.194-.787 2.146-.652.506.062 1.361.453 1.675.863l.009.013c.907.844 1.08 2.548.085 3.678zM18.297 26.038c.008.012 1.106 1.614 1.172 1.697.077-.101 1.093-1.454 1.25-1.702-1.386.18-1.993.018-2.422.005zm1.746.373c-.159.289-.364.556-.556.824-.138-.173-.412-.623-.528-.815.36.002.72-.008 1.078-.028z" fill="#000000" opacity="1" data-original="#000000" class=""></path><path d="M35.096 20.287a.944.944 0 0 0-.009-1.553c-.499-.338-.988-.677-1.496-1.007.168-.45.023-.937.734-2.484a.953.953 0 0 0-.405-1.215c-.897-.467-.596-.5-1.496-1.223a.88.88 0 0 0-.113-.612c-1.194-2.071-2.846-3.575-4.734-5.007-.396-.306-.804-.574-1.28-.423-.883-.925-1.01-.886-1.158-1.478a.972.972 0 0 0-1.393-.612c-.1.057-.362.224-.696.367-.688.293-1.477.167-1.845.273-.814-1.2-1.045-1.85-1.798-1.797-.585.06-.677.398-1.656 1.797-.51-.147-.978.107-2.588-.602-.536-.258-1.164.078-1.3.64-.074.32-.187.414-.507.687-.112.094-.594.51-.66.64a.918.918 0 0 0-.743.132c-1.73 1.122-2.528 1.794-4 3.492-.86 1.145-1.49 1.79-1.298 2.447-.188.16-.377.313-.64.611a2.806 2.806 0 0 1-.33.34c-.326.275-.86.271-1.045.846-.2.58.165.774.377 1.515v.01c.254.71.246 1.396.414 1.684-.658.411-1.17.735-1.534.989a.922.922 0 0 0-.395.781c0 .31.16.602.414.772.499.33.997.65 1.524.969-.128.193-.122.333-.169.508-.188.8-.32 1.374-.64 2.099a.953.953 0 0 0 .028.8c.224.484.745.523.866.584.219.124.359.518 1.186 1.138 0 0 .01 0 .01.01a.935.935 0 0 0 .103.65c1.165 2.037 2.992 3.81 4.49 4.78.802.543 1.118.651 1.402.555l.14.17c.571.642.9.626 1.045 1.176.157.589.856.907 1.403.565.736-.455.999-.43 1.581-.565.322-.06.548-.071.79-.225.074.109.36.591 1.045 1.562.16.245.433.395.734.405.01.01.02.01.038.01a.943.943 0 0 0 .725-.349c.299-.36.91-1.337 1.044-1.582a.562.562 0 0 0 .18.057c.98.219 1.49.166 2.126.659.528.381 1.27.176 1.478-.47.103-.377.17-.424.405-.64.37-.31.836-.873.875-.951a.938.938 0 0 0 .772-.085c3.443-2.066 4.475-4.293 4.64-4.49.291-.427.553-.806.451-1.232.158-.08.625-.503.847-.734.1-.1.297-.343.349-.396.229-.115.763-.103.997-.65.294-.631-.143-.72-.508-2.126-.188-.914-.227-1.072-.32-1.224.1-.05 1.333-.844 1.543-.988zm-1.631-5.431c-.512 1.143-.671 1.886-.747 2.509-.202-1.355-1.065-2.59-2.149-3.226-.296-.174-.62-.301-.936-.434-.552-1.04-.721-1.032-1.103-1.665 1.375.286 2.504.778 3.56 1.717.605.537.345.537 1.375 1.099zm-15.12 15.522c-5.327-.47-9.493-4.812-9.79-10.173-.542-10.197 11.728-15.507 18.814-8.211 6.89 7.064 1.475 19.308-9.025 18.384zM29.32 27.36c.016 0 .005-.001.031.01-.024.1-.173.235-.243.315a9.959 9.959 0 0 1-1.616 1.506l-.015.005c-.027-.049.013-.19.022-.253.043-.292.059-.589.078-.884.327-.482.492-.395 1.743-.699zm-5.06 2.837c-.212.598-1.021 1.396-2.098 1.582l-.014-.03c.144-.336.295-.698.503-1 .453-.18.766-.206 1.597-.584.008.008.008.02.012.032zM16.88 31.89c-.1-.056-1.474-.44-2.182-1.685.531.232 1.08.411 1.631.591.174.27.462.792.55 1.094zm-5.388-2.672c-.279-.07-1.582-1.504-1.813-1.82.558.086.354.13 1.63.29.02.525.084 1.015.183 1.53zm-2.619-4.847c-.102-.03-.209-.101-.3-.158-.772-.475-1.302-1.324-1.51-2.195.036.014.978.557 1.18.698.4 1.251.412 1.115.63 1.655zm-1.78-7.413a1.062 1.062 0 0 1 .058-.31c.292-.98.872-1.591 1.764-2.072-.013.22-.147.173-.63 1.716-.385.24-.796.446-1.193.666zm2.531-5.321-.002-.02c.096-.217 1.147-1.271 1.866-1.838.06.167-.082.188-.158 1.378l-.203.199c-.827.072-.741.084-1.503.28zm4.926-2.73c.162-.531 1.03-1.465 2.379-1.79l.017.003c0 .11-.284.505-.352.64-.078.157-.14.32-.204.483a17.84 17.84 0 0 0-1.82.676zm7.53-1.8c.995.265 1.834.851 2.307 1.779-.622-.21-.321-.245-1.824-.671-.141-.378-.302-.747-.482-1.108zm5.304 2.596c.243.128 1.828 1.667 1.967 1.925-.464-.106-.957-.23-1.434-.238a3.76 3.76 0 0 0-.292-.286c-.093-.463-.153-.936-.241-1.401zm3.357 13.007c.404-.23.822-.437 1.223-.67.042.142-.322 1.176-1.185 1.887-.186.153-.39.28-.595.408-.045-.113.141-.172.557-1.625zm-.044-6.498c-.269-.76-.197-.723-.617-1.677.079.04.156.097.23.146.812.539 1.437 1.317 1.632 2.286-.193-.094-.464-.291-1.245-.755zm-2.522-7.366c1.29 1.087 2.476 2.347 3.32 3.818a14.201 14.201 0 0 1-.856-.533c-.218-.198-1.21-1.595-2.802-2.912-.214-.177-.555-.38-.729-.57-.135-.149-.396-.753-.544-.993.25.081 1.264.897 1.61 1.19zM24.2 5.503l.018.001v.021l.01-.013c.246.986.719 1.148 1.347 1.85.736.824 1.25 2.039 1.33 3.148-.492-.388-1.023-.818-1.592-1.09-.036-.016-.047-.02-.068-.058-.18-.21-.377-2.206-3.784-3.149 1.584-.064 1.786-.188 2.74-.71zM18.908 5.3c.195-.28.378-.568.579-.844.102.1 2.124 3.124 2.316 3.609-1.799-.354-3.047-.268-4.578-.018.45-.974 1.07-1.87 1.683-2.747zM13.434 7.26c.563-.64 1.135-.78 1.35-1.693 1.031.459 1.59.573 2.705.647-.37.152-.857.194-1.713.66-1.106.6-1.66 1.26-2.017 2.463-.203.133-.895.46-1.816 1.302.148-1.108.744-2.53 1.491-3.379zm-2.535 1.439c.6-.484.881-.654 1.57-1.107l.013.014c-.028.147-.119.104-.558 1.027-2.004 1.38-3.134 3.107-3.413 3.344-.14.117-.325.187-.486.274-.157.084-.31.177-.463.27l-.01-.022c.45-.86 1.802-2.546 3.347-3.8zm-3.812 4.914c.895-.79 2.209-1.278 3.356-1.568.026-.002.012-.004.04.013-.03.117-.336.443-.425.566-.245.332-.462.695-.68 1.045-1.75.623-2.716 1.837-3.135 3.611-.111-.964-.37-1.76-.716-2.426.263-.123.91-.668 1.56-1.241zm-2.648 5.9c.482-.339 2.747-1.765 3.558-2.17l.026.008c.038.122-.119.622-.166 1.466a12.26 12.26 0 0 0 .162 2.882c-.876-.464-2.446-1.438-3.58-2.185zm2.307 5.67c-.566-.58-.48-.707-1.26-.922.395-.88.534-1.561.746-2.488.043.104.06.23.092.341.273.987 1.091 2.18 2.065 2.738.297.17.62.282.94.4.248.305.175.364 1.125 1.653-1.302-.189-2.771-.767-3.708-1.723zm1.448 2.294c-.201-.288-.378-.592-.554-.895.108.034.85.444.939.519.17.142.305.368.44.544.832 1.066 1.838 2.021 2.559 2.56.59.444.437.3.75.876.073.137.154.268.235.4-.689-.258-2.89-1.879-4.37-4.004zm6.619 6.022c-.235-.912-.702-.948-1.252-1.563-.866-.967-1.32-2.174-1.52-3.441.334.164.382.382 1.673 1.131.051.14.104.28.158.42.755 1.9 2.675 2.433 3.272 2.689-.846.18-1.344.159-2.331.764zm4.678 1.044c-.368-.533-1.928-2.839-2.25-3.549.287.067.587.1.878.134 1.601.19 2.497-.009 3.586-.154l.012.019c-.146.32-1.881 3.133-2.226 3.55zm5.808-2.554c-.559.652-.88.619-1.16 1.536-.812-.619-1.463-.613-2.505-.83 1.779-.436 2.912-.859 3.597-2.97a14.541 14.541 0 0 0 1.59-1.053c.066.29-.394 1.989-1.522 3.317zm5.121-4.036c-1.018 1.433-2.323 2.473-3.805 3.365l-.02-.03c.203-.328.377-.656.536-1.006 2.267-1.486 2.918-2.99 3.244-3.265.156-.13.659-.32.88-.448.013.011.006.003.016.03-.088.179-.785 1.261-.85 1.354zm2.466-3.472c-.515.322-.97 1.697-4.374 2.5.39-.536.776-1.055 1.075-1.65.35-.202.728-.34 1.074-.56 1.087-.691 1.804-1.759 2.082-3.013.137.136.082 1.119.781 2.489-.212.058-.45.116-.638.234zm-1.91-2.726c.06-.762.397-2.148-.038-4.575.339.111 3.321 2.128 3.618 2.332-.315.22-2.897 1.874-3.58 2.243z" fill="#000000" opacity="1" data-original="#000000" class=""></path><path d="M29.569 17.28A10.315 10.315 0 0 0 18.922 9.22c-9.135.473-13.133 11.638-6.411 17.979 2.084 1.965 4.508 2.739 7.338 2.707 6.156-.19 11.184-5.995 9.72-12.625zm-4.953-5.662a9.404 9.404 0 0 1 4.029 5.54c.107.4.225.838.238 1.253-.129-.099-.254-.261-.367-.381-.069-.275-.107-.558-.183-.831-.915-3.289-3.6-5.813-6.683-6.549-.52-.124-1.046-.172-1.574-.24-.067-.109-.145-.214-.218-.32 1.23-.004 3.07.448 4.758 1.528zM24 13.408c-.745-.547-1.798-1.103-2.706-1.22-.093-.146-.292-.346-.315-.517 2.547.255 5.3 2.594 5.972 4.945-1.097-.738-1.016-1.784-2.951-3.208zm.616 1.648c-.273-.06-.162-.166-2.172-.925-.086-.201-.221-.376-.312-.576.743.273 1.916.956 2.484 1.501zm-5.12-4.8c.178.17 2.268 3.305 2.464 3.739-.295-.043-.588-.13-.881-.188-1.915-.375-3.028-.009-4.103.217.116-.201 1.85-2.892 2.52-3.768zm-6.762 5.79c-.178.203-.51.412-.73.591l-.032.012c.415-1.907 2.967-4.454 5.986-4.978h.04l.005.027c-.08.162-.202.344-.32.482-3.423.731-4.8 3.694-4.95 3.866zm4.13-2.522c-.026.144-.275.479-.365.62-.71.223-1.424.564-2.086.903-.015.001-.004 0-.031-.008.067-.095.204-.18.297-.253 1.19-.919 2.063-1.225 2.166-1.278zm2.118-3.426.17-.007a7.58 7.58 0 0 1-.281.325c-.227.028-.456.042-.683.074-3.924.578-6.732 3.439-7.593 6.89-.094.388-.063.725-.424.9.425-4.138 3.942-7.83 8.811-8.182zm-8.286 12.9c-.262-.675-.371-1.191-.531-1.946.1.064.319.32.368.43.119.266.324 1.584 1.348 3.132 1.676 2.535 4.032 3.754 6.973 3.943.079.115.152.23.221.35-4.183-.273-7.108-2.608-8.379-5.908zm7.021 3.947c.152.172.295.347.42.539-.689-.117-1.359-.274-1.997-.564-1.48-.673-2.697-1.813-3.554-3.185-.213-.34-.422-.697-.563-1.073.12.065.239.174.352.254.135.097.292.19.412.305.325.308 1.46 2.903 4.93 3.724zm-3.27-2.827c.256.054.286.206 1.897.804.159.245.348.47.517.708-.378-.119-1.674-.822-2.413-1.512zm3.557 2.443c-.352-.508-.766-.97-1.124-1.471 1.414.245 2.281.705 5.206.027-.492.735-2.134 3.045-2.617 3.592-.195-.225-.029-.074-1.465-2.148zm7.74-2.74c.466-.71.103-.289 1.135-1.067.004.19-.685 1.328-1.096 1.84-1.4 1.748-3.41 2.723-4.924 2.89.018-.12.302-.425.392-.53 1.806-.415 3.376-1.435 4.493-3.132zm-3.657 1.856c.012-.122.365-.56.449-.705a14.28 14.28 0 0 0 1.581-.612l.021.01c-.07.142-1.155 1.02-2.027 1.31zm6.559-3.694c-1.214 4.317-4.81 6.863-8.814 6.953l-.012-.013c.013-.068.2-.265.256-.338 2.143-.123 4.156-.957 5.699-2.401 1.446-1.354 2.197-2.94 2.691-4.833.13-.129.257-.26.38-.396l.015.02c-.01.31-.13.707-.215 1.008zm-8.686 3.085c-2.718.174-6.258-1.039-9.391-4.264-.34-.351-.641-.749-.964-1.117.32-.466.898-1.111 1.293-1.528 2.598-2.747 6.424-4.631 10.156-4 3.17.537 6.439 2.892 8.284 5.493-2.35 3.014-5.625 5.183-9.378 5.416z" fill="#000000" opacity="1" data-original="#000000" class=""></path></g></svg>