<?xml version="1.0" encoding="utf-8"?>
<!-- Generator: Adobe Illustrator 27.2.0, SVG Export Plug-In . SVG Version: 6.00 Build 0)  -->
<svg version="1.1" id="Capa_1" xmlns="http://www.w3.org/2000/svg" xmlns:xlink="http://www.w3.org/1999/xlink" x="0px" y="0px"
	 viewBox="0 0 512 512" style="enable-background:new 0 0 512 512;" xml:space="preserve">
<style type="text/css">
	.st0{fill:#02B663;}
</style>
<g>
	<path class="st0" d="M271.3,244.1c-7.9-8.4-20.5-7.1-23.2-4.5c5.3,9-2.6,15.7-9.5,13.7c-1.3-0.4-2.4-1.1-3.5-1.9
		c-7.6,28.8,37.1,40.5,41.8,7.4C276.1,256,277.6,250.8,271.3,244.1L271.3,244.1z M272.8,172.2c-3.5-4.9-7.2-9.6-10.7-14.5
		c-2-2.8-3.9-6.1-6.2-8.6c-1.1,1.4-16,21.8-17,23.2C256.6,169.7,258.2,170.6,272.8,172.2L272.8,172.2z M255.9,156.9
		c3,2.9,5.5,7.3,7.9,10.8c-5.9,0.3-10.6,0.3-15.8,0.1C250.3,164.1,253.1,160.2,255.9,156.9z"/>
	<path class="st0" d="M252.9,197.9c-47.7,1.5-83.8,24.9-114.9,60c30.6,35.1,72.1,59.8,119.4,59.6c38.5-0.2,75.7-18.8,102.5-45.8
		c4.1-4.2,8.7-8.7,12.2-13.5C342.9,218.6,296.2,197,252.9,197.9L252.9,197.9z M155.1,258.8c2.9-2.3,20.4-13.6,22.5-15l0.2,0.4
		c-5.6,10.5-7.5,16.1,0.3,30.6C176.6,273.9,157.4,261,155.1,258.8L155.1,258.8z M295.5,291.8c-30.7,35.4-87.9,15.8-91.8-28.9
		c-2.7-30.8,18.7-55.2,47.6-57.8l0.3,0C296,201.2,326.7,255,295.5,291.8L295.5,291.8z M343.9,268.1c-4,2.4-8.4,4.6-12.7,6.3
		c3.1-3.9,5.9-7.4,6.6-12.4c0.9-7.2-2.5-13.1-6.7-18.6c6.4,1.8,19.4,11.4,25.1,15.8C352.1,262.2,348.1,265.5,343.9,268.1z"/>
	<path class="st0" d="M252,215.2c-0.1,0-0.2,0-0.3,0c-41.1,4.3-50.8,53.1-22.6,75.6c19.8,15.8,48.2,11,62.4-10.2
		C311.2,251.8,286.6,211.6,252,215.2z M283.3,281.3c-13.9,15.8-37,16.9-51.7,3.6c-18.2-16.5-14.7-43.9,0.3-54.8
		c3.3-4.2,15.7-10.3,28.2-8.6c6.6,0.8,17.9,5.9,22,11.3l0.1,0.2C294.1,244.1,296.4,266.4,283.3,281.3z M240.2,341.8
		c0.1,0.2,14.5,21.2,15.4,22.3c1-1.3,14.3-19.1,16.4-22.3C253.8,344.1,245.8,342,240.2,341.8z M263.1,346.7
		c-2.1,3.8-4.8,7.3-7.3,10.8c-1.8-2.3-5.4-8.2-6.9-10.7c4.7,0,9.5-0.1,14.2-0.4L263.1,346.7z"/>
	<path class="st0" d="M460.7,266.3c5.6-3.9,7-11.7,3-17.3c-0.9-1.2-1.9-2.3-3.2-3.1c-6.6-4.4-13-8.9-19.6-13.2
		c2.2-5.9,0.3-12.3,9.6-32.6c2.6-5.9,0.3-12.8-5.3-16c-11.8-6.1-7.8-6.6-19.6-16.1c0.5-2.8,0-5.6-1.5-8
		c-15.7-27.2-37.4-46.9-62.1-65.7c-5.2-4-10.6-7.5-16.8-5.6C333.6,76.6,332,77.2,330,69.4c-1.8-6.8-8.8-10.9-15.6-9.1
		c-0.9,0.2-1.8,0.6-2.7,1c-1.3,0.7-4.8,2.9-9.1,4.8c-9,3.8-19.4,2.2-24.2,3.6c-10.7-15.8-13.7-24.3-23.6-23.6
		c-7.7,0.8-8.9,5.2-21.7,23.6c-6.7-1.9-12.8,1.4-34-7.9c-7-3.4-15.3,1-17.1,8.4c-1,4.2-2.5,5.4-6.7,9c-1.5,1.2-7.8,6.7-8.7,8.4
		c-3.3-0.8-6.9-0.2-9.8,1.7c-22.7,14.7-33.2,23.6-52.5,45.8c-11.3,15-19.6,23.5-17,32.1c-2.5,2.1-4.9,4.1-8.4,8
		c-1.3,1.6-2.8,3.1-4.3,4.5c-4.3,3.6-11.3,3.6-13.7,11.1c-2.6,7.6,2.2,10.2,4.9,19.9v0.1c3.3,9.3,3.2,18.3,5.4,22.1
		c-8.6,5.4-15.4,9.6-20.1,13c-3.3,2.3-5.3,6.2-5.2,10.3c0,4.1,2.1,7.9,5.4,10.1c6.6,4.3,13.1,8.5,20,12.7c-1.7,2.5-1.6,4.4-2.2,6.7
		c-2.5,10.5-4.2,18-8.4,27.6c-1.4,3.4-1.3,7.2,0.4,10.5c2.9,6.4,9.8,6.9,11.4,7.7c2.9,1.6,4.7,6.8,15.6,14.9c0,0,0.1,0,0.1,0.1
		c-0.6,2.9-0.1,5.9,1.4,8.5c15.3,26.7,39.3,50,58.9,62.8c10.5,7.1,14.7,8.5,18.4,7.3l1.8,2.2c7.5,8.4,11.8,8.2,13.7,15.4
		c2.1,7.7,11.2,11.9,18.4,7.4c9.7-6,13.1-5.6,20.8-7.4c4.2-0.8,7.2-0.9,10.4-3c1,1.4,4.7,7.8,13.7,20.5c2.1,3.2,5.7,5.2,9.6,5.3
		c0.1,0.1,0.3,0.1,0.5,0.1c3.7,0,7.2-1.7,9.5-4.6c3.9-4.7,11.9-17.6,13.7-20.8c0.7,0.4,1.5,0.6,2.4,0.7c12.9,2.9,19.6,2.2,27.9,8.7
		c6.9,5,16.7,2.3,19.4-6.2c1.4-4.9,2.2-5.6,5.3-8.4c4.9-4.1,11-11.5,11.5-12.5c3.4,1.1,7.1,0.7,10.1-1.1
		c45.2-27.1,58.7-56.4,60.9-58.9c3.8-5.6,7.3-10.6,5.9-16.2c2.1-1.1,8.2-6.6,11.1-9.6c1.3-1.3,3.9-4.5,4.6-5.2
		c3-1.5,10-1.4,13.1-8.5c3.9-8.3-1.9-9.5-6.7-27.9c-2.5-12-3-14.1-4.2-16.1C441.8,278.6,458,268.2,460.7,266.3L460.7,266.3z
		 M439.3,195c-6.7,15-8.8,24.8-9.8,32.9c-2.7-17.8-14-34-28.2-42.4c-3.9-2.3-8.1-4-12.3-5.7c-7.2-13.7-9.5-13.5-14.5-21.9
		c18.1,3.8,32.9,10.2,46.7,22.5C429.2,187.7,425.8,187.7,439.3,195L439.3,195z M240.8,398.8c-69.9-6.2-124.6-63.2-128.5-133.6
		c-7.1-133.9,154-203.6,247-107.8C449.8,250.2,378.7,410.9,240.8,398.8L240.8,398.8z M384.9,359.2c0.2,0,0.1,0,0.4,0.1
		c-0.3,1.3-2.3,3.1-3.2,4.1c-6.3,7.4-13.4,14-21.2,19.8l-0.2,0.1c-0.4-0.6,0.2-2.5,0.3-3.3c0.6-3.8,0.8-7.7,1-11.6
		C366.3,362,368.5,363.2,384.9,359.2z M318.5,396.4c-2.8,7.9-13.4,18.3-27.5,20.8l-0.2-0.4c1.9-4.4,3.9-9.2,6.6-13.1
		c5.9-2.4,10.1-2.7,21-7.7C318.4,396.1,318.4,396.3,318.5,396.4z M221.6,418.7c-1.3-0.7-19.4-5.8-28.6-22.1c7,3,14.2,5.4,21.4,7.8
		C216.7,407.8,220.4,414.7,221.6,418.7L221.6,418.7z M150.9,383.6c-3.7-0.9-20.8-19.7-23.8-23.9c7.3,1.1,4.6,1.7,21.4,3.8
		C148.7,370.4,149.6,376.8,150.9,383.6L150.9,383.6z M116.5,319.9c-1.3-0.4-2.7-1.3-3.9-2.1c-10.1-6.2-17.1-17.4-19.8-28.8
		c0.5,0.2,12.8,7.3,15.5,9.2C113.5,314.6,113.6,312.9,116.5,319.9z M93.1,222.6c0-1.4,0.3-2.8,0.8-4.1c3.8-12.9,11.4-20.9,23.2-27.2
		c-0.2,2.9-1.9,2.3-8.3,22.5C103.7,217,98.3,219.7,93.1,222.6L93.1,222.6z M126.3,152.8l0-0.3c1.3-2.8,15.1-16.7,24.5-24.1
		c0.8,2.2-1.1,2.5-2.1,18.1l-2.7,2.6C135.2,150,136.3,150.2,126.3,152.8L126.3,152.8z M191,116.9c2.1-7,13.5-19.2,31.2-23.5l0.2,0
		c0,1.4-3.7,6.6-4.6,8.4c-1,2.1-1.8,4.2-2.7,6.3c-8.1,2.5-16.1,5.5-23.9,8.9L191,116.9z M289.9,93.3c13.1,3.5,24.1,11.2,30.3,23.4
		c-8.2-2.8-4.2-3.2-23.9-8.8C294.4,102.9,292.2,98,289.9,93.3L289.9,93.3z M359.5,127.4c3.2,1.7,24,21.9,25.8,25.3
		c-6.1-1.4-12.6-3-18.8-3.1c-1.2-1.3-2.5-2.6-3.8-3.8C361.4,139.7,360.7,133.5,359.5,127.4z M403.6,298.1c5.3-3,10.8-5.7,16.1-8.8
		c0.6,1.9-4.2,15.4-15.6,24.8c-2.4,2-5.1,3.7-7.8,5.4C395.7,318,398.1,317.2,403.6,298.1L403.6,298.1z M403,212.8
		c-3.5-10-2.6-9.5-8.1-22c1,0.5,2,1.3,3,1.9c10.7,7.1,18.9,17.3,21.4,30C416.8,221.5,413.2,218.9,403,212.8L403,212.8z M369.9,116.1
		c16.9,14.3,32.5,30.8,43.6,50.1c-3.8-2.2-7.6-4.5-11.2-7c-2.9-2.6-15.9-20.9-36.8-38.2c-2.8-2.3-7.3-5-9.6-7.5
		c-1.8-2-5.2-9.9-7.1-13C352,101.6,365.3,112.3,369.9,116.1L369.9,116.1z M317.7,72.2l0.2,0v0.3l0.1-0.2
		c3.2,12.9,9.4,15.1,17.7,24.3c9.7,10.8,16.4,26.8,17.5,41.3c-6.5-5.1-13.4-10.7-20.9-14.3c-0.5-0.2-0.6-0.3-0.9-0.8
		c-2.4-2.8-4.9-29-49.7-41.3C302.5,80.7,305.2,79.1,317.7,72.2L317.7,72.2z M248.2,69.6c2.6-3.7,5-7.5,7.6-11.1
		c1.3,1.3,27.9,41,30.4,47.4c-23.6-4.6-40-3.5-60.1-0.2C232,92.9,240.2,81.1,248.2,69.6L248.2,69.6z M176.4,95.3
		c7.4-8.4,14.9-10.2,17.7-22.2c13.5,6,20.9,7.5,35.5,8.5c-4.9,2-11.3,2.5-22.5,8.7c-14.5,7.9-21.8,16.5-26.5,32.3
		c-2.7,1.7-11.7,6-23.8,17.1C158.7,125.1,166.6,106.5,176.4,95.3z M143.1,114.2c7.9-6.4,11.6-8.6,20.6-14.5l0.2,0.2
		c-0.4,1.9-1.6,1.4-7.3,13.5c-26.3,18.1-41.1,40.8-44.8,43.9c-1.8,1.5-4.3,2.5-6.4,3.6c-2.1,1.1-4.1,2.3-6.1,3.5l-0.1-0.3
		C105.1,152.8,122.8,130.7,143.1,114.2L143.1,114.2z M93,178.7c11.7-10.4,29-16.8,44.1-20.6c0.3,0,0.2-0.1,0.5,0.2
		c-0.4,1.5-4.4,5.8-5.6,7.4c-3.2,4.4-6.1,9.1-8.9,13.7c-23,8.2-35.7,24.1-41.2,47.4c-1.5-12.7-4.9-23.1-9.4-31.8
		C76,193.4,84.5,186.2,93,178.7L93,178.7z M58.3,256.2c6.3-4.5,36.1-23.2,46.7-28.5l0.3,0.1c0.5,1.6-1.6,8.2-2.2,19.2
		c-0.8,12.7-0.1,25.4,2.1,37.8C93.8,278.8,73.2,266,58.3,256.2L58.3,256.2z M88.6,330.6c-7.4-7.6-6.3-9.3-16.5-12.1
		c5.2-11.6,7-20.5,9.8-32.7c0.6,1.4,0.8,3,1.2,4.5c3.6,13,14.3,28.6,27.1,35.9c3.9,2.2,8.1,3.7,12.3,5.3c3.3,4,2.3,4.8,14.8,21.7
		C120.1,350.7,100.9,343.1,88.6,330.6L88.6,330.6z M107.6,360.7c-2.6-3.8-5-7.8-7.3-11.7c1.4,0.4,11.2,5.8,12.3,6.8
		c2.2,1.9,4,4.8,5.8,7.1c10.9,14,24.1,26.5,33.6,33.6c7.7,5.8,5.7,3.9,9.8,11.5c1,1.8,2,3.5,3.1,5.3
		C155.9,409.9,127,388.6,107.6,360.7L107.6,360.7z M194.5,439.8c-3.1-12-9.2-12.4-16.4-20.5c-11.4-12.7-17.3-28.5-20-45.2
		c4.4,2.2,5,5,22,14.8c0.7,1.8,1.4,3.7,2.1,5.5c9.9,24.9,35.1,31.9,43,35.3C214,432.1,207.4,431.8,194.5,439.8L194.5,439.8z
		 M255.9,453.5c-4.8-7-25.3-37.3-29.5-46.6c3.8,0.9,7.7,1.3,11.5,1.8c21,2.5,32.8-0.1,47.1-2l0.2,0.2
		C283.2,411.1,260.4,448,255.9,453.5z M332.1,420c-7.3,8.6-11.6,8.1-15.2,20.2c-10.7-8.1-19.2-8-32.9-10.9
		c23.4-5.7,38.2-11.3,47.2-39c7.3-4.1,14.2-8.8,20.9-13.8C353,380.2,346.9,402.5,332.1,420L332.1,420z M399.4,367
		c-13.4,18.8-30.5,32.5-50,44.2l-0.3-0.4c2.7-4.3,4.9-8.6,7-13.2c29.8-19.5,38.3-39.3,42.6-42.9c2-1.7,8.7-4.2,11.6-5.9
		c0.2,0.1,0.1,0,0.2,0.4C409.4,351.5,400.2,365.8,399.4,367L399.4,367z M431.7,321.4c-6.8,4.2-12.7,22.3-57.4,32.8
		c5.1-7,10.2-13.9,14.1-21.7c4.6-2.7,9.6-4.5,14.1-7.4c14.3-9.1,23.7-23.1,27.3-39.6c1.8,1.8,1.1,14.7,10.3,32.7
		C437.3,319.1,434.2,319.8,431.7,321.4L431.7,321.4z M406.7,285.6c0.8-10,5.2-28.2-0.5-60.1c4.5,1.5,43.6,27.9,47.5,30.6
		C449.5,259,415.6,280.8,406.7,285.6L406.7,285.6z"/>
	<path class="st0" d="M388.2,226.9c-14.4-64.7-73.6-109.5-139.8-105.8c-119.9,6.2-172.4,152.8-84.2,236c27.4,25.8,59.2,36,96.3,35.5
		C341.4,390.1,407.4,313.9,388.2,226.9L388.2,226.9z M323.2,152.5c26.1,16.7,45,42.7,52.9,72.7c1.4,5.3,3,11,3.1,16.4
		c-1.7-1.3-3.3-3.4-4.8-5c-0.9-3.6-1.4-7.3-2.4-10.9c-12-43.2-47.3-76.3-87.7-86c-6.8-1.6-13.7-2.3-20.7-3.2
		c-0.9-1.4-1.9-2.8-2.9-4.2C276.8,132.4,301,138.3,323.2,152.5L323.2,152.5z M315.1,176c-9.8-7.2-23.6-14.5-35.5-16
		c-1.2-1.9-3.8-4.5-4.1-6.8c33.4,3.3,69.6,34.1,78.4,64.9C339.4,208.4,340.5,194.7,315.1,176L315.1,176z M323.2,197.7
		c-3.6-0.8-2.1-2.2-28.5-12.1c-1.1-2.6-2.9-4.9-4.1-7.6C300.3,181.5,315.7,190.5,323.2,197.7z M255.9,134.6
		c2.3,2.2,29.8,43.4,32.3,49.1c-3.9-0.6-7.7-1.7-11.6-2.5c-25.1-4.9-39.8-0.1-53.9,2.8C224.4,181.5,247.2,146.1,255.9,134.6
		L255.9,134.6z M167.2,210.7c-2.3,2.7-6.7,5.4-9.6,7.8l-0.4,0.2c5.4-25,39-58.5,78.6-65.4h0.5l0.1,0.4c-1.1,2.1-2.7,4.5-4.2,6.3
		C187.2,169.5,169.1,208.4,167.2,210.7L167.2,210.7z M221.4,177.5c-0.3,1.9-3.6,6.3-4.8,8.1c-9.3,2.9-18.7,7.4-27.4,11.9
		c-0.2,0-0.1,0-0.4-0.1c0.9-1.2,2.7-2.4,3.9-3.3c15.6-12.1,27.1-16.1,28.4-16.8L221.4,177.5z M249.2,132.6l2.2-0.1
		c-1.2,1.5-2.4,2.9-3.7,4.3c-3,0.4-6,0.6-9,1c-51.5,7.6-88.4,45.1-99.7,90.5c-1.2,5.1-0.8,9.5-5.6,11.8
		C139.1,185.7,185.3,137.2,249.2,132.6L249.2,132.6z M140.4,301.9c-3.4-8.9-4.9-15.6-7-25.5c1.3,0.8,4.2,4.2,4.8,5.6
		c1.6,3.5,4.3,20.8,17.7,41.1c22,33.3,52.9,49.3,91.5,51.8c1,1.5,2,3,2.9,4.6C195.5,375.9,157.1,345.3,140.4,301.9L140.4,301.9z
		 M232.6,353.7c2,2.3,3.9,4.6,5.5,7.1c-9-1.5-17.8-3.6-26.2-7.4c-19.4-8.8-35.4-23.8-46.7-41.8c-2.8-4.5-5.5-9.2-7.4-14.1
		c1.6,0.9,3.1,2.3,4.6,3.3c1.8,1.3,3.8,2.5,5.4,4C172.1,308.9,187,343,232.6,353.7z M189.7,316.6c3.4,0.7,3.8,2.7,24.9,10.6
		c2.1,3.2,4.6,6.2,6.8,9.3C216.4,334.9,199.4,325.7,189.7,316.6L189.7,316.6z M236.4,348.7c-4.6-6.7-10.1-12.7-14.8-19.3
		c18.6,3.2,29.9,9.3,68.3,0.4c-6.5,9.6-28,40-34.4,47.2C253,373.9,255.2,375.9,236.4,348.7L236.4,348.7z M338,312.7
		c6.1-9.3,1.4-3.8,14.9-14c0.1,2.5-9,17.4-14.4,24.2c-18.4,22.9-44.8,35.7-64.6,37.9c0.2-1.6,4-5.6,5.1-7
		C302.7,348.4,323.3,335,338,312.7L338,312.7z M290,337.1c0.2-1.6,4.8-7.4,5.9-9.3c7.1-2.3,14-4.9,20.8-8l0.3,0.1
		c-0.9,1.9-15.2,13.4-26.6,17.2L290,337.1z M376.1,288.6c-15.9,56.7-63.1,90.1-115.7,91.3l-0.2-0.2c0.2-0.9,2.6-3.5,3.4-4.4
		c28.1-1.6,54.6-12.6,74.8-31.5c19-17.8,28.8-38.6,35.3-63.4c1.7-1.7,3.4-3.4,5-5.2l0.2,0.3C378.8,279.4,377.2,284.6,376.1,288.6
		L376.1,288.6z M262,329.1c-35.7,2.3-82.2-13.6-123.3-56c-4.5-4.6-8.4-9.8-12.7-14.7c4.2-6.1,11.8-14.6,17-20.1
		c34.1-36.1,84.3-60.8,133.3-52.5c41.6,7,84.5,38,108.8,72.1C354.3,297.6,311.3,326,262,329.1L262,329.1z"/>
</g>
</svg>
