<svg xmlns="http://www.w3.org/2000/svg" version="1.1" xmlns:xlink="http://www.w3.org/1999/xlink" width="512" height="512" x="0" y="0" viewBox="0 0 682.667 682.667" style="enable-background:new 0 0 512 512" xml:space="preserve" class=""><g><defs><clipPath id="a" clipPathUnits="userSpaceOnUse"><path d="M0 512h512V0H0Z" fill="#000000" opacity="1" data-original="#000000"></path></clipPath></defs><g clip-path="url(#a)" transform="matrix(1.33333 0 0 -1.33333 0 682.667)"><path d="M0 0c19.31 56.747-3.971 100.863-16.443 118.974a25.23 25.23 0 0 0-3.539 21.075l10.378 37.365c1.274 4.583-2.172 9.118-6.929 9.118h-102.259" style="stroke-width:15;stroke-linecap:round;stroke-linejoin:round;stroke-miterlimit:10;stroke-dasharray:none;stroke-opacity:1" transform="translate(296.781 150.066)" fill="none" stroke="#000000" stroke-width="15" stroke-linecap="round" stroke-linejoin="round" stroke-miterlimit="10" stroke-dasharray="none" stroke-opacity="" data-original="#000000" class=""></path><path d="M0 0h-34.676c-4.757 0-8.204-4.535-6.93-9.118l10.378-37.364a25.23 25.23 0 0 0-3.539-21.076" style="stroke-width:15;stroke-linecap:round;stroke-linejoin:round;stroke-miterlimit:10;stroke-dasharray:none;stroke-opacity:1" transform="translate(142.859 336.598)" fill="none" stroke="#000000" stroke-width="15" stroke-linecap="round" stroke-linejoin="round" stroke-miterlimit="10" stroke-dasharray="none" stroke-opacity="" data-original="#000000" class=""></path><path d="M0 0a63.823 63.823 0 0 1-1.976 2.375L-16.65 20.254c-2.563 3.121-7.339 3.121-9.901 0L-41.226 2.375a62.43 62.43 0 0 1-2.962-3.656" style="stroke-width:15;stroke-linecap:round;stroke-linejoin:round;stroke-miterlimit:10;stroke-dasharray:none;stroke-opacity:1" transform="translate(119.763 253.797)" fill="none" stroke="#000000" stroke-width="15" stroke-linecap="round" stroke-linejoin="round" stroke-miterlimit="10" stroke-dasharray="none" stroke-opacity="" data-original="#000000" class=""></path><path d="M0 0a62.204 62.204 0 0 1-3.7-2.994l-17.879-14.675c-3.122-2.562-3.122-7.339 0-9.901L-3.7-42.245a61.96 61.96 0 0 1 3.757-3.036" style="stroke-width:15;stroke-linecap:round;stroke-linejoin:round;stroke-miterlimit:10;stroke-dasharray:none;stroke-opacity:1" transform="translate(43.553 220.482)" fill="none" stroke="#000000" stroke-width="15" stroke-linecap="round" stroke-linejoin="round" stroke-miterlimit="10" stroke-dasharray="none" stroke-opacity="" data-original="#000000" class=""></path><path d="M0 0a62.177 62.177 0 0 0 3.702-2.995l17.879-14.674c3.121-2.562 3.121-7.339 0-9.901L3.702-42.245a61.914 61.914 0 0 0-3.895-3.139" style="stroke-width:15;stroke-linecap:round;stroke-linejoin:round;stroke-miterlimit:10;stroke-dasharray:none;stroke-opacity:1" transform="translate(152.77 220.482)" fill="none" stroke="#000000" stroke-width="15" stroke-linecap="round" stroke-linejoin="round" stroke-miterlimit="10" stroke-dasharray="none" stroke-opacity="" data-original="#000000" class=""></path><path d="M0 0c-5.256-5.38-9.17-13.55-10.007-25.843l-1.895-19.251" style="stroke-width:15;stroke-linecap:round;stroke-linejoin:round;stroke-miterlimit:10;stroke-dasharray:none;stroke-opacity:1" transform="translate(53.061 196.352)" fill="none" stroke="#000000" stroke-width="15" stroke-linecap="round" stroke-linejoin="round" stroke-miterlimit="10" stroke-dasharray="none" stroke-opacity="" data-original="#000000" class=""></path><path d="M0 0c5.381 5.245 13.544 9.148 25.819 9.984l23.019 2.266c4.019.395 7.397-2.982 7.001-7.001l-2.265-23.02c-.814-11.948-4.534-20.001-9.569-25.384" style="stroke-width:15;stroke-linecap:round;stroke-linejoin:round;stroke-miterlimit:10;stroke-dasharray:none;stroke-opacity:1" transform="translate(99.697 242.987)" fill="none" stroke="#000000" stroke-width="15" stroke-linecap="round" stroke-linejoin="round" stroke-miterlimit="10" stroke-dasharray="none" stroke-opacity="" data-original="#000000" class=""></path><path d="M0 0c-3.183 11.335-11.95 22.82-34.085 24.326l-23.019 2.266c-4.02.395-7.397-2.982-7.001-7.001l2.265-23.019c1.623-23.848 14.827-32.18 26.949-34.728" style="stroke-width:15;stroke-linecap:round;stroke-linejoin:round;stroke-miterlimit:10;stroke-dasharray:none;stroke-opacity:1" transform="translate(104.894 228.644)" fill="none" stroke="#000000" stroke-width="15" stroke-linecap="round" stroke-linejoin="round" stroke-miterlimit="10" stroke-dasharray="none" stroke-opacity="" data-original="#000000" class=""></path><path d="M0 0c11.745-2.87 24.072-11.44 25.637-34.43l1.737-17.654" style="stroke-width:15;stroke-linecap:round;stroke-linejoin:round;stroke-miterlimit:10;stroke-dasharray:none;stroke-opacity:1" transform="translate(127.634 204.939)" fill="none" stroke="#000000" stroke-width="15" stroke-linecap="round" stroke-linejoin="round" stroke-miterlimit="10" stroke-dasharray="none" stroke-opacity="" data-original="#000000" class=""></path><path d="M0 0c-6.165 5.166-9.184 11.961-10.547 18.447" style="stroke-width:15;stroke-linecap:round;stroke-linejoin:round;stroke-miterlimit:10;stroke-dasharray:none;stroke-opacity:1" transform="translate(101.336 151.256)" fill="none" stroke="#000000" stroke-width="15" stroke-linecap="round" stroke-linejoin="round" stroke-miterlimit="10" stroke-dasharray="none" stroke-opacity="" data-original="#000000" class=""></path><path d="M0 0c0-15.551-12.606-28.157-28.157-28.157S-56.314-15.551-56.314 0s12.606 28.158 28.157 28.158S0 15.551 0 0Z" style="stroke-width:15;stroke-linecap:round;stroke-linejoin:round;stroke-miterlimit:10;stroke-dasharray:none;stroke-opacity:1" transform="translate(126.32 197.862)" fill="none" stroke="#000000" stroke-width="15" stroke-linecap="round" stroke-linejoin="round" stroke-miterlimit="10" stroke-dasharray="none" stroke-opacity="" data-original="#000000" class=""></path><path d="M0 0c-.145 6.319 1.81 16.425 14.067 23.046l4.999 2.828a3.453 3.453 0 0 0 3.401 0l4.999-2.828C39.772 16.401 41.696 6.241 41.533-.072" style="stroke-width:15;stroke-linecap:round;stroke-linejoin:round;stroke-miterlimit:10;stroke-dasharray:none;stroke-opacity:1" transform="translate(380.193 205.148)" fill="none" stroke="#000000" stroke-width="15" stroke-linecap="round" stroke-linejoin="round" stroke-miterlimit="10" stroke-dasharray="none" stroke-opacity="" data-original="#000000" class=""></path><path d="M0 0c5.748 5.676 9.311 13.56 9.311 22.276A31.19 31.19 0 0 1 1.29 43.201l-21.09 26.01a2.824 2.824 0 0 1-4.387 0l-21.091-26.01a31.192 31.192 0 0 1-7.996-22.162c.303-7.9 3.591-15.063 8.743-20.414" style="stroke-width:15;stroke-linecap:round;stroke-linejoin:round;stroke-miterlimit:10;stroke-dasharray:none;stroke-opacity:1" transform="translate(422.954 206.221)" fill="none" stroke="#000000" stroke-width="15" stroke-linecap="round" stroke-linejoin="round" stroke-miterlimit="10" stroke-dasharray="none" stroke-opacity="" data-original="#000000" class=""></path><path d="M0 0a2.836 2.836 0 0 1-2.835 2.913h-129.141A2.835 2.835 0 0 1-134.81 0c.237-9.383 3.592-38.9 35.633-50.787h63.543C-3.593-38.9-.237-9.383 0 0Z" style="stroke-width:15;stroke-linecap:round;stroke-linejoin:round;stroke-miterlimit:10;stroke-dasharray:none;stroke-opacity:1" transform="translate(468.366 200.853)" fill="none" stroke="#000000" stroke-width="15" stroke-linecap="round" stroke-linejoin="round" stroke-miterlimit="10" stroke-dasharray="none" stroke-opacity="" data-original="#000000" class=""></path><path d="M0 0c-4.579-13.391-3.678-28.051 1.932-41.044 6.222-14.412 13.052-31.364 9.328-47.372-1.792-7.702-7.147-20.208-12.834-29.471-1.448-2.36.84-5.246 3.468-4.371 1.193.397 2.27.79 3.084 1.199 17.147 8.645 34.978 17.224 41.211 37.379 5.893 19.048-2.206 39.326-7.506 57.528-5.6 19.23 3.594 44.964 14.896 61.965 1.432 2.152-.336 4.998-2.892 4.616C27.293 36.938 8.085 23.641 0 0Z" style="stroke-width:15;stroke-linecap:round;stroke-linejoin:round;stroke-miterlimit:10;stroke-dasharray:none;stroke-opacity:1" transform="translate(384.753 438.839)" fill="none" stroke="#000000" stroke-width="15" stroke-linecap="round" stroke-linejoin="round" stroke-miterlimit="10" stroke-dasharray="none" stroke-opacity="" data-original="#000000" class=""></path><path d="M0 0h-455.711c-11.231 0-20.336 9.104-20.336 20.335v.001c0 11.231 9.105 20.335 20.336 20.335H0c11.231 0 20.336-9.104 20.336-20.335v-.001C20.336 9.104 11.231 0 0 0Z" style="stroke-width:15;stroke-linecap:round;stroke-linejoin:round;stroke-miterlimit:10;stroke-dasharray:none;stroke-opacity:1" transform="translate(483.856 109.395)" fill="none" stroke="currentColor" stroke-width="15" stroke-linecap="round" stroke-linejoin="round" stroke-miterlimit="10" stroke-dasharray="none" stroke-opacity="" data-original="#000000" class=""></path><path d="M0 0h21.342c40.942 0 74.003 33.727 72.845 74.653a49.709 49.709 0 0 1-.092 2.045h-427.19s-.054-.722-.092-2.045C-334.345 33.727-301.284 0-260.341 0h225.875" style="stroke-width:15;stroke-linecap:round;stroke-linejoin:round;stroke-miterlimit:10;stroke-dasharray:none;stroke-opacity:1" transform="translate(375.5 32.697)" fill="none" stroke="#000000" stroke-width="15" stroke-linecap="round" stroke-linejoin="round" stroke-miterlimit="10" stroke-dasharray="none" stroke-opacity="" data-original="#000000" class=""></path></g></g></svg>