<?xml version="1.0" encoding="utf-8"?>
<!-- Generator: Adobe Illustrator 27.2.0, SVG Export Plug-In . SVG Version: 6.00 Build 0)  -->
<svg version="1.1" id="Capa_1" xmlns="http://www.w3.org/2000/svg" xmlns:xlink="http://www.w3.org/1999/xlink" x="0px" y="0px"
	 viewBox="0 0 512 512" style="enable-background:new 0 0 512 512;" xml:space="preserve">
<style type="text/css">
	.st0{clip-path:url(#SVGID_00000109031133137647935150000001238300766513449347_);}
	.st1{fill:none;stroke:#02B663;stroke-width:15;stroke-linecap:round;stroke-linejoin:round;stroke-miterlimit:10;}
</style>
<g>
	<g>
		<defs>
			<rect id="SVGID_1_" y="0" width="512" height="512"/>
		</defs>
		<clipPath id="SVGID_00000019666630427478586030000012585025822974189965_">
			<use xlink:href="#SVGID_1_"  style="overflow:visible;"/>
		</clipPath>
		
			<g transform="matrix(1.33333 0 0 -1.33333 0 682.667)" style="clip-path:url(#SVGID_00000019666630427478586030000012585025822974189965_);">
			<path class="st1" d="M222.6,240.6c14.5,42.6-3,75.6-12.3,89.2c-3.2,4.6-4.2,10.4-2.7,15.8l7.8,28c1,3.4-1.6,6.8-5.2,6.8h-76.7"/>
			<path class="st1" d="M107.1,380.4h-26c-3.6,0-6.2-3.4-5.2-6.8l7.8-28c1.5-5.4,0.5-11.2-2.7-15.8"/>
			<path class="st1" d="M89.8,318.3c-0.5,0.6-1,1.2-1.5,1.8l-11,13.4c-1.9,2.3-5.5,2.3-7.4,0l-11-13.4c-0.8-0.9-1.5-1.8-2.2-2.7"/>
			<path class="st1" d="M32.7,293.4c-1-0.7-1.9-1.5-2.8-2.2l-13.4-11c-2.3-1.9-2.3-5.5,0-7.4l13.4-11c0.9-0.8,1.8-1.6,2.8-2.3"/>
			<path class="st1" d="M114.6,293.4c1-0.7,1.9-1.5,2.8-2.2l13.4-11c2.3-1.9,2.3-5.5,0-7.4l-13.4-11c-0.9-0.8-1.9-1.6-2.9-2.4"/>
			<path class="st1" d="M39.8,275.3c-3.9-4-6.9-10.2-7.5-19.4l-1.4-14.4"/>
			<path class="st1" d="M74.8,310.2c4,3.9,10.2,6.9,19.4,7.5l17.3,1.7c3,0.3,5.5-2.2,5.3-5.3l-1.7-17.3c-0.6-9-3.4-15-7.2-19"/>
			<path class="st1" d="M78.7,299.5c-2.4,8.5-9,17.1-25.6,18.2l-17.3,1.7c-3,0.3-5.5-2.2-5.3-5.3l1.7-17.3
				c1.2-17.9,11.1-24.1,20.2-26"/>
			<path class="st1" d="M95.7,281.7c8.8-2.2,18.1-8.6,19.2-25.8l1.3-13.2"/>
			<path class="st1" d="M76,241.4c-4.6,3.9-6.9,9-7.9,13.8"/>
			<path class="st1" d="M94.7,276.4c0-11.7-9.5-21.1-21.1-21.1s-21.1,9.5-21.1,21.1s9.5,21.1,21.1,21.1S94.7,288.1,94.7,276.4z"/>
			<path class="st1" d="M285.1,281.9c-0.1,4.7,1.4,12.3,10.6,17.3l3.7,2.1c0.8,0.4,1.8,0.4,2.6,0l3.7-2.1c9.2-5,10.7-12.6,10.6-17.3
				"/>
			<path class="st1" d="M317.2,282.7c4.3,4.3,7,10.2,7,16.7c0,5.8-2.1,11.4-6,15.7l-15.8,19.5c-0.7,0.9-2.1,1-3,0.3
				c-0.1-0.1-0.2-0.2-0.3-0.3l-15.8-19.5c-4.1-4.5-6.2-10.5-6-16.6c0.2-5.9,2.7-11.3,6.6-15.3"/>
			<path class="st1" d="M351.3,278.6c0,1.2-0.9,2.2-2.1,2.2c0,0,0,0-0.1,0h-96.9c-1.2,0-2.1-1-2.1-2.1c0,0,0,0,0-0.1
				c0.2-7,2.7-29.2,26.7-38.1h47.7C348.6,249.5,351.1,271.6,351.3,278.6z"/>
			<path class="st1" d="M288.6,457.1c-3.4-10-2.8-21,1.4-30.8c4.7-10.8,9.8-23.5,7-35.5c-1.3-5.8-5.4-15.2-9.6-22.1
				c-1.1-1.8,0.6-3.9,2.6-3.3c0.9,0.3,1.7,0.6,2.3,0.9c12.9,6.5,26.2,12.9,30.9,28c4.4,14.3-1.7,29.5-5.6,43.1
				c-4.2,14.4,2.7,33.7,11.2,46.5c1.1,1.6-0.3,3.7-2.2,3.5C309,484.8,294.6,474.9,288.6,457.1z"/>
			<path class="st1" d="M362.9,210H21.1c-8.4,0-15.3,6.8-15.3,15.3v0c0,8.4,6.8,15.3,15.3,15.3h341.8c8.4,0,15.3-6.8,15.3-15.3v0
				C378.1,216.9,371.3,210,362.9,210z"/>
			<path class="st1" d="M281.6,152.5h16c30.7,0,55.5,25.3,54.6,56c0,0.5,0,1-0.1,1.5H31.8c0,0,0-0.5-0.1-1.5
				c-0.9-30.7,23.9-56,54.6-56h169.4"/>
		</g>
	</g>
</g>
</svg>
