<svg xmlns="http://www.w3.org/2000/svg" version="1.1" xmlns:xlink="http://www.w3.org/1999/xlink" width="512" height="512" x="0" y="0" viewBox="0 0 512 512" style="enable-background:new 0 0 512 512" xml:space="preserve" class=""><g><path d="m327.981 17.6 33.169-8.937a33.732 33.732 0 0 1 15.273-.533l62.318 12.214a33.997 33.997 0 0 1 11.021 4.257l33.497 20.207c8.133 4.907 11.159 15.405 6.924 24.028h0c-4.28 8.715-14.487 12.492-23.241 8.599L430.634 61.29" style="stroke-width:15;stroke-linecap:round;stroke-linejoin:round;stroke-miterlimit:10;" fill="none" stroke="#000000" stroke-width="15" stroke-linecap="round" stroke-linejoin="round" stroke-miterlimit="10" data-original="#000000"></path><path d="m269.887 25.35 38.89-7.27a48.965 48.965 0 0 1 22.16.96l67.09 18.63c5.17 1.44 9.96 4.04 14.01 7.62l49.85 44.04a36.37 36.37 0 0 1 7.75 9.68l20.12 36.4c4.67 8.47 2.13 19.19-5.82 24.53l-.36.25c-8.36 5.62-19.46 3.6-25.36-4.54-10.77-14.89-25.96-35.87-25.96-35.87l-35.83-27.26c-3.67-2.8-8.13-4.31-12.71-4.31h-36.31M235.447 31.8l-21.99 4.11a230.634 230.634 0 0 1-42.51 3.95h-69.03M100.897 134.91h27.14c2.39 0 4.78.1 7.15.32 14.25 1.24 27.91 6.2 39.42 14.46a75 75 0 0 1 12.13 10.85c.54.6 1.07 1.21 1.6 1.83l31.14 36.74a70.891 70.891 0 0 0 20.11 16.43l42.43 23.24a42.2 42.2 0 0 0 14.54 4.78c12.42 1.67 36.85 4.95 50.37 6.77 5.08.68 9.59-3.33 9.62-8.66v-.4c.09-15.12-10.56-28.08-25.15-30.63l-25.05-4.38c-2.98-.52-5.72-2-7.82-4.23l-25.55-27.09a29.823 29.823 0 0 1-5.99-9.43 30.032 30.032 0 0 1-2.09-11.03c0-5.03 1.25-9.88 3.55-14.16 2.29-4.28 5.62-7.98 9.76-10.69 13.62-8.9 30.93-9.39 45.02-1.28l24.26 13.98.51 68.18c.06 7.94 3.46 15.05 8.84 19.95 4.68 4.27 10.86 6.87 17.63 6.87h.09c3.72-.01 6.79-2.95 7.05-6.73l2.37-34.92" style="stroke-width:15;stroke-linecap:round;stroke-linejoin:round;stroke-miterlimit:10;" fill="none" stroke="#000000" stroke-width="15" stroke-linecap="round" stroke-linejoin="round" stroke-miterlimit="10" data-original="#000000"></path><path d="M318.077 48.52c4.92 15.56 14.33 29.24 27.01 39.23l31.87 25.14c7.5 5.92 11.61 15.27 10.95 24.92l-1.56 22.95M356.838 319.255v27.915M356.838 230.46v49.476" style="stroke-width:15;stroke-linecap:round;stroke-linejoin:round;stroke-miterlimit:10;" fill="none" stroke="#000000" stroke-width="15" stroke-linecap="round" stroke-linejoin="round" stroke-miterlimit="10" data-original="#000000"></path><circle cx="356.838" cy="299.288" r="17.941" style="stroke-width:15;stroke-linecap:round;stroke-linejoin:round;stroke-miterlimit:10;" fill="none" stroke="#000000" stroke-width="15" stroke-linecap="round" stroke-linejoin="round" stroke-miterlimit="10" data-original="#000000"></circle><path d="M345.269 381.614a17.903 17.903 0 0 1-6.373-13.714c0-9.909 8.033-17.941 17.941-17.941 9.909 0 17.941 8.033 17.941 17.941a17.899 17.899 0 0 1-6.04 13.426M332.458 417.298v-30.413a4.462 4.462 0 0 1 4.462-4.462h39.837a4.462 4.462 0 0 1 4.462 4.462v30.583" style="stroke-width:15;stroke-linecap:round;stroke-linejoin:round;stroke-miterlimit:10;" fill="none" stroke="#000000" stroke-width="15" stroke-linecap="round" stroke-linejoin="round" stroke-miterlimit="10" data-original="#000000"></path><path d="M397.63 425.424 356.836 504.5l-40.781-79.076c25.514-13.163 56.061-13.163 81.575 0zM251.927 223.6v35.99c0 10.68-4.33 20.35-11.32 27.34-7 6.99-16.66 11.32-27.34 11.32-21.35 0-38.66-17.3-38.66-38.66v-22.28M174.607 202.31V149.46a173.947 173.947 0 0 1-3.66-109.6c1.09-3.7 2.31-7.37 3.66-11.01M139.76 28.85h0a173.833 173.833 0 0 0 0 120.614h0M58.467 125.31v24.25c0 2.82 2.28 5.1 5.1 5.1h30.45c2.82 0 5.1-2.28 5.1-5.1V25.21c0-2.82-2.28-5.11-5.1-5.11h-30.45c-2.82 0-5.1 2.29-5.1 5.11v65.1M56.641 25.207H19.907M19.907 149.562h36.734" style="stroke-width:15;stroke-linecap:round;stroke-linejoin:round;stroke-miterlimit:10;" fill="none" stroke="#000000" stroke-width="15" stroke-linecap="round" stroke-linejoin="round" stroke-miterlimit="10" data-original="#000000"></path></g></svg>