<?xml version="1.0" encoding="utf-8"?>
<!-- Generator: Adobe Illustrator 27.2.0, SVG Export Plug-In . SVG Version: 6.00 Build 0)  -->
<svg version="1.1" id="Capa_1" xmlns="http://www.w3.org/2000/svg" xmlns:xlink="http://www.w3.org/1999/xlink" x="0px" y="0px"
	 viewBox="0 0 512 512" style="enable-background:new 0 0 512 512;" xml:space="preserve">
<style type="text/css">
	.st0{fill:none;stroke:#FFFFFF;stroke-width:15;stroke-linecap:round;stroke-linejoin:round;stroke-miterlimit:10;}
</style>
<g>
	<path class="st0" d="M328,17.6l33.2-8.9c5-1.3,10.2-1.5,15.3-0.5l62.3,12.2c3.9,0.8,7.6,2.2,11,4.3l33.5,20.2
		c8.1,4.9,11.2,15.4,6.9,24l0,0c-4.3,8.7-14.5,12.5-23.2,8.6l-36.3-16.1"/>
	<path class="st0" d="M269.9,25.4l38.9-7.3c7.4-1.4,14.9-1.1,22.2,1L398,37.7c5.2,1.4,10,4,14,7.6l49.9,44c3.1,2.8,5.7,6,7.8,9.7
		l20.1,36.4c4.7,8.5,2.1,19.2-5.8,24.5l-0.4,0.2c-8.4,5.6-19.5,3.6-25.4-4.5c-10.8-14.9-26-35.9-26-35.9l-35.8-27.3
		c-3.7-2.8-8.1-4.3-12.7-4.3h-36.3 M235.4,31.8l-22,4.1c-14,2.6-28.2,4-42.5,4h-69 M100.9,134.9H128c2.4,0,4.8,0.1,7.1,0.3
		c14.2,1.2,27.9,6.2,39.4,14.5c4.4,3.2,8.5,6.8,12.1,10.9c0.5,0.6,1.1,1.2,1.6,1.8l31.1,36.7c5.6,6.7,12.5,12.2,20.1,16.4l42.4,23.2
		c4.5,2.5,9.4,4.1,14.5,4.8c12.4,1.7,36.9,4.9,50.4,6.8c5.1,0.7,9.6-3.3,9.6-8.7v-0.4c0.1-15.1-10.6-28.1-25.1-30.6l-25-4.4
		c-3-0.5-5.7-2-7.8-4.2L273,174.9c-2.6-2.7-4.6-5.9-6-9.4c-1.4-3.5-2.1-7.3-2.1-11c0-5,1.2-9.9,3.5-14.2c2.3-4.3,5.6-8,9.8-10.7
		c13.6-8.9,30.9-9.4,45-1.3l24.3,14l0.5,68.2c0.1,7.9,3.5,15.1,8.8,19.9c4.7,4.3,10.9,6.9,17.6,6.9h0.1c3.7,0,6.8-2.9,7-6.7
		l2.4-34.9"/>
	<path class="st0" d="M318.1,48.5c4.9,15.6,14.3,29.2,27,39.2l31.9,25.1c7.5,5.9,11.6,15.3,11,24.9l-1.6,22.9 M356.8,319.3v27.9
		 M356.8,230.5v49.5"/>
	<circle class="st0" cx="356.8" cy="299.3" r="17.9"/>
	<path class="st0" d="M345.3,381.6c-4-3.4-6.4-8.4-6.4-13.7c0-9.9,8-17.9,17.9-17.9c9.9,0,17.9,8,17.9,17.9c0,5.1-2.2,10-6,13.4
		 M332.5,417.3v-30.4c0-2.5,2-4.5,4.5-4.5l0,0h39.8c2.5,0,4.5,2,4.5,4.5l0,0v30.6"/>
	<path class="st0" d="M397.6,425.4l-40.8,79.1l-40.8-79.1C341.6,412.3,372.1,412.3,397.6,425.4z M251.9,223.6v36
		c0,10.7-4.3,20.4-11.3,27.3c-7,7-16.7,11.3-27.3,11.3c-21.4,0-38.7-17.3-38.7-38.7v-22.3 M174.6,202.3v-52.8
		c-13-35.2-14.3-73.6-3.7-109.6c1.1-3.7,2.3-7.4,3.7-11 M139.8,28.9L139.8,28.9c-14.4,38.9-14.4,81.7,0,120.6l0,0 M58.5,125.3v24.2
		c0,2.8,2.3,5.1,5.1,5.1H94c2.8,0,5.1-2.3,5.1-5.1V25.2c0-2.8-2.3-5.1-5.1-5.1H63.6c-2.8,0-5.1,2.3-5.1,5.1v65.1 M56.6,25.2H19.9
		 M19.9,149.6h36.7"/>
</g>
</svg>
