<svg xmlns="http://www.w3.org/2000/svg" version="1.1" xmlns:xlink="http://www.w3.org/1999/xlink" width="512" height="512" x="0" y="0" viewBox="0 0 128 128" style="enable-background:new 0 0 512 512" xml:space="preserve" class=""><g><path d="M118.74 100.76a1 1 0 0 1 0-2 1.65 1.65 0 0 0 1.64-1.65v-64a1 1 0 0 1 2 0v64a3.65 3.65 0 0 1-3.64 3.65zM121.38 28.83a1 1 0 0 1-1-1v-4.32a1 1 0 1 1 2 0v4.32a1 1 0 0 1-1 1zM66.66 42.21a1 1 0 0 1-1-1v-30.9a3.65 3.65 0 0 1 3.64-3.65h49.44a3.65 3.65 0 0 1 3.64 3.65v6.58a1 1 0 0 1-2 0v-6.58a1.65 1.65 0 0 0-1.64-1.65H69.3a1.65 1.65 0 0 0-1.64 1.65v30.9a1 1 0 0 1-1 1zM74.77 100.76H69.3a3.65 3.65 0 0 1-3.64-3.65V56a1 1 0 0 1 2 0v41.11a1.65 1.65 0 0 0 1.64 1.65h5.47a1 1 0 0 1 0 2zM111.87 100.76h-30a1 1 0 0 1 0-2h30a1 1 0 0 1 0 2z" fill="#000000" opacity="1" data-original="#000000"></path><path d="M120.5 106.1h-53a7 7 0 0 1-7-7V8.32a7 7 0 0 1 7-7h53a7 7 0 0 1 7 7V99.1a7 7 0 0 1-7 7zM67.54 3.32a5 5 0 0 0-5 5V99.1a5 5 0 0 0 5 5h53a5 5 0 0 0 5-5V8.32a5 5 0 0 0-5-5z" fill="#000000" opacity="1" data-original="#000000"></path><path d="M94 75.31a21.6 21.6 0 1 1 21.6-21.6A21.62 21.62 0 0 1 94 75.31zm0-41.2a19.6 19.6 0 1 0 19.6 19.6A19.62 19.62 0 0 0 94 34.11z" fill="#000000" opacity="1" data-original="#000000"></path><path d="M110.54 64.44h-33a1 1 0 0 1-.87-.5 1 1 0 0 1 0-1l16.48-28.62a1 1 0 0 1 1.74 0l16.52 28.62a1 1 0 0 1 0 1 1 1 0 0 1-.87.5zm-31.31-2h29.58L94 36.82z" fill="#000000" opacity="1" data-original="#000000"></path><path d="M94 61.56a13.94 13.94 0 0 1-12-6.93 1 1 0 0 1 0-1 13.85 13.85 0 0 1 24 0 1 1 0 0 1 0 1 13.94 13.94 0 0 1-12 6.93zm-10-7.43a11.85 11.85 0 0 0 19.92 0 11.85 11.85 0 0 0-19.92 0z" fill="#000000" opacity="1" data-original="#000000"></path><path d="M94 58.25a4.12 4.12 0 1 1 4.12-4.12A4.13 4.13 0 0 1 94 58.25zM94 52a2.12 2.12 0 1 0 2.12 2.12A2.12 2.12 0 0 0 94 52zM106.46 84.74a1 1 0 0 1-.92-.61L103 77.92a1 1 0 0 1 .55-1.31 1 1 0 0 1 1.3.54l2.57 6.21a1 1 0 0 1-.54 1.31 1 1 0 0 1-.42.07zM84.15 30.89a1 1 0 0 1-.92-.62l-2.57-6.21a1 1 0 1 1 1.84-.77l2.58 6.21a1 1 0 0 1-.55 1.31 1 1 0 0 1-.38.08zM81.58 84.74a1 1 0 0 1-.38-.07 1 1 0 0 1-.54-1.31l2.57-6.21a1 1 0 0 1 1.3-.54 1 1 0 0 1 .55 1.31l-2.58 6.21a1 1 0 0 1-.92.61zM103.89 30.89a1 1 0 0 1-.38-.08 1 1 0 0 1-.51-1.31l2.58-6.21a1 1 0 1 1 1.84.77l-2.57 6.21a1 1 0 0 1-.96.62zM71 77.7a1 1 0 0 1-.7-1.71l4.75-4.75a1 1 0 1 1 1.41 1.41l-4.72 4.75a1 1 0 0 1-.74.3zM112.25 36.48a1 1 0 0 1-.7-.3 1 1 0 0 1 0-1.41L116.3 30a1 1 0 0 1 1.41 1.41L113 36.18a1 1 0 0 1-.75.3zM75.79 36.48a1 1 0 0 1-.71-.3l-4.75-4.75a1 1 0 0 1 0-1.41 1 1 0 0 1 1.41 0l4.75 4.75a1 1 0 0 1 0 1.41 1 1 0 0 1-.7.3zM117 77.7a1 1 0 0 1-.71-.3l-4.75-4.75a1 1 0 1 1 1.46-1.41l4.71 4.76a1 1 0 0 1 0 1.41 1 1 0 0 1-.71.29zM94 28.92a1 1 0 0 1-1-1V21.2a1 1 0 0 1 2 0v6.72a1 1 0 0 1-1 1zM94 87.22a1 1 0 0 1-1-1V79.5a1 1 0 0 1 2 0v6.72a1 1 0 0 1-1 1zM51.17 84.05a1 1 0 0 1-.79-.39l-4.65-6.11-5.61 5.24a1 1 0 0 1-1.67-.86l1-7.61-7.68-.26a1 1 0 0 1-.57-1.8l6.11-4.64-5.2-5.62a1 1 0 0 1-.11-1.13 1 1 0 0 1 1-.53l7.61 1 .26-7.67a1 1 0 0 1 .69-.92 1 1 0 0 1 1.1.35l4.65 6.11L52.89 54a1 1 0 0 1 1.11-.16 1 1 0 0 1 .53 1l-1 7.61 7.67.25a1 1 0 0 1 .92.7 1 1 0 0 1-.35 1.1l-6.11 4.65 5.24 5.61a1 1 0 0 1 .16 1.14 1 1 0 0 1-1 .53l-7.61-1-.26 7.68a1 1 0 0 1-.69.92 1.06 1.06 0 0 1-.33.02zm-5.31-9h.08a1 1 0 0 1 .71.39l3.62 4.76.2-6a1 1 0 0 1 1.13-1l5.92.81-4.08-4.37a1 1 0 0 1 .13-1.47l4.75-3.62-6-.2a1 1 0 0 1-.73-.35 1.05 1.05 0 0 1-.23-.78l.81-5.92-4.36 4.08a1 1 0 0 1-.77.26 1 1 0 0 1-.71-.39l-3.62-4.75-.2 6a1 1 0 0 1-.35.73 1 1 0 0 1-.78.22l-5.92-.8 4.08 4.36a1 1 0 0 1-.12 1.48l-4.76 3.62 6 .2a1 1 0 0 1 .73.35 1 1 0 0 1 .23.78l-.81 5.92 4.36-4.08a1 1 0 0 1 .69-.22z" fill="#000000" opacity="1" data-original="#000000"></path><path d="M35 126.68a7 7 0 0 1-6.66-4.88L.83 35.3a7 7 0 0 1 4.55-8.79l50.46-16.07a7 7 0 0 1 6.29 1.05 1 1 0 0 1 .21 1.4 1 1 0 0 1-1.4.21 5 5 0 0 0-4.49-.76L6 28.41a5 5 0 0 0-3.24 6.28l27.52 86.51a5 5 0 0 0 2.47 2.92 4.91 4.91 0 0 0 3.81.32L87 108.37a5 5 0 0 0 3.32-3.52 1 1 0 1 1 1.94.5 7 7 0 0 1-4.65 4.93l-50.44 16.07a7.11 7.11 0 0 1-2.17.33z" fill="#000000" opacity="1" data-original="#000000"></path><path d="M36.12 120.89a3.61 3.61 0 0 1-1.67-.4 3.68 3.68 0 0 1-1.8-2.13L6.31 35.64a3.66 3.66 0 0 1 2.37-4.58l4.08-1.29a1 1 0 0 1 .6 1.9L9.29 33a1.65 1.65 0 0 0-1.07 2l26.34 82.72a1.61 1.61 0 0 0 .81 1 1.65 1.65 0 0 0 1.25.11l46.06-14.67a1 1 0 0 1 .61 1.9l-46.06 14.66a3.57 3.57 0 0 1-1.11.17zM23.07 28.53a1 1 0 0 1-.3-2l5.29-1.69a1 1 0 1 1 .61 1.91l-5.3 1.68a.79.79 0 0 1-.3.1zM61.54 26.43a1 1 0 0 1-.95-.7L58.45 19a1.65 1.65 0 0 0-2.06-1l-20.93 6.63a1 1 0 1 1-.6-1.9l20.93-6.66a3.63 3.63 0 0 1 4.57 2.36l2.13 6.69a1 1 0 0 1-.65 1.26 1 1 0 0 1-.3.05z" fill="#000000" opacity="1" data-original="#000000"></path><path d="M53.42 91.11a1 1 0 0 1-.3-2 21.72 21.72 0 0 0 7.76-4.38 1 1 0 0 1 1.32 1.5 23.9 23.9 0 0 1-8.47 4.79 1.1 1.1 0 0 1-.31.09zM42.68 91.87h-.17A23.8 23.8 0 1 1 62.2 50.5a1 1 0 0 1-1.32 1.5 21.8 21.8 0 1 0-18 37.87 1 1 0 0 1 .78 1.13 1 1 0 0 1-.98.87z" fill="#000000" opacity="1" data-original="#000000"></path><path d="M46.49 87.54a19.18 19.18 0 0 1-19.13-19.32 1 1 0 1 1 2 0 17.4 17.4 0 0 0 .81 5.35A17.13 17.13 0 0 0 60.71 78a1 1 0 0 1 1.66 1.12 19.16 19.16 0 0 1-15.88 8.46zM29.2 63.94a1 1 0 0 1-.3 0 1 1 0 0 1-.65-1.26 19.14 19.14 0 0 1 34.12-4.98 1 1 0 0 1-.27 1.38 1 1 0 0 1-1.39-.27 17.13 17.13 0 0 0-30.55 4.43 1 1 0 0 1-.96.7z" fill="#000000" opacity="1" data-original="#000000"></path></g></svg>