<?xml version="1.0" encoding="UTF-8"?>
<svg id="Capa_1" data-name="Capa 1" xmlns="http://www.w3.org/2000/svg" viewBox="0 0 508 501.44">
  <defs>
    <style>
      .cls-1 {
        fill: #02b663;
      }
    </style>
  </defs>
  <path class="cls-1" d="m472.96,397.76c-2.21,0-4-1.79-4-4s1.79-4,4-4c3.63-.02,6.56-2.97,6.56-6.6V127.16c0-2.21,1.79-4,4-4s4,1.79,4,4v256c0,8.05-6.51,14.58-14.56,14.6Zm10.56-287.72c-2.21,0-4-1.79-4-4v-17.28c0-2.21,1.79-4,4-4s4,1.79,4,4v17.28c0,2.21-1.79,4-4,4Zm-218.88,53.52c-2.21,0-4-1.79-4-4V35.96c0-8.05,6.51-14.58,14.56-14.6h197.76c8.05.02,14.56,6.55,14.56,14.6v26.32c0,2.21-1.79,4-4,4s-4-1.79-4-4v-26.32c0-3.63-2.93-6.58-6.56-6.6h-197.76c-3.63.02-6.56,2.97-6.56,6.6v123.6c0,2.21-1.79,4-4,4Zm32.44,234.2h-21.88c-8.05-.02-14.56-6.55-14.56-14.6v-164.44c0-2.21,1.79-4,4-4s4,1.79,4,4v164.44c0,3.63,2.93,6.58,6.56,6.6h21.88c2.21,0,4,1.79,4,4s-1.79,4-4,4h0Zm148.4,0h-120c-2.21,0-4-1.79-4-4s1.79-4,4-4h120c2.21,0,4,1.79,4,4s-1.79,4-4,4Z"/>
  <path class="cls-1" d="m480,419.12h-212c-15.46,0-28-12.54-28-28V28c0-15.46,12.54-28,28-28h212c15.46,0,28,12.54,28,28v363.12c0,15.46-12.54,28-28,28ZM268.16,8c-11.05,0-20,8.95-20,20v363.12c0,11.05,8.95,20,20,20h212c11.05,0,20-8.95,20-20V28c0-11.05-8.95-20-20-20h-212Z"/>
  <path class="cls-1" d="m374,295.96c-47.72,0-86.4-38.68-86.4-86.4,0-47.72,38.68-86.4,86.4-86.4s86.4,38.68,86.4,86.4h0c-.04,47.7-38.7,86.36-86.4,86.4Zm0-164.8c-43.3,0-78.4,35.1-78.4,78.4s35.1,78.4,78.4,78.4,78.4-35.1,78.4-78.4c-.04-43.28-35.12-78.36-78.4-78.4h0Z"/>
  <path class="cls-1" d="m440.16,252.48h-132c-1.43,0-2.76-.76-3.48-2-.71-1.24-.71-2.76,0-4l65.92-114.48c1.09-1.92,3.53-2.6,5.45-1.51.63.36,1.15.88,1.51,1.51l66.08,114.48c.71,1.24.71,2.76,0,4-.72,1.24-2.05,2.01-3.48,2h0Zm-125.24-8h118.32l-59.24-102.48-59.08,102.48Z"/>
  <path class="cls-1" d="m374,240.96c-19.78-.07-38.05-10.62-48-27.72-.71-1.24-.71-2.76,0-4,15.28-26.51,49.15-35.62,75.66-20.34,8.45,4.87,15.47,11.89,20.34,20.34.71,1.24.71,2.76,0,4-9.95,17.1-28.22,27.65-48,27.72Zm-40-29.72c14.18,22,43.52,28.34,65.52,14.16,5.67-3.66,10.5-8.48,14.16-14.16-14.18-22-43.52-28.34-65.52-14.16-5.67,3.66-10.5,8.48-14.16,14.16Z"/>
  <path class="cls-1" d="m374,227.72c-9.1,0-16.48-7.38-16.48-16.48s7.38-16.48,16.48-16.48c9.1,0,16.48,7.38,16.48,16.48-.02,9.09-7.39,16.46-16.48,16.48Zm0-25c-4.68,0-8.48,3.8-8.48,8.48s3.8,8.48,8.48,8.48c4.68,0,8.48-3.8,8.48-8.48s-3.8-8.48-8.48-8.48h0Zm49.84,130.96c-1.61,0-3.05-.96-3.68-2.44l-10.16-24.84c-.85-2.04.12-4.38,2.17-5.23.01,0,.02,0,.03-.01,2.03-.83,4.35.14,5.2,2.16l10.28,24.84c.85,2.04-.11,4.38-2.15,5.23,0,0,0,0-.01,0-.53.21-1.11.31-1.68.28h0Zm-89.24-215.4c-1.61,0-3.07-.99-3.68-2.48l-10.28-24.84c-1-1.97-.21-4.38,1.76-5.38,1.97-1,4.38-.21,5.38,1.76.09.17.16.36.23.54l10.32,24.84c.85,2.04-.12,4.38-2.17,5.23-.01,0-.02,0-.03.01-.48.2-1,.31-1.52.32h0Zm-10.28,215.4c-.52,0-1.04-.09-1.52-.28-2.04-.84-3.01-3.18-2.17-5.23,0,0,0,0,0-.01l10.28-24.84c.85-2.02,3.17-2.99,5.2-2.16,2.05.83,3.04,3.16,2.21,5.21,0,.01,0,.02-.01.03l-10.32,24.84c-.63,1.48-2.07,2.44-3.68,2.44h0Zm89.24-215.4c-.52,0-1.04-.12-1.52-.32-2-.89-2.91-3.23-2.04-5.24l10.32-24.84c.7-2.09,2.97-3.22,5.06-2.52,2.09.7,3.22,2.97,2.52,5.06-.06.19-.14.37-.23.54l-10.28,24.84c-.64,1.55-2.17,2.54-3.84,2.48Zm-131.56,187.24c-2.21,0-3.99-1.81-3.98-4.02,0-1.06.43-2.08,1.18-2.82l19-19c1.44-1.68,3.96-1.87,5.64-.44s1.87,3.96.44,5.64c-.13.16-.28.3-.44.44l-18.88,19c-.78.79-1.85,1.23-2.96,1.2h0Zm165-164.88c-1.06-.02-2.06-.45-2.8-1.2-1.55-1.56-1.55-4.08,0-5.64l19-19.08c1.68-1.44,4.2-1.24,5.64.44,1.28,1.5,1.28,3.71,0,5.2l-18.84,19.08c-.79.8-1.88,1.24-3,1.2Zm-145.84,0c-1.07,0-2.09-.44-2.84-1.2l-19-19c-1.55-1.56-1.55-4.08,0-5.64,1.56-1.55,4.08-1.55,5.64,0l19,19c1.55,1.56,1.55,4.08,0,5.64-.74.75-1.74,1.18-2.8,1.2h0Zm164.84,164.88c-1.07,0-2.09-.44-2.84-1.2l-19-19c-1.56-1.61-1.51-4.18.1-5.74,1.61-1.56,4.18-1.51,5.74.1h0l18.84,19.04c1.55,1.56,1.55,4.08,0,5.64-.75.75-1.78,1.17-2.84,1.16Zm-92-195.12c-2.21,0-4-1.79-4-4v-26.88c0-2.21,1.79-4,4-4s4,1.79,4,4v26.88c0,2.21-1.79,4-4,4Zm0,233.2c-2.21,0-4-1.79-4-4v-26.88c0-2.21,1.79-4,4-4s4,1.79,4,4v26.88c0,2.21-1.79,4-4,4Zm-171.32-12.68c-1.24,0-2.4-.58-3.16-1.56l-18.6-24.44-22.44,20.96c-1.62,1.5-4.15,1.39-5.65-.23-.8-.87-1.17-2.04-1.03-3.21l4-30.44-30.72-1.04c-2.21-.07-3.95-1.91-3.88-4.12.04-1.22.63-2.35,1.6-3.08l24.44-18.56-20.8-22.48c-1.07-1.27-1.25-3.07-.44-4.52.77-1.47,2.36-2.31,4-2.12l30.44,4,1.04-30.68c.05-1.69,1.16-3.16,2.76-3.68,1.62-.51,3.38.05,4.4,1.4l18.6,24.44,22.32-20.84c1.21-1.1,2.97-1.35,4.44-.64,1.47.77,2.31,2.36,2.12,4l-4,30.44,30.68,1c1.7.06,3.17,1.18,3.68,2.8.51,1.62-.05,3.38-1.4,4.4l-24.44,18.6,20.96,22.44c1.15,1.23,1.41,3.06.64,4.56-.77,1.47-2.36,2.31-4,2.12l-30.44-4-1.04,30.72c-.05,1.69-1.16,3.16-2.76,3.68-.43.1-.88.12-1.32.08h0Zm-21.24-36h.32c1.12.1,2.16.66,2.84,1.56l14.48,19.04.8-24c-.02-2.21,1.76-4.02,3.97-4.03.19,0,.37,0,.55.03l23.68,3.24-16.32-17.48c-1.49-1.63-1.38-4.16.25-5.65.09-.08.18-.16.27-.23l19-14.48-24-.8c-1.13-.03-2.19-.54-2.92-1.4-.71-.87-1.04-2-.92-3.12l3.24-23.68-17.44,16.32c-.83.77-1.95,1.14-3.08,1.04-1.12-.1-2.16-.66-2.84-1.56l-14.48-19-.8,24c-.03,1.13-.54,2.19-1.4,2.92-.87.72-2,1.04-3.12.88l-23.68-3.2,16.32,17.44c1.52,1.61,1.44,4.14-.17,5.65-.1.09-.2.18-.31.27l-19.04,14.48,24,.8c1.13.03,2.19.54,2.92,1.4.73.86,1.07,2,.92,3.12l-3.24,23.68,17.44-16.32c.78-.63,1.76-.94,2.76-.88v-.04Z"/>
  <path class="cls-1" d="m138,501.44c-12.18-.02-22.95-7.91-26.64-19.52L1.32,135.92c-4.68-14.73,3.47-30.47,18.2-35.16L221.36,36.48c8.57-2.72,17.94-1.16,25.16,4.2,1.78,1.31,2.16,3.82.84,5.59,0,0,0,0,0,0-1.31,1.78-3.82,2.16-5.59.84,0,0,0,0,0,0-5.15-3.84-11.83-4.97-17.96-3.04L22,108.36c-10.51,3.36-16.31,14.61-12.96,25.12l110.08,346.04c1.62,5.05,5.17,9.25,9.88,11.68,4.7,2.47,10.2,2.93,15.24,1.28l201.76-64.28c6.55-2.1,11.57-7.41,13.28-14.08.55-2.14,2.74-3.43,4.88-2.88s3.43,2.74,2.88,4.88c-2.39,9.34-9.42,16.79-18.6,19.72l-201.76,64.28c-2.81.89-5.74,1.33-8.68,1.32h0Z"/>
  <path class="cls-1" d="m142.48,478.28c-2.32.01-4.61-.54-6.68-1.6-3.42-1.79-6.01-4.85-7.2-8.52L23.24,137.28c-2.41-7.67,1.82-15.85,9.48-18.32l16.32-5.16c2.16-.48,4.29.88,4.77,3.03.42,1.9-.58,3.82-2.37,4.57l-16.28,5.32c-3.32,1.11-5.2,4.62-4.28,8l105.36,330.88c.48,1.73,1.65,3.18,3.24,4,1.54.8,3.34.96,5,.44l184.24-58.68c2.14-.53,4.31.77,4.85,2.92.48,1.94-.55,3.95-2.41,4.68l-184.24,58.64c-1.43.46-2.93.69-4.44.68h0ZM90.28,108.84c-2.21.33-4.27-1.19-4.6-3.4s1.19-4.27,3.4-4.6l21.16-6.76c2.11-.67,4.37.49,5.04,2.6s-.49,4.37-2.6,5.04l-21.2,6.72c-.37.21-.78.35-1.2.4h0Zm153.88-8.4c-1.74,0-3.28-1.14-3.8-2.8l-8.56-26.92c-1.22-3.33-4.86-5.1-8.24-4l-83.72,26.52c-2.04.85-4.38-.12-5.23-2.17-.85-2.04.12-4.38,2.17-5.23.21-.09.43-.16.66-.21l83.72-26.64c7.64-2.45,15.81,1.75,18.26,9.39,0,.02.01.04.02.05l8.52,26.76c.68,2.1-.48,4.36-2.58,5.03,0,0-.01,0-.02,0-.39.13-.79.19-1.2.2Z"/>
  <path class="cls-1" d="m211.68,359.16c-2.21.33-4.27-1.19-4.6-3.4-.33-2.21,1.19-4.27,3.4-4.6,11.45-3.63,22.02-9.6,31.04-17.52,1.72-1.39,4.24-1.11,5.62.61,1.3,1.62,1.15,3.96-.34,5.39-9.86,8.64-21.39,15.16-33.88,19.16-.39.18-.81.3-1.24.36h0Zm-42.96,3.04h-.68c-51.82-8.88-86.64-58.08-77.76-109.91,8.88-51.82,58.08-86.64,109.91-77.76,17.29,2.96,33.42,10.64,46.62,22.19,1.59,1.53,1.64,4.06.11,5.66-1.44,1.5-3.78,1.65-5.39.34-36.16-31.8-91.26-28.27-123.07,7.89-31.8,36.16-28.27,91.26,7.89,123.07,12.2,10.73,27.15,17.84,43.17,20.52,2.07.44,3.44,2.42,3.12,4.52-.26,1.97-1.93,3.46-3.92,3.48h0Z"/>
  <path class="cls-1" d="m183.96,344.88c-42.37-.11-76.63-34.55-76.52-76.92,0-.12,0-.24,0-.36,0-2.21,1.79-4,4-4s4,1.79,4,4c-.04,7.26,1.05,14.48,3.24,21.4,11.37,36.09,49.85,56.13,85.95,44.76,14.78-4.66,27.55-14.19,36.21-27.04,1.24-1.83,3.73-2.32,5.56-1.08,1.83,1.24,2.32,3.73,1.08,5.56-14.23,21.14-38.04,33.82-63.52,33.84v-.16Zm-69.16-94.4c-.4.06-.8.06-1.2,0-2.11-.67-3.27-2.91-2.61-5.02,0,0,0-.01,0-.02,12.67-40.34,55.64-62.77,95.98-50.1,16.52,5.19,30.8,15.83,40.5,30.18,1.21,1.83.73,4.29-1.08,5.52-1.83,1.24-4.32.76-5.55-1.07h0c-21.14-31.4-63.72-39.71-95.11-18.57-12.88,8.67-22.43,21.47-27.09,36.28-.53,1.67-2.08,2.81-3.84,2.8h0Z"/>
</svg>