<?xml version="1.0" encoding="utf-8"?>
<!-- Generator: Adobe Illustrator 27.2.0, SVG Export Plug-In . SVG Version: 6.00 Build 0)  -->
<svg version="1.1" id="Capa_1" xmlns="http://www.w3.org/2000/svg" xmlns:xlink="http://www.w3.org/1999/xlink" x="0px" y="0px"
	 viewBox="0 0 508 501.4" style="enable-background:new 0 0 508 501.4;" xml:space="preserve">
<style type="text/css">
	.st0{fill:#FFFFFF;}
</style>
<path class="st0" d="M473,397.8c-2.2,0-4-1.8-4-4s1.8-4,4-4c3.6,0,6.6-3,6.6-6.6v-256c0-2.2,1.8-4,4-4s4,1.8,4,4v256
	C487.5,391.2,481,397.7,473,397.8z M483.5,110c-2.2,0-4-1.8-4-4V88.8c0-2.2,1.8-4,4-4s4,1.8,4,4V106
	C487.5,108.3,485.7,110,483.5,110z M264.6,163.6c-2.2,0-4-1.8-4-4V36c0-8,6.5-14.6,14.6-14.6H473c8,0,14.6,6.6,14.6,14.6v26.3
	c0,2.2-1.8,4-4,4s-4-1.8-4-4V36c0-3.6-2.9-6.6-6.6-6.6H275.2c-3.6,0-6.6,3-6.6,6.6v123.6C268.6,161.8,266.8,163.6,264.6,163.6
	L264.6,163.6z M297.1,397.8h-21.9c-8,0-14.6-6.5-14.6-14.6V218.7c0-2.2,1.8-4,4-4s4,1.8,4,4v164.4c0,3.6,2.9,6.6,6.6,6.6h21.9
	c2.2,0,4,1.8,4,4S299.3,397.8,297.1,397.8L297.1,397.8z M445.5,397.8h-120c-2.2,0-4-1.8-4-4s1.8-4,4-4h120c2.2,0,4,1.8,4,4
	S447.7,397.8,445.5,397.8z"/>
<path class="st0" d="M480,419.1H268c-15.5,0-28-12.5-28-28V28c0-15.5,12.5-28,28-28h212c15.5,0,28,12.5,28,28v363.1
	C508,406.6,495.5,419.1,480,419.1z M268.2,8c-11,0-20,9-20,20v363.1c0,11,9,20,20,20h212c11,0,20-9,20-20V28c0-11-9-20-20-20H268.2z
	"/>
<path class="st0" d="M374,296c-47.7,0-86.4-38.7-86.4-86.4s38.7-86.4,86.4-86.4s86.4,38.7,86.4,86.4l0,0
	C460.4,257.3,421.7,295.9,374,296z M374,131.2c-43.3,0-78.4,35.1-78.4,78.4S330.7,288,374,288s78.4-35.1,78.4-78.4
	C452.4,166.3,417.3,131.2,374,131.2L374,131.2L374,131.2z"/>
<path class="st0" d="M440.2,252.5h-132c-1.4,0-2.8-0.8-3.5-2c-0.7-1.2-0.7-2.8,0-4L370.6,132c1.1-1.9,3.5-2.6,5.5-1.5
	c0.6,0.4,1.1,0.9,1.5,1.5l66.1,114.5c0.7,1.2,0.7,2.8,0,4C442.9,251.7,441.6,252.5,440.2,252.5L440.2,252.5L440.2,252.5z
	 M314.9,244.5h118.3L374,142L314.9,244.5L314.9,244.5z"/>
<path class="st0" d="M374,241c-19.8-0.1-38-10.6-48-27.7c-0.7-1.2-0.7-2.8,0-4c15.3-26.5,49.1-35.6,75.7-20.3
	c8.5,4.9,15.5,11.9,20.3,20.3c0.7,1.2,0.7,2.8,0,4C412,230.3,393.8,240.9,374,241z M334,211.2c14.2,22,43.5,28.3,65.5,14.2
	c5.7-3.7,10.5-8.5,14.2-14.2c-14.2-22-43.5-28.3-65.5-14.2C342.5,200.7,337.7,205.6,334,211.2z"/>
<path class="st0" d="M374,227.7c-9.1,0-16.5-7.4-16.5-16.5s7.4-16.5,16.5-16.5s16.5,7.4,16.5,16.5
	C390.5,220.3,383.1,227.7,374,227.7z M374,202.7c-4.7,0-8.5,3.8-8.5,8.5s3.8,8.5,8.5,8.5c4.7,0,8.5-3.8,8.5-8.5
	S378.7,202.7,374,202.7L374,202.7z M423.8,333.7c-1.6,0-3-1-3.7-2.4L410,306.4c-0.9-2,0.1-4.4,2.2-5.2c0,0,0,0,0,0
	c2-0.8,4.4,0.1,5.2,2.2l10.3,24.8c0.9,2-0.1,4.4-2.1,5.2c0,0,0,0,0,0C425,333.6,424.4,333.7,423.8,333.7L423.8,333.7L423.8,333.7z
	 M334.6,118.3c-1.6,0-3.1-1-3.7-2.5L320.6,91c-1-2-0.2-4.4,1.8-5.4s4.4-0.2,5.4,1.8c0.1,0.2,0.2,0.4,0.2,0.5l10.3,24.8
	c0.9,2-0.1,4.4-2.2,5.2c0,0,0,0,0,0C335.7,118.2,335.1,118.3,334.6,118.3L334.6,118.3L334.6,118.3z M324.3,333.7
	c-0.5,0-1-0.1-1.5-0.3c-2-0.8-3-3.2-2.2-5.2c0,0,0,0,0,0l10.3-24.8c0.9-2,3.2-3,5.2-2.2c2,0.8,3,3.2,2.2,5.2c0,0,0,0,0,0L328,331.2
	C327.4,332.7,325.9,333.7,324.3,333.7L324.3,333.7L324.3,333.7z M413.6,118.3c-0.5,0-1-0.1-1.5-0.3c-2-0.9-2.9-3.2-2-5.2l10.3-24.8
	c0.7-2.1,3-3.2,5.1-2.5c2.1,0.7,3.2,3,2.5,5.1c-0.1,0.2-0.1,0.4-0.2,0.5l-10.3,24.8C416.7,117.4,415.2,118.3,413.6,118.3
	L413.6,118.3z M282,305.5c-2.2,0-4-1.8-4-4c0-1.1,0.4-2.1,1.2-2.8l19-19c1.4-1.7,4-1.9,5.6-0.4s1.9,4,0.4,5.6
	c-0.1,0.2-0.3,0.3-0.4,0.4l-18.9,19C284.2,305.1,283.1,305.6,282,305.5L282,305.5L282,305.5z M447,140.6c-1.1,0-2.1-0.4-2.8-1.2
	c-1.5-1.6-1.5-4.1,0-5.6l19-19.1c1.7-1.4,4.2-1.2,5.6,0.4c1.3,1.5,1.3,3.7,0,5.2L450,139.4C449.2,140.2,448.1,140.7,447,140.6
	L447,140.6z M301.2,140.6c-1.1,0-2.1-0.4-2.8-1.2l-19-19c-1.5-1.6-1.5-4.1,0-5.6c1.6-1.6,4.1-1.6,5.6,0l19,19c1.5,1.6,1.5,4.1,0,5.6
	C303.2,140.2,302.2,140.6,301.2,140.6L301.2,140.6L301.2,140.6z M466,305.5c-1.1,0-2.1-0.4-2.8-1.2l-19-19c-1.6-1.6-1.5-4.2,0.1-5.7
	c1.6-1.6,4.2-1.5,5.7,0.1l0,0l18.8,19c1.5,1.6,1.5,4.1,0,5.6C468.1,305.1,467.1,305.5,466,305.5L466,305.5z M374,110.4
	c-2.2,0-4-1.8-4-4V79.5c0-2.2,1.8-4,4-4s4,1.8,4,4v26.9C378,108.6,376.2,110.4,374,110.4z M374,343.6c-2.2,0-4-1.8-4-4v-26.9
	c0-2.2,1.8-4,4-4s4,1.8,4,4v26.9C378,341.8,376.2,343.6,374,343.6z M202.7,330.9c-1.2,0-2.4-0.6-3.2-1.6l-18.6-24.4l-22.4,21
	c-1.6,1.5-4.1,1.4-5.6-0.2c-0.8-0.9-1.2-2-1-3.2l4-30.4l-30.7-1c-2.2-0.1-3.9-1.9-3.9-4.1c0-1.2,0.6-2.4,1.6-3.1l24.4-18.6
	l-20.8-22.5c-1.1-1.3-1.2-3.1-0.4-4.5c0.8-1.5,2.4-2.3,4-2.1l30.4,4l1-30.7c0.1-1.7,1.2-3.2,2.8-3.7c1.6-0.5,3.4,0.1,4.4,1.4
	l18.6,24.4l22.3-20.8c1.2-1.1,3-1.4,4.4-0.6c1.5,0.8,2.3,2.4,2.1,4l-4,30.4l30.7,1c1.7,0.1,3.2,1.2,3.7,2.8c0.5,1.6-0.1,3.4-1.4,4.4
	l-24.4,18.6l21,22.4c1.1,1.2,1.4,3.1,0.6,4.6c-0.8,1.5-2.4,2.3-4,2.1l-30.4-4l-1,30.7c-0.1,1.7-1.2,3.2-2.8,3.7
	C203.6,330.9,203.1,331,202.7,330.9L202.7,330.9L202.7,330.9z M181.4,294.9h0.3c1.1,0.1,2.2,0.7,2.8,1.6l14.5,19l0.8-24
	c0-2.2,1.8-4,4-4c0.2,0,0.4,0,0.6,0l23.7,3.2l-16.3-17.5c-1.5-1.6-1.4-4.2,0.2-5.6c0.1-0.1,0.2-0.2,0.3-0.2l19-14.5l-24-0.8
	c-1.1,0-2.2-0.5-2.9-1.4c-0.7-0.9-1-2-0.9-3.1l3.2-23.7l-17.4,16.3c-0.8,0.8-1.9,1.1-3.1,1c-1.1-0.1-2.2-0.7-2.8-1.6l-14.5-19
	l-0.8,24c0,1.1-0.5,2.2-1.4,2.9c-0.9,0.7-2,1-3.1,0.9l-23.7-3.2l16.3,17.4c1.5,1.6,1.4,4.1-0.2,5.6c-0.1,0.1-0.2,0.2-0.3,0.3
	l-19,14.5l24,0.8c1.1,0,2.2,0.5,2.9,1.4s1.1,2,0.9,3.1l-3.2,23.7l17.4-16.3C179.5,295.2,180.4,294.9,181.4,294.9L181.4,294.9
	L181.4,294.9z"/>
<path class="st0" d="M138,501.4c-12.2,0-22.9-7.9-26.6-19.5l-110-346c-4.7-14.7,3.5-30.5,18.2-35.2l201.8-64.3
	c8.6-2.7,17.9-1.2,25.2,4.2c1.8,1.3,2.2,3.8,0.8,5.6l0,0c-1.3,1.8-3.8,2.2-5.6,0.8l0,0c-5.1-3.8-11.8-5-18-3L22,108.4
	C11.5,111.7,5.7,123,9,133.5l110.1,346c1.6,5,5.2,9.2,9.9,11.7c4.7,2.5,10.2,2.9,15.2,1.3L346,428.2c6.5-2.1,11.6-7.4,13.3-14.1
	c0.5-2.1,2.7-3.4,4.9-2.9s3.4,2.7,2.9,4.9c-2.4,9.3-9.4,16.8-18.6,19.7l-201.8,64.3C143.9,501,140.9,501.5,138,501.4L138,501.4
	L138,501.4z"/>
<path class="st0" d="M142.5,478.3c-2.3,0-4.6-0.5-6.7-1.6c-3.4-1.8-6-4.9-7.2-8.5L23.2,137.3c-2.4-7.7,1.8-15.8,9.5-18.3l16.3-5.2
	c2.2-0.5,4.3,0.9,4.8,3c0.4,1.9-0.6,3.8-2.4,4.6l-16.3,5.3c-3.3,1.1-5.2,4.6-4.3,8l105.4,330.9c0.5,1.7,1.6,3.2,3.2,4
	c1.5,0.8,3.3,1,5,0.4l184.2-58.7c2.1-0.5,4.3,0.8,4.9,2.9c0.5,1.9-0.5,4-2.4,4.7l-184.2,58.6C145.5,478.1,144,478.3,142.5,478.3
	L142.5,478.3L142.5,478.3z M90.3,108.8c-2.2,0.3-4.3-1.2-4.6-3.4s1.2-4.3,3.4-4.6l21.2-6.8c2.1-0.7,4.4,0.5,5,2.6s-0.5,4.4-2.6,5
	l-21.2,6.7C91.1,108.6,90.7,108.8,90.3,108.8L90.3,108.8L90.3,108.8z M244.2,100.4c-1.7,0-3.3-1.1-3.8-2.8l-8.6-26.9
	c-1.2-3.3-4.9-5.1-8.2-4l-83.7,26.5c-2,0.8-4.4-0.1-5.2-2.2c-0.9-2,0.1-4.4,2.2-5.2c0.2-0.1,0.4-0.2,0.7-0.2L221.2,59
	c7.6-2.5,15.8,1.8,18.3,9.4c0,0,0,0,0,0.1l8.5,26.8c0.7,2.1-0.5,4.4-2.6,5c0,0,0,0,0,0C245,100.3,244.6,100.4,244.2,100.4
	L244.2,100.4z"/>
<path class="st0" d="M211.7,359.2c-2.2,0.3-4.3-1.2-4.6-3.4s1.2-4.3,3.4-4.6c11.4-3.6,22-9.6,31-17.5c1.7-1.4,4.2-1.1,5.6,0.6
	c1.3,1.6,1.1,4-0.3,5.4c-9.9,8.6-21.4,15.2-33.9,19.2C212.5,359,212.1,359.1,211.7,359.2L211.7,359.2L211.7,359.2z M168.7,362.2H168
	c-51.8-8.9-86.6-58.1-77.8-109.9c8.9-51.8,58.1-86.6,109.9-77.8c17.3,3,33.4,10.6,46.6,22.2c1.6,1.5,1.6,4.1,0.1,5.7
	c-1.4,1.5-3.8,1.6-5.4,0.3c-36.2-31.8-91.3-28.3-123.1,7.9c-31.8,36.2-28.3,91.3,7.9,123.1c12.2,10.7,27.2,17.8,43.2,20.5
	c2.1,0.4,3.4,2.4,3.1,4.5C172.4,360.7,170.7,362.2,168.7,362.2L168.7,362.2L168.7,362.2z"/>
<path class="st0" d="M184,344.9c-42.4-0.1-76.6-34.5-76.5-76.9c0-0.1,0-0.2,0-0.4c0-2.2,1.8-4,4-4s4,1.8,4,4
	c0,7.3,1.1,14.5,3.2,21.4c11.4,36.1,49.8,56.1,85.9,44.8c14.8-4.7,27.6-14.2,36.2-27c1.2-1.8,3.7-2.3,5.6-1.1
	c1.8,1.2,2.3,3.7,1.1,5.6c-14.2,21.1-38,33.8-63.5,33.8L184,344.9L184,344.9z M114.8,250.5c-0.4,0.1-0.8,0.1-1.2,0
	c-2.1-0.7-3.3-2.9-2.6-5c0,0,0,0,0,0c12.7-40.3,55.6-62.8,96-50.1c16.5,5.2,30.8,15.8,40.5,30.2c1.2,1.8,0.7,4.3-1.1,5.5
	c-1.8,1.2-4.3,0.8-5.6-1.1l0,0c-21.1-31.4-63.7-39.7-95.1-18.6c-12.9,8.7-22.4,21.5-27.1,36.3C118.1,249.3,116.6,250.5,114.8,250.5
	L114.8,250.5L114.8,250.5z"/>
</svg>
