<?xml version="1.0" encoding="utf-8"?>
<!-- Generator: Adobe Illustrator 27.2.0, SVG Export Plug-In . SVG Version: 6.00 Build 0)  -->
<svg version="1.1" id="Capa_1" xmlns="http://www.w3.org/2000/svg" xmlns:xlink="http://www.w3.org/1999/xlink" x="0px" y="0px"
	 viewBox="0 0 512 512" style="enable-background:new 0 0 512 512;" xml:space="preserve">
<style type="text/css">
	.st0{fill:#02B663;}
</style>
<g>
	<path class="st0" d="M436,291.5c29,0,52.6-23.6,52.6-52.6v-49.4c0-7.8-4.6-18.6-25.7-26.9V135c0-0.4,0-0.7-0.1-1.1
		c-1.1-18.2-22.9-32.2-53.1-35c16.9-4.6,29.4-19.1,29.4-36.4c0-12.6-9.7-30.1-13.9-37.1C410,0.1,401.6,0.1,398.5,0.1
		s-11.5,0-26.7,25.3c-4.2,7-13.9,24.5-13.9,37.1c0,17.2,12.4,31.8,29.4,36.4c-30.2,2.8-52,16.8-53.1,35c0,0.4-0.1,0.7-0.1,1.1v27.7
		c-21.1,8.3-25.7,19-25.7,26.9c0,0.8,0.3,44.5,0.3,49.4c0,29,23.6,52.6,52.6,52.6h6.9v96.3l-38,7.2c-11.6,2.2-20,11.9-20,23.1
		c0,7.9,4.1,15.2,11,19.6c14.5,11.1,44,18,77.2,18s62.8-6.9,77.2-18c6.9-4.4,11-11.6,11-19.5c0-11.2-8.4-20.9-20-23.1l-38-7.2v-96.3
		H436z M468.4,189.6c-0.5,1.2-2.3,2.9-5.5,4.7v-9.4C466.6,187.1,468.1,188.9,468.4,189.6z M354.1,162.6c11.4,6.1,26.8,9.7,44.3,9.7
		c17.5,0,32.9-3.6,44.3-9.7v39.1c-11.2,2.7-26,4.8-44.3,4.8s-33.2-2-44.3-4.8V162.6z M377.9,62.5c0-9.1,13.1-32,20.6-40.3
		c7.5,8.3,20.6,31.2,20.6,40.3c0,9.8-9.2,17.8-20.6,17.8S377.9,72.3,377.9,62.5z M392.4,118.6v13.7c0.1,3.3,2.8,6,6.1,5.9
		c3.2-0.1,5.9-2.7,5.9-5.9v-13.7c24.8,1.4,38.3,11.4,38.3,16.7c0,5.7-15.6,16.9-44.3,16.9c-28.7,0-44.3-11.1-44.3-16.9
		C354.1,130,367.6,120,392.4,118.6L392.4,118.6z M334,184.9v9.4c-3.2-1.8-5.1-3.5-5.5-4.7C328.8,188.9,330.3,187.1,334,184.9z
		 M328.8,238.9l-0.2-24.8c17.6,8.5,44.3,12.5,69.8,12.5c25.6,0,52.4-4,70-12.6v25c0,17.9-14.6,32.5-32.5,32.5h-74.7
		C343.4,271.4,328.8,256.9,328.8,238.9z M425,407.5l38,7.3c2.1,0.4,3.6,1.8,3.6,3.3c0,1.5-1.4,2.4-1.8,2.7c-0.4,0.2-0.7,0.5-1.1,0.8
		c-8.8,7-32.4,14-65.3,14s-56.5-7-65.3-14c-0.3-0.3-0.7-0.5-1.1-0.8c-0.4-0.3-1.8-1.2-1.8-2.7c0-1.5,1.6-2.9,3.6-3.3l38-7.2
		c9.5-1.7,16.4-10,16.4-19.6v-96.5h20.5V388C408.7,397.6,415.6,405.8,425,407.5L425,407.5z M87.6,107.6
		c15.5-5.4,26.5-19.3,26.5-35.5c0-12.6-9.7-30.1-13.9-37.1C85.1,9.7,76.7,9.7,73.5,9.7S62,9.7,46.8,35c-4.2,7-13.9,24.5-13.9,37.1
		c0,16.3,11.1,30.2,26.5,35.5C30.8,111,10.4,124.7,9,142.2c-0.1,0.7-0.2,1.4-0.2,2.1v165.6c0,10,5.9,18.8,14.6,23.4v104
		c0,17.7,14.4,32,32,32h36.3c17.7,0,32-14.4,32-32V263.6c8.7-4.5,14.6-13.2,14.6-23.2v-96.1c0-0.7-0.1-1.4-0.2-2.1
		C136.7,124.7,116.2,111,87.6,107.6z M118.2,240.4c0,3.4-3.7,6.4-8,6.4c-4.3,0-8-2.9-8-6.3l-0.1-27.4c0-11.2-9.6-20.3-21.4-20.3H67
		c-5.8,0-11.5,2.3-15.5,6.3c-3.8,3.8-5.9,8.8-5.9,14.1l0.1,96.8c0,1.9-1,3.3-1.9,4.2c-1.6,1.6-4,2.6-6.6,2.6c-4.6,0-8.4-3.1-8.4-6.7
		V171.6c11.4,6.2,27,9.9,44.7,9.9c17.7,0,33.2-3.7,44.7-9.9L118.2,240.4L118.2,240.4z M53,72.1c0-9.1,13.1-32,20.6-40.3
		C81,40.1,94.1,63,94.1,72.1c0,9.8-9.2,17.8-20.6,17.8S53,81.9,53,72.1z M67.5,127.1v17.2c0.1,3.3,2.8,6,6.1,5.9
		c3.2-0.1,5.9-2.7,5.9-5.9v-17.2c23.4,1.4,38.5,10.7,38.5,17.1c0,6.9-17.8,17.3-44.6,17.3S29,151,29,144.2
		C29,137.8,44.1,128.5,67.5,127.1z M91.7,449.2H55.4c-6.6,0-11.9-5.3-11.9-11.9V336.1c5.5-1.2,10.7-3.9,14.6-7.8
		c5-5,7.7-11.5,7.7-18.4l-0.1-96.6c0.1-0.2,0.6-0.5,1.3-0.5h13.7c0.8,0,1.2,0.3,1.3,0.5l0.1,27.3c0,12.4,9.2,22.8,21.5,25.6v171.2
		C103.6,443.9,98.3,449.2,91.7,449.2L91.7,449.2z M227.9,208.3c16.5-4.8,28.6-19.2,28.6-36.2c0-12.6-9.7-30.1-13.9-37.1
		c-15.2-25.3-23.6-25.3-26.7-25.3s-11.5,0-26.7,25.3c-4.2,7-13.9,24.5-13.9,37.1c0,17,12,31.4,28.6,36.2
		c-29.7,3-51.1,16.8-52.5,34.7c-0.1,0.7-0.2,1.3-0.2,2v144.3c0,9.1,4.2,17.3,10.9,23V480c0,17.7,14.4,32,32,32h43.7
		c17.7,0,32-14.4,32-32v-37.6c6.6-4.9,10.9-12.5,10.9-21.1V245c0-0.7-0.1-1.4-0.2-2C279,225.1,257.5,211.3,227.9,208.3L227.9,208.3z
		 M260.5,421.3c0,3.6-3.8,6.7-8.4,6.7c-2.5,0-4.9-0.9-6.6-2.6c-0.8-0.8-1.8-2.3-1.8-4.2l0.1-22.8c0-5.7-2.2-11.1-6.3-15.2
		c-4.4-4.4-10.5-6.9-16.8-6.9h-10.3c-12.7,0-23.1,9.8-23.2,21.8c0,0.8-1.2,1.9-3.1,1.9c-7.1,0-13-4.9-13-10.9V272.2
		c11.4,6.2,27,9.8,44.7,9.8c17.7,0,33.2-3.7,44.7-9.8L260.5,421.3L260.5,421.3z M195.2,172.2c0-9.1,13.1-32,20.6-40.3
		c7.5,8.3,20.6,31.2,20.6,40.3c0,9.8-9.2,17.8-20.6,17.8S195.2,182,195.2,172.2z M209.8,228v13.5c0.1,3.3,2.8,6,6.1,5.9
		c3.2-0.1,5.9-2.7,5.9-5.9V228c23.4,1.4,38.5,10.6,38.5,16.9c0,6.8-17.8,17.1-44.6,17.1s-44.6-10.3-44.6-17.1
		C171.2,238.6,186.4,229.4,209.8,228L209.8,228z M237.7,491.9h-43.7c-6.6,0-11.9-5.3-11.9-11.9v-59.8c0.7,0,1.4,0.1,2.1,0.1
		c12.7,0,23.1-9.8,23.2-21.8c0-0.8,1.2-1.9,3.1-1.9h10.3c1.5,0,2.3,0.7,2.6,1c0.3,0.3,0.5,0.6,0.5,0.9l-0.1,22.8
		c0,6.9,2.7,13.4,7.7,18.4c4.8,4.8,11.3,7.8,18.3,8.4v32C249.6,486.6,244.2,491.9,237.7,491.9L237.7,491.9z"/>
	<path class="st0" d="M191.3,315.1c-3.3,0-6,2.7-6,6v11.1c0.1,3.3,2.8,6,6.1,5.9c3.2-0.1,5.9-2.7,5.9-5.9v-11.1
		C197.3,317.8,194.6,315.1,191.3,315.1L191.3,315.1z M437.7,241.1c-0.1-3.3-2.8-6-6.1-5.9c-3.2,0.1-5.9,2.7-5.9,5.9v11.1
		c0.1,3.3,2.8,6,6.1,5.9c3.2-0.1,5.9-2.7,5.9-5.9V241.1z M69,380.2c-3.3,0-6,2.7-6,6v11.1c0.1,3.3,2.8,6,6.1,5.9
		c3.2-0.1,5.9-2.7,5.9-5.9v-11.1C75,382.9,72.3,380.2,69,380.2z M82.3,346.3c-3.3,0-6,2.7-6,6v11.1c0.1,3.3,2.8,6,6.1,5.9
		c3.2-0.1,5.9-2.7,5.9-5.9v-11.1C88.4,349,85.7,346.3,82.3,346.3z M226.2,357.8c-5.5,0-10-4.5-10-10v-14.3c0-5.5,4.5-10,10-10
		s10,4.5,10,10v14.3C236.3,353.3,231.8,357.8,226.2,357.8z M226.2,310.6c-5.5,0-10-4.5-10-10v-1c0-5.5,4.5-10,10-10s10,4.5,10,10v1
		C236.3,306.1,231.8,310.6,226.2,310.6z M293,12.1l-8.3,23.2c-0.4,1-1.1,1.8-1.9,2.2l-20.6,9.3c-2.9,1.3-2.9,6,0,7.3l20.6,9.3
		c0.9,0.4,1.6,1.2,1.9,2.2l8.3,23.2c1.2,3.3,5.3,3.3,6.5,0l8.3-23.2c0.4-1,1.1-1.8,1.9-2.2l20.6-9.3c2.9-1.3,2.9-6,0-7.3l-20.6-9.3
		c-0.9-0.4-1.6-1.2-1.9-2.2l-8.3-23.2C298.3,8.8,294.1,8.8,293,12.1z M155.5,1.8L149.4,19c-0.3,0.7-0.8,1.3-1.4,1.6l-15.3,6.9
		c-2.2,1-2.2,4.4,0,5.4l15.3,6.9c0.7,0.3,1.2,0.9,1.4,1.6l6.1,17.2c0.9,2.4,3.9,2.4,4.8,0l6.1-17.2c0.3-0.7,0.8-1.3,1.4-1.6
		l15.3-6.9c2.2-1,2.2-4.4,0-5.4l-15.3-6.9c-0.7-0.3-1.2-0.9-1.4-1.6l-6.1-17.2C159.4-0.6,156.4-0.6,155.5,1.8z M467.2,86.3
		c0,10,8.1,18,18,18c10,0,18-8.1,18-18c0-10-8.1-18-18-18C475.3,68.2,467.2,76.3,467.2,86.3z M227.8,75.9c0,4.2,3.4,7.5,7.5,7.5
		c4.2,0,7.5-3.4,7.5-7.5s-3.4-7.5-7.5-7.5C231.2,68.4,227.8,71.7,227.8,75.9z"/>
</g>
</svg>
