<svg xmlns="http://www.w3.org/2000/svg" version="1.1" xmlns:xlink="http://www.w3.org/1999/xlink" width="512" height="512" x="0" y="0" viewBox="0 0 512 512" style="enable-background:new 0 0 512 512" xml:space="preserve" class=""><g><path d="M435.992 291.517c28.986 0 52.567-23.581 52.567-52.566v-49.369c0-7.849-4.612-18.633-25.67-26.882v-27.749c0-.365-.022-.724-.06-1.078-1.107-18.154-22.908-32.176-53.071-34.995 16.935-4.572 29.357-19.14 29.357-36.371 0-12.594-9.735-30.144-13.92-37.105C409.998.128 401.619.128 398.464.128s-11.535 0-26.731 25.274c-4.185 6.961-13.92 24.511-13.92 37.105 0 17.23 12.421 31.799 29.357 36.371-30.163 2.819-51.965 16.841-53.071 34.995-.038.354-.06.713-.06 1.078v27.747c-21.07 8.254-25.67 19.045-25.67 26.884 0 .822.301 44.465.336 49.369 0 28.985 23.581 52.566 52.566 52.566h6.863v96.303l-37.977 7.244c-11.567 2.205-19.962 11.911-19.962 23.077 0 7.909 4.108 15.168 11.026 19.551 14.477 11.087 43.968 17.955 77.244 17.955s62.768-6.869 77.245-17.956c6.917-4.384 11.025-11.642 11.025-19.55 0-11.165-8.395-20.871-19.961-23.077l-37.978-7.244v-96.303zm32.434-101.925c-.454 1.218-2.307 2.901-5.537 4.736v-9.425c3.715 2.192 5.216 3.979 5.537 4.689zm-114.292-26.973c11.381 6.062 26.825 9.678 44.329 9.678 17.505 0 32.948-3.617 44.329-9.678v39.064c-11.172 2.736-25.954 4.777-44.329 4.777s-33.158-2.041-44.329-4.777zm23.775-100.112c0-9.127 13.098-31.992 20.555-40.282 7.457 8.29 20.555 31.155 20.555 40.282 0 9.8-9.221 17.773-20.555 17.773s-20.555-7.973-20.555-17.773zm14.526 56.114v13.738a6.03 6.03 0 0 0 12.058 0v-13.738c24.834 1.42 38.301 11.389 38.301 16.702 0 5.729-15.647 16.878-44.329 16.878-28.683 0-44.329-11.149-44.329-16.878-.002-5.313 13.466-15.282 38.299-16.702zm-58.396 66.283v9.425c-3.23-1.834-5.083-3.518-5.537-4.736.32-.709 1.82-2.496 5.537-4.689zm-5.239 53.977-.171-24.803c17.636 8.47 44.306 12.477 69.835 12.477 25.608 0 52.365-4.031 70-12.555v24.951c0 17.904-14.566 32.471-32.471 32.471H361.27c-17.904-.001-32.47-14.567-32.47-32.541zm96.16 168.666 38.048 7.257c2.069.395 3.631 1.83 3.631 3.337 0 1.459-1.39 2.402-1.816 2.655-.379.227-.743.477-1.089.752-8.804 6.97-32.401 14.003-65.269 14.003s-56.465-7.033-65.268-14.003a9.97 9.97 0 0 0-1.091-.753c-.426-.254-1.815-1.196-1.815-2.655 0-1.508 1.561-2.942 3.632-3.337l37.955-7.24a19.889 19.889 0 0 0 16.352-19.582v-96.465h20.471v96.465c-.002 9.631 6.876 17.867 16.259 19.566zM87.635 107.618c15.482-5.354 26.545-19.252 26.545-35.515 0-12.594-9.735-30.144-13.92-37.105C85.064 9.724 76.684 9.724 73.529 9.724s-11.535 0-26.731 25.274c-4.185 6.961-13.92 24.511-13.92 37.105 0 16.263 11.063 30.161 26.546 35.515-28.58 3.402-49.071 17.06-50.467 34.63a10.08 10.08 0 0 0-.214 2.062v165.597c0 10.047 5.902 18.817 14.611 23.414v103.972c0 17.654 14.362 32.016 32.016 32.016h36.319c17.655 0 32.017-14.362 32.017-32.016V263.629c8.699-4.501 14.61-13.213 14.61-23.201V144.31c0-.706-.074-1.393-.213-2.058-1.394-17.572-21.886-31.232-50.468-34.634zm30.584 132.811c0 3.448-3.664 6.36-8 6.36-4.327 0-7.991-2.906-8.001-6.346l-.079-27.42c-.032-11.214-9.646-20.337-21.428-20.337H66.966c-5.849 0-11.512 2.311-15.537 6.34-3.805 3.81-5.897 8.81-5.891 14.079l.127 96.794c.002 1.924-1.005 3.338-1.851 4.184-1.623 1.625-4.015 2.557-6.562 2.557-4.561 0-8.413-3.084-8.413-6.735V171.649c11.44 6.195 27.017 9.897 44.691 9.897 17.673 0 33.249-3.702 44.69-9.896v68.779zM52.974 72.103c0-9.128 13.098-31.992 20.555-40.282 7.457 8.29 20.555 31.155 20.555 40.282 0 9.8-9.221 17.773-20.555 17.773s-20.555-7.973-20.555-17.773zm14.526 54.97v17.237a6.03 6.03 0 0 0 12.058 0v-17.237c23.386 1.405 38.526 10.747 38.526 17.096 0 6.88-17.77 17.282-44.555 17.282s-44.555-10.402-44.555-17.282c0-6.349 15.141-15.691 38.526-17.096zm24.188 322.139H55.369c-6.572 0-11.92-5.348-11.92-11.921V336.083c5.537-1.166 10.653-3.865 14.582-7.799 4.993-4.999 7.737-11.537 7.728-18.411l-.127-96.632c.145-.153.575-.459 1.333-.459H80.71c.759 0 1.188.308 1.334.46l.078 27.259c.036 12.405 9.208 22.831 21.487 25.635v171.155c0 6.574-5.348 11.921-11.921 11.921zM227.851 208.333c16.542-4.799 28.586-19.197 28.586-36.166 0-12.594-9.735-30.144-13.92-37.105-15.197-25.274-23.576-25.274-26.731-25.274s-11.535 0-26.731 25.274c-4.185 6.961-13.92 24.511-13.92 37.105 0 16.97 12.044 31.367 28.586 36.166-29.657 2.966-51.103 16.776-52.517 34.663a10.118 10.118 0 0 0-.205 2.029v144.267c0 9.097 4.21 17.289 10.901 22.959v67.732c0 17.654 14.363 32.017 32.017 32.017h43.738c17.655 0 32.017-14.363 32.017-32.017v-37.597c6.631-4.914 10.901-12.53 10.901-21.071v-176.29c0-.695-.071-1.373-.205-2.029-1.413-17.887-22.86-31.697-52.517-34.663zm32.626 212.982c0 3.643-3.845 6.72-8.397 6.72-2.546 0-4.936-.932-6.556-2.558-.844-.846-1.848-2.258-1.842-4.179l.072-22.807c.018-5.669-2.229-11.055-6.327-15.165-4.356-4.368-10.493-6.874-16.84-6.874h-10.291c-12.693 0-23.086 9.795-23.167 21.836-.005.763-1.203 1.873-3.07 1.873-7.147 0-12.962-4.876-12.962-10.87v-117.09c11.441 6.156 27.018 9.834 44.691 9.834 17.672 0 33.249-3.678 44.691-9.834v149.114zm-65.246-249.148c0-9.127 13.098-31.993 20.555-40.283 7.457 8.29 20.555 31.155 20.555 40.283 0 9.8-9.221 17.773-20.555 17.773s-20.555-7.973-20.555-17.773zm14.527 55.844v13.496a6.03 6.03 0 0 0 12.058 0v-13.496c23.391 1.387 38.534 10.607 38.534 16.873 0 6.79-17.773 17.056-44.563 17.056s-44.563-10.266-44.563-17.056c-.001-6.266 15.143-15.486 38.534-16.873zm27.897 263.893h-43.738c-6.573 0-11.921-5.348-11.921-11.921v-59.792c.682.04 1.369.066 2.062.066 12.694 0 23.087-9.796 23.166-21.835.005-.764 1.204-1.874 3.071-1.874h10.291c1.485 0 2.319.676 2.608.966.308.31.464.617.463.915l-.072 22.807c-.022 6.878 2.714 13.423 7.705 18.429 4.79 4.806 11.347 7.774 18.285 8.355v31.964c.001 6.572-5.346 11.92-11.92 11.92z" fill="#000000" opacity="1" data-original="#000000" class=""></path><path d="M191.32 315.06a6.03 6.03 0 0 0-6.029 6.029v11.053a6.03 6.03 0 0 0 12.058 0v-11.053a6.03 6.03 0 0 0-6.029-6.029zM437.667 241.109a6.03 6.03 0 0 0-12.058 0v11.053a6.03 6.03 0 0 0 12.058 0zM69.008 380.206a6.03 6.03 0 0 0-6.029 6.029v11.053a6.03 6.03 0 0 0 12.058 0v-11.053a6.03 6.03 0 0 0-6.029-6.029zM82.347 346.344a6.03 6.03 0 0 0-6.029 6.029v11.053a6.03 6.03 0 0 0 12.058 0v-11.053a6.03 6.03 0 0 0-6.029-6.029zM226.232 357.833c-5.549 0-10.048-4.499-10.048-10.048V333.46c0-5.549 4.499-10.048 10.048-10.048s10.048 4.499 10.048 10.048v14.325c0 5.55-4.499 10.048-10.048 10.048zM226.232 310.608c-5.549 0-10.048-4.499-10.048-10.048v-1.005c0-5.549 4.499-10.048 10.048-10.048s10.048 4.499 10.048 10.048v1.005c0 5.55-4.499 10.048-10.048 10.048zM292.971 12.12l-8.254 23.208c-.353.994-1.053 1.781-1.936 2.179l-20.62 9.29c-2.913 1.312-2.913 5.954 0 7.266l20.62 9.29c.883.398 1.582 1.185 1.936 2.179l8.254 23.208c1.166 3.279 5.29 3.279 6.456 0l8.254-23.208c.354-.994 1.053-1.781 1.936-2.179l20.62-9.29c2.913-1.312 2.913-5.954 0-7.266l-20.62-9.29c-.883-.398-1.582-1.185-1.936-2.179l-8.254-23.208c-1.166-3.279-5.29-3.279-6.456 0zM155.502 1.824l-6.122 17.215c-.262.737-.781 1.321-1.436 1.616l-15.295 6.891c-2.161.974-2.161 4.416 0 5.39l15.295 6.891c.655.295 1.174.879 1.436 1.616l6.122 17.216c.865 2.432 3.924 2.432 4.789 0l6.123-17.216c.262-.737.781-1.321 1.436-1.616l15.295-6.891c2.161-.974 2.161-4.416 0-5.39l-15.295-6.891c-.655-.295-1.174-.879-1.436-1.616l-6.123-17.215c-.865-2.432-3.924-2.432-4.789 0zM467.212 86.263c0 9.953 8.069 18.022 18.022 18.023 9.954 0 18.022-8.069 18.022-18.022 0-9.954-8.069-18.023-18.022-18.023-9.953-.001-18.022 8.068-18.022 18.022zM227.823 75.89a7.536 7.536 0 1 0 15.072 0 7.536 7.536 0 0 0-15.072 0z" fill="#000000" opacity="1" data-original="#000000" class=""></path></g></svg>