<?xml version="1.0" encoding="utf-8"?>
<!-- Generator: Adobe Illustrator 27.2.0, SVG Export Plug-In . SVG Version: 6.00 Build 0)  -->
<svg version="1.1" id="Capa_1" xmlns="http://www.w3.org/2000/svg" xmlns:xlink="http://www.w3.org/1999/xlink" x="0px" y="0px"
	 viewBox="0 0 494 494" style="enable-background:new 0 0 494 494;" xml:space="preserve">
<style type="text/css">
	.st0{fill:#FFFFFF;}
</style>
<g>
	<g>
		<g>
			<path class="st0" d="M251.1,186.7c-7.2-7.7-18.7-6.5-21.2-4.1c4.9,8.2-2.3,14.4-8.6,12.5c-1.2-0.3-2.2-1-3.2-1.7
				c-7,26.3,33.9,37,38.2,6.8C255.5,197.6,256.9,192.8,251.1,186.7L251.1,186.7z M252.5,120.9c-3.2-4.4-6.6-8.8-9.8-13.3
				c-1.8-2.6-3.5-5.6-5.6-7.9c-1,1.2-14.6,20-15.5,21.2C237.7,118.7,239.2,119.4,252.5,120.9L252.5,120.9z M237.1,107
				c2.8,2.7,5,6.7,7.2,9.9c-5.4,0.3-9.7,0.3-14.5,0C231.9,113.5,234.5,110,237.1,107z"/>
			<path class="st0" d="M234.4,144.5c-43.6,1.4-76.6,22.8-105,54.9c28,32.1,65.9,54.7,109.2,54.5c35.2-0.2,69.2-17.2,93.7-41.9
				c3.8-3.8,8-8,11.2-12.3C316.6,163.4,273.9,143.6,234.4,144.5L234.4,144.5z M144.9,200.2c2.7-2.1,18.7-12.5,20.6-13.7l0.2,0.4
				c-5.2,9.6-6.9,14.7,0.3,28C164.5,213.9,147,202.1,144.9,200.2L144.9,200.2z M273.3,230.3c-28.1,32.4-80.4,14.4-83.9-26.4
				c-2.5-28.1,17.1-50.5,43.6-52.9l0.3,0C273.7,147.5,301.8,196.7,273.3,230.3L273.3,230.3z M317.5,208.7c-3.6,2.2-7.7,4.2-11.6,5.8
				c2.8-3.5,5.4-6.7,6-11.4c0.9-6.6-2.3-11.9-6.1-17c5.9,1.6,17.8,10.4,22.9,14.5C325,203.2,321.4,206.3,317.5,208.7z"/>
			<path class="st0" d="M233.6,160.3c-0.1,0-0.2,0-0.3,0c-37.6,3.9-46.5,48.6-20.6,69.2c18.2,14.5,44.1,10,57.1-9.3
				C287.6,193.7,265.1,157,233.6,160.3z M262.2,220.7c-12.7,14.5-33.8,15.4-47.3,3.3c-16.7-15.1-13.4-40.1,0.3-50.1
				c3-3.8,14.3-9.4,25.8-7.8c6.1,0.7,16.3,5.4,20.1,10.4l0.1,0.2C272,186.7,274.1,207.1,262.2,220.7z M222.7,276.1
				c0.1,0.1,13.3,19.4,14.1,20.4c0.9-1.2,13.1-17.5,15-20.4C235.2,278.2,227.9,276.2,222.7,276.1z M243.7,280.5
				c-1.9,3.5-4.4,6.7-6.7,9.9c-1.7-2.1-4.9-7.5-6.3-9.8c4.3,0,8.6-0.1,12.9-0.3L243.7,280.5z"/>
			<path class="st0" d="M424.4,207c5.1-3.6,6.4-10.7,2.8-15.8c-0.8-1.1-1.8-2.1-2.9-2.9c-6-4.1-11.9-8.1-18-12.1
				c2-5.4,0.3-11.2,8.8-29.8c2.4-5.4,0.3-11.7-4.9-14.6c-10.8-5.6-7.2-6-18-14.7c0.5-2.5,0-5.1-1.4-7.3
				c-14.3-24.9-34.2-42.9-56.8-60.1c-4.8-3.7-9.7-6.9-15.4-5.1c-10.6-11.1-12.1-10.6-13.9-17.7c-1.6-6.2-8-10-14.3-8.3
				c-0.9,0.2-1.7,0.5-2.5,1c-1.2,0.7-4.3,2.7-8.4,4.4c-8.3,3.5-17.7,2-22.2,3.3C247.9,12.8,245.1,5,236,5.7
				c-7,0.7-8.1,4.8-19.9,21.6c-6.1-1.8-11.7,1.3-31.1-7.2c-6.4-3.1-14,0.9-15.6,7.7c-0.9,3.8-2.2,5-6.1,8.2
				c-1.3,1.1-7.1,6.1-7.9,7.7c-3.1-0.8-6.3-0.2-8.9,1.6c-20.8,13.5-30.4,21.5-48,41.9c-10.3,13.7-17.9,21.5-15.6,29.4
				c-2.3,1.9-4.5,3.8-7.7,7.3c-1.2,1.5-2.5,2.8-4,4.1c-3.9,3.3-10.3,3.3-12.5,10.2c-2.4,7,2,9.3,4.5,18.2v0.1c3,8.5,3,16.8,5,20.2
				c-7.9,4.9-14,8.8-18.4,11.9c-3.1,2.1-4.8,5.7-4.7,9.4c0,3.7,1.9,7.2,5,9.3c6,4,12,7.8,18.3,11.6c-1.5,2.3-1.5,4-2,6.1
				c-2.3,9.6-3.8,16.5-7.7,25.2c-1.3,3.1-1.2,6.6,0.3,9.6c2.7,5.8,8.9,6.3,10.4,7c2.6,1.5,4.3,6.2,14.2,13.7c0,0,0.1,0,0.1,0.1
				c-0.5,2.7-0.1,5.4,1.2,7.8c14,24.5,35.9,45.7,53.9,57.4c9.6,6.5,13.4,7.8,16.8,6.7l1.7,2c6.9,7.7,10.8,7.5,12.5,14.1
				c1.9,7.1,10.3,10.9,16.8,6.8c8.8-5.5,12-5.2,19-6.8c3.9-0.7,6.6-0.9,9.5-2.7c0.9,1.3,4.3,7.1,12.5,18.8c1.9,2.9,5.2,4.7,8.8,4.9
				c0.1,0.1,0.2,0.1,0.5,0.1c3.4,0,6.6-1.6,8.7-4.2c3.6-4.3,10.9-16.1,12.5-19c0.7,0.3,1.4,0.6,2.2,0.7c11.8,2.6,17.9,2,25.5,7.9
				c6.3,4.6,15.2,2.1,17.7-5.6c1.2-4.5,2-5.1,4.9-7.7c4.4-3.7,10-10.5,10.5-11.4c3.1,1,6.5,0.6,9.3-1c41.3-24.8,53.7-51.5,55.7-53.9
				c3.5-5.1,6.6-9.7,5.4-14.8c1.9-1,7.5-6,10.2-8.8c1.2-1.2,3.6-4.1,4.2-4.8c2.7-1.4,9.2-1.2,12-7.8c3.5-7.6-1.7-8.6-6.1-25.5
				c-2.3-11-2.7-12.9-3.8-14.7C407.1,218.3,421.9,208.7,424.4,207L424.4,207z M404.8,141.8c-6.1,13.7-8.1,22.6-9,30.1
				c-2.4-16.3-12.8-31.1-25.8-38.7c-3.6-2.1-7.4-3.6-11.2-5.2c-6.6-12.5-8.7-12.4-13.2-20c16.5,3.4,30.1,9.3,42.7,20.6
				C395.6,135.1,392.5,135.1,404.8,141.8L404.8,141.8z M223.3,328.2c-64-5.6-114-57.8-117.5-122.1C99.3,83.6,246.6,19.9,331.6,107.5
				C414.4,192.3,349.3,339.3,223.3,328.2L223.3,328.2z M355.1,291.9c0.2,0,0.1,0,0.4,0.1c-0.3,1.2-2.1,2.8-2.9,3.8
				c-5.8,6.7-12.3,12.8-19.4,18.1l-0.2,0.1c-0.3-0.6,0.2-2.3,0.3-3c0.5-3.5,0.7-7.1,0.9-10.6C338.1,294.5,340,295.6,355.1,291.9z
				 M294.3,326c-2.5,7.2-12.3,16.8-25.2,19l-0.2-0.4c1.7-4,3.5-8.4,6-12c5.4-2.2,9.2-2.5,19.2-7C294.3,325.7,294.3,325.9,294.3,326z
				 M205.7,346.3c-1.2-0.7-17.7-5.3-26.2-20.2c6.4,2.8,13,4.9,19.6,7.1C201.2,336.4,204.6,342.7,205.7,346.3L205.7,346.3z
				 M141,314.2c-3.3-0.8-19-18.1-21.8-21.9c6.7,1,4.2,1.6,19.6,3.5C139.1,302.2,139.8,308.1,141,314.2L141,314.2z M109.6,256.1
				c-1.2-0.4-2.5-1.2-3.6-1.9c-9.3-5.7-15.6-15.9-18.1-26.4c0.4,0.2,11.7,6.7,14.2,8.4C106.8,251.2,107,249.6,109.6,256.1z
				 M88.2,167.1c0-1.3,0.3-2.5,0.7-3.7c3.5-11.8,10.5-19.1,21.2-24.9c-0.2,2.6-1.8,2.1-7.6,20.6C97.9,161.9,93,164.4,88.2,167.1
				L88.2,167.1z M118.6,103.2l0-0.2c1.2-2.6,13.8-15.3,22.4-22.1c0.7,2-1,2.3-1.9,16.5l-2.4,2.4
				C126.7,100.7,127.7,100.8,118.6,103.2L118.6,103.2z M177.7,70.4c1.9-6.4,12.4-17.6,28.6-21.5l0.2,0c0,1.3-3.4,6.1-4.2,7.7
				c-0.9,1.9-1.7,3.8-2.4,5.8c-7.4,2.3-14.7,5-21.9,8.1L177.7,70.4z M268.1,48.8c11.9,3.2,22,10.2,27.7,21.4
				c-7.5-2.5-3.9-2.9-21.9-8.1C272.2,57.5,270.3,53.1,268.1,48.8L268.1,48.8z M331.8,80c2.9,1.5,21.9,20,23.6,23.1
				c-5.6-1.3-11.5-2.8-17.2-2.9c-1.1-1.2-2.3-2.4-3.5-3.4C333.6,91.2,332.9,85.5,331.8,80z M372.1,236.1c4.9-2.8,9.9-5.2,14.7-8
				c0.5,1.7-3.9,14.1-14.2,22.7c-2.2,1.8-4.7,3.4-7.1,4.9C364.9,254.3,367.1,253.6,372.1,236.1L372.1,236.1z M371.6,158.1
				c-3.2-9.1-2.4-8.7-7.4-20.1c0.9,0.5,1.9,1.2,2.8,1.8c9.7,6.5,17.3,15.8,19.6,27.4C384.2,166,381,163.7,371.6,158.1L371.6,158.1z
				 M341.3,69.7c15.5,13.1,29.7,28.2,39.9,45.8c-3.5-2-6.9-4.1-10.3-6.4c-2.6-2.4-14.5-19.1-33.6-35c-2.6-2.1-6.7-4.6-8.8-6.8
				c-1.6-1.8-4.8-9-6.5-11.9C325,56.3,337.1,66.1,341.3,69.7L341.3,69.7z M293.6,29.5l0.2,0v0.3l0.1-0.2c3,11.8,8.6,13.8,16.2,22.2
				c8.8,9.9,15,24.5,16,37.8c-5.9-4.7-12.3-9.8-19.1-13.1c-0.4-0.2-0.6-0.2-0.8-0.7c-2.2-2.5-4.5-26.5-45.4-37.8
				C279.7,37.3,282.1,35.8,293.6,29.5L293.6,29.5z M230.1,27.1c2.3-3.4,4.5-6.8,7-10.1c1.2,1.2,25.5,37.5,27.8,43.3
				c-21.6-4.2-36.6-3.2-55-0.2C215.3,48.4,222.7,37.6,230.1,27.1L230.1,27.1z M164.3,50.6c6.8-7.7,13.6-9.4,16.2-20.3
				c12.4,5.5,19.1,6.9,32.5,7.8c-4.4,1.8-10.3,2.3-20.6,7.9c-13.3,7.2-19.9,15.1-24.2,29.6c-2.4,1.6-10.7,5.5-21.8,15.6
				C148.2,77.9,155.4,60.8,164.3,50.6z M133.9,67.9c7.2-5.8,10.6-7.9,18.8-13.3l0.2,0.2c-0.3,1.8-1.4,1.2-6.7,12.3
				c-24.1,16.6-37.6,37.3-41,40.1c-1.7,1.4-3.9,2.2-5.8,3.3c-1.9,1-3.7,2.1-5.6,3.2l-0.1-0.3C99.1,103.2,115.4,83,133.9,67.9
				L133.9,67.9z M88.1,126.9c10.7-9.5,26.5-15.3,40.3-18.8c0.3,0,0.1,0,0.5,0.2c-0.4,1.4-4,5.3-5.1,6.8c-2.9,4-5.5,8.3-8.2,12.5
				C94.6,135,83,149.6,78,170.9c-1.3-11.6-4.4-21.1-8.6-29.1C72.6,140.3,80.3,133.8,88.1,126.9L88.1,126.9z M56.3,197.7
				c5.8-4.1,33-21.2,42.7-26.1l0.3,0.1c0.5,1.5-1.4,7.5-2,17.6c-0.7,11.6-0.1,23.2,1.9,34.6C88.8,218.4,70,206.7,56.3,197.7
				L56.3,197.7z M84,265.8c-6.8-7-5.8-8.5-15.1-11.1c4.7-10.6,6.4-18.7,9-29.9c0.5,1.2,0.7,2.8,1.1,4.1
				c3.3,11.8,13.1,26.2,24.8,32.9c3.6,2,7.4,3.4,11.3,4.8c3,3.7,2.1,4.4,13.5,19.8C112.9,284.2,95.3,277.3,84,265.8L84,265.8z
				 M101.4,293.3c-2.4-3.5-4.5-7.1-6.7-10.7c1.3,0.4,10.2,5.3,11.3,6.2c2,1.7,3.7,4.4,5.3,6.5c10,12.8,22.1,24.3,30.7,30.7
				c7.1,5.3,5.2,3.6,9,10.5c0.9,1.6,1.8,3.2,2.8,4.8C145.6,338.3,119.2,318.9,101.4,293.3L101.4,293.3z M180.9,365.6
				c-2.8-10.9-8.4-11.4-15-18.8c-10.4-11.6-15.8-26.1-18.2-41.3c4,2,4.6,4.6,20.1,13.6c0.6,1.7,1.2,3.4,1.9,5
				c9.1,22.8,32.1,29.2,39.3,32.3C198.7,358.6,192.7,358.4,180.9,365.6L180.9,365.6z M237.1,378.2c-4.4-6.4-23.1-34.1-27-42.6
				c3.4,0.8,7,1.2,10.5,1.6c19.2,2.3,30-0.1,43.1-1.8l0.1,0.2C262,339.4,241.2,373.2,237.1,378.2z M306.8,347.5
				c-6.7,7.8-10.6,7.4-13.9,18.4c-9.7-7.4-17.6-7.4-30.1-10c21.4-5.2,35-10.3,43.2-35.7c6.6-3.8,13-8,19.1-12.6
				C325.8,311.2,320.3,331.6,306.8,347.5L306.8,347.5z M368.3,299.1c-12.2,17.2-27.9,29.7-45.7,40.4l-0.2-0.4
				c2.4-3.9,4.5-7.9,6.4-12.1c27.2-17.8,35-35.9,38.9-39.2c1.9-1.6,7.9-3.8,10.6-5.4c0.2,0.1,0.1,0,0.2,0.4
				C377.4,284.9,369.1,297.9,368.3,299.1L368.3,299.1z M397.9,257.4c-6.2,3.9-11.6,20.4-52.5,30c4.7-6.4,9.3-12.7,12.9-19.8
				c4.2-2.4,8.7-4.1,12.9-6.7c13.1-8.3,21.7-21.1,25-36.2c1.6,1.6,1,13.4,9.4,29.9C403,255.3,400.1,256,397.9,257.4L397.9,257.4z
				 M374.9,224.6c0.7-9.1,4.8-25.8-0.5-54.9c4.1,1.3,39.9,25.5,43.4,28C414.1,200.4,383.1,220.2,374.9,224.6L374.9,224.6z"/>
			<path class="st0" d="M358,170.9c-13.2-59.2-67.3-100.2-127.8-96.8c-109.7,5.7-157.7,139.7-77,215.8c25,23.6,54.1,32.9,88.1,32.5
				C315.3,320.2,375.6,250.5,358,170.9L358,170.9z M298.6,102.9c23.9,15.3,41.2,39,48.4,66.5c1.3,4.8,2.7,10.1,2.9,15
				c-1.5-1.2-3-3.1-4.4-4.6c-0.8-3.3-1.3-6.7-2.2-10c-11-39.5-43.2-69.8-80.2-78.6c-6.2-1.5-12.6-2.1-18.9-2.9
				c-0.8-1.3-1.7-2.6-2.6-3.8C256.2,84.5,278.3,90,298.6,102.9L298.6,102.9z M291.2,124.4c-8.9-6.6-21.6-13.2-32.5-14.6
				c-1.1-1.8-3.5-4.2-3.8-6.2c30.6,3.1,63.6,31.1,71.7,59.4C313.4,154.1,314.4,141.5,291.2,124.4L291.2,124.4z M298.6,144.2
				c-3.3-0.7-1.9-2-26.1-11.1c-1-2.4-2.7-4.5-3.7-6.9C277.7,129.5,291.8,137.7,298.6,144.2z M237.1,86.6c2.1,2,27.2,39.7,29.6,44.9
				c-3.5-0.5-7.1-1.6-10.6-2.3c-23-4.5-36.4-0.1-49.3,2.6C208.3,129.4,229.1,97.1,237.1,86.6L237.1,86.6z M155.9,156.1
				c-2.1,2.4-6.1,4.9-8.8,7.1l-0.4,0.1c5-22.9,35.6-53.5,71.9-59.8h0.5l0.1,0.3c-1,1.9-2.4,4.1-3.8,5.8
				C174.3,118.5,157.7,154,155.9,156.1L155.9,156.1z M205.5,125.8c-0.3,1.7-3.3,5.8-4.4,7.4c-8.5,2.7-17.1,6.8-25,10.8
				c-0.2,0,0,0-0.4-0.1c0.8-1.1,2.4-2.2,3.6-3c14.3-11,24.8-14.7,26-15.3L205.5,125.8z M230.9,84.7l2-0.1c-1.1,1.3-2.2,2.6-3.4,3.9
				c-2.7,0.3-5.5,0.5-8.2,0.9c-47.1,6.9-80.8,41.3-91.2,82.7c-1.1,4.7-0.8,8.7-5.1,10.8C130.3,133.2,172.5,88.9,230.9,84.7
				L230.9,84.7z M131.5,239.6c-3.1-8.1-4.5-14.3-6.4-23.4c1.2,0.8,3.8,3.8,4.4,5.2c1.4,3.2,3.9,19,16.2,37.6
				c20.1,30.4,48.4,45.1,83.7,47.3c0.9,1.4,1.8,2.8,2.7,4.2C181.8,307.2,146.7,279.2,131.5,239.6L131.5,239.6z M215.8,287
				c1.8,2.1,3.5,4.2,5,6.5c-8.3-1.4-16.3-3.3-24-6.8c-17.8-8.1-32.4-21.8-42.7-38.2c-2.6-4.1-5.1-8.4-6.8-12.9
				c1.4,0.8,2.9,2.1,4.2,3c1.6,1.2,3.5,2.3,4.9,3.7C160.5,245.9,174.1,277.1,215.8,287z M176.5,253c3.1,0.6,3.4,2.5,22.8,9.7
				c1.9,2.9,4.2,5.6,6.2,8.5C200.9,269.7,185.4,261.3,176.5,253L176.5,253z M219.2,282.3c-4.2-6.1-9.2-11.6-13.5-17.7
				c17,2.9,27.4,8.5,62.5,0.3c-5.9,8.8-25.6,36.6-31.4,43.1C234.5,305.4,236.4,307.2,219.2,282.3L219.2,282.3z M312.1,249.4
				c5.6-8.5,1.2-3.5,13.6-12.8c0,2.3-8.2,15.9-13.2,22.1c-16.8,21-40.9,32.7-59.1,34.7c0.2-1.4,3.6-5.1,4.7-6.4
				C279.9,282.1,298.7,269.8,312.1,249.4L312.1,249.4z M268.2,271.7c0.1-1.5,4.4-6.7,5.4-8.5c6.5-2.1,12.8-4.5,19-7.3l0.3,0.1
				c-0.8,1.7-13.9,12.2-24.3,15.7L268.2,271.7z M347,227.4c-14.6,51.8-57.7,82.4-105.8,83.5l-0.1-0.2c0.2-0.8,2.4-3.2,3.1-4.1
				c25.7-1.5,49.9-11.5,68.4-28.8c17.4-16.3,26.4-35.3,32.3-58c1.6-1.5,3.1-3.1,4.6-4.8l0.2,0.2C349.4,219,348,223.8,347,227.4
				L347,227.4z M242.7,264.4c-32.6,2.1-75.1-12.5-112.7-51.2c-4.1-4.2-7.7-9-11.6-13.4c3.8-5.6,10.8-13.3,15.5-18.3
				c31.2-33,77.1-55.6,121.9-48c38.1,6.4,77.3,34.7,99.5,65.9C327.1,235.6,287.7,261.6,242.7,264.4L242.7,264.4z"/>
		</g>
	</g>
	<g>
		<path class="st0" d="M283,472.8v9.4c0,3.5,1,5.3,4.2,5.3v0.5c-3.6,0-4.8-2-4.8-5.7v-9.4h-1.8v-0.5h1.8v-5.6h0.6v5.6h4.2v0.5H283z"
			/>
		<path class="st0" d="M289,466.8h1.1v1.1H289V466.8z M289.2,472.8h0.6v15.1h-0.6V472.8z"/>
		<path class="st0" d="M291.9,480.5c0-4.6,2.3-8.2,8.1-8.2c3.4,0,7.3,1.3,7.3,4.7c0,3.8-4.4,3.6-7.2,3c-3.2-0.7-7.7-1.9-7.7,0.6
			c0,4.6,3.1,7.1,7.4,7.1c4.1,0,6.9-2.2,6.9-6h0.6c0,4.3-3.6,6.5-7.5,6.5C294.9,488.3,291.9,485.2,291.9,480.5z M300,472.8
			c-4.5,0-7.2,2.1-7.5,6.9h0.1c1.3-1.6,4.8-0.5,7.7,0c1.7,0.3,6.5,1.1,6.5-2.6C306.7,474.1,303.4,472.8,300,472.8z"/>
		<path class="st0" d="M309.7,477L309.7,477c1-3.2,3.9-4.6,6.9-4.6c4.4,0,6.6,3,6.6,8v7.6h-0.6v-7.6c0-4.8-1.9-7.5-6-7.5
			c-3.6,0-6.9,2.1-6.9,6.1v9h-0.6v-15.1h0.6V477z"/>
		<path class="st0" d="M333.3,488.4c-4.5,0-8.3-2.7-8.3-8.1c0-5.5,4-8,8.3-8c4.5,0,6.8,2.7,7.3,4.6h0.1v-10.2h0.6v21.1h-0.6v-4.2
			h-0.1C340.1,485.6,337.8,488.4,333.3,488.4z M333.3,487.9c3.7,0,7.4-2,7.4-6.2v-2.9c0-4.2-3.8-6-7.4-6c-4.4,0-7.6,2.8-7.6,7.5
			C325.7,484.8,328.6,487.9,333.3,487.9z"/>
		<path class="st0" d="M356.9,483.5L356.9,483.5c-0.1,0.5-1.3,4.8-7.4,4.8c-2.8,0-6.5-1.3-6.5-4.9c0-6.8,13.8-2.8,13.8-5.6
			c0-4.2-2.8-5-6.2-5c-4.5,0-7,1.7-7,5.6h-0.6c0-4.3,3.2-6.1,7.6-6.1c4.3,0,6.9,1.3,6.9,5.5v10.1h-0.6V483.5z M349.6,487.9
			c3.9,0,7.4-2.3,7.4-6v-3.4h-0.1c-1.3,2.4-13.2-0.9-13.2,5C343.7,485.8,345.8,487.9,349.6,487.9z"/>
		<path class="st0" d="M365.4,480.5c0-4.6,2.3-8.2,8.1-8.2c3.3,0,7.3,1.3,7.3,4.7c0,3.8-4.4,3.6-7.2,3c-3.2-0.7-7.7-1.9-7.7,0.6
			c0,4.6,3.1,7.1,7.4,7.1c4.1,0,6.9-2.2,6.9-6h0.6c0,4.3-3.6,6.5-7.5,6.5C368.4,488.3,365.4,485.2,365.4,480.5z M373.5,472.8
			c-4.5,0-7.2,2.1-7.5,6.9h0.1c1.3-1.6,4.8-0.5,7.7,0c1.7,0.3,6.5,1.1,6.5-2.6C380.2,474.1,376.9,472.8,373.5,472.8z"/>
		<path class="st0" d="M389.4,472.8c-3.6,0-6.2,1.1-6.2,3.4c0,5.4,13.8,0.5,13.8,7.3c0,2.9-2.6,4.9-6.5,4.9c-4,0-8-2.2-8-6.5h0.6
			c0,3.9,3.5,6,7.4,6c3.7,0,5.9-2,5.9-4.5c0-6.3-13.8-1.4-13.8-7.3c0-2.7,3.1-3.8,6.8-3.8c6.5,0,7.6,3.5,7.7,6.1h-0.6
			C396.5,475.9,395.5,472.8,389.4,472.8z"/>
		<path class="st0" d="M415.5,480.3c0,5.2-4.1,8-8.3,8s-8.3-2.9-8.3-8c0-5,4.1-8,8.3-8C411.4,472.3,415.5,475.3,415.5,480.3z
			 M407.2,487.9c4,0,7.7-2.7,7.7-7.6c0-4.7-3.7-7.5-7.7-7.5c-4,0-7.7,2.8-7.7,7.5C399.5,485.1,403.2,487.9,407.2,487.9z"/>
		<path class="st0" d="M417.9,472.8v9.4c0,3.5,1,5.3,4.2,5.3v0.5c-3.6,0-4.8-2-4.8-5.7v-9.4h-1.8v-0.5h1.8v-5.6h0.6v5.6h4.2v0.5
			H417.9z"/>
		<path class="st0" d="M423.9,480.5c0-4.6,2.3-8.2,8.1-8.2c3.4,0,7.3,1.3,7.3,4.7c0,3.8-4.4,3.6-7.2,3c-3.2-0.7-7.7-1.9-7.7,0.6
			c0,4.6,3.1,7.1,7.4,7.1c4.1,0,6.9-2.2,6.9-6h0.6c0,4.3-3.6,6.5-7.5,6.5C426.9,488.3,423.9,485.2,423.9,480.5z M432,472.8
			c-4.5,0-7.2,2.1-7.5,6.9h0.1c1.3-1.6,4.8-0.5,7.7,0c1.7,0.3,6.5,1.1,6.5-2.6C438.7,474.1,435.4,472.8,432,472.8z M427.4,470
			c4,0,7.3-0.8,9.2-2.9l-0.3-0.3c-1.8,2-4.6,2.9-8.8,2.9V470z"/>
		<path class="st0" d="M441.7,476.7L441.7,476.7c0.9-3.2,3.3-4.5,6.1-4.5v0.6c-3.6,0-6.1,2.1-6.1,6.1v9h-0.6v-15.1h0.6V476.7z"/>
		<path class="st0" d="M448.7,466.8h1.1v1.1h-1.1V466.8z M449,472.8h0.6v15.1H449V472.8z"/>
		<path class="st0" d="M459.9,472.8c-4.6,0-7.7,3.4-7.7,7.5c0,4,2.9,7.6,7.7,7.6c4.5,0,7.3-2.7,7.3-6h0.6c0,4-3.5,6.5-7.9,6.5
			c-4.6,0-8.3-3.3-8.3-8c0-4.5,3.5-8,8.3-8c4.4,0,7.9,2.6,7.9,6.5h-0.6C467.2,475.2,464,472.8,459.9,472.8z"/>
		<path class="st0" d="M483.5,483.5L483.5,483.5c-0.1,0.5-1.3,4.8-7.4,4.8c-2.8,0-6.5-1.3-6.5-4.9c0-6.8,13.8-2.8,13.8-5.6
			c0-4.2-2.8-5-6.2-5c-4.5,0-7,1.7-7,5.6h-0.6c0-4.3,3.2-6.1,7.6-6.1c4.3,0,6.9,1.3,6.9,5.5v10.1h-0.6V483.5z M476.1,487.9
			c3.9,0,7.4-2.3,7.4-6v-3.4h-0.1c-1.3,2.4-13.2-0.9-13.2,5C470.2,485.8,472.3,487.9,476.1,487.9z"/>
	</g>
	<g>
		<path class="st0" d="M22.7,418.9c-1.6,1.5-2.9,3.3-3.9,5.5c-0.9,2.1-1.4,4.4-1.4,6.8c0,2.5,0.5,4.8,1.4,7c1,2.2,2.3,4.1,3.9,5.7
			c1.6,1.6,3.6,3,5.8,3.9c2.2,1,4.6,1.4,7.1,1.4c2.5,0,4.9-0.5,7.1-1.4c2.2-1,4.1-2.3,5.8-3.9c1.6-1.6,3-3.6,3.9-5.7
			c1-2.2,1.4-4.5,1.4-7c0-2.7-0.6-5-1.7-6.9c-1.1-1.9-2.5-3.5-4.2-4.7c-1.7-1.3-3.6-2.2-5.7-3c-2.1-0.7-4.1-1.3-6-1.6
			c-4.9-0.9-8.7-2.6-11.2-5.3c-2.5-2.7-3.7-6-3.6-9.8c0-1.8,0.3-3.5,1-5c0.7-1.6,1.6-3,2.8-4.1c1.2-1.2,2.7-2.1,4.3-2.8
			c1.7-0.7,3.5-1,5.5-1c2,0,3.8,0.3,5.4,0.9c1.6,0.6,3,1.4,4.1,2.4c1.1,1,2.1,2.2,2.8,3.5c0.7,1.3,1.2,2.7,1.5,4.2l-6.9,2.7
			c-0.1-1.7-0.8-3-2.1-4.1c-1.3-1.1-2.7-1.6-4.2-1.6c-1.6,0-3.1,0.6-4.2,1.7c-1.2,1.1-1.7,2.5-1.7,4c0.1,3.4,2.9,5.6,8.2,6.6
			c3.4,0.5,6.7,1.4,9.7,2.6c3,1.2,5.7,2.8,8,4.8c2.3,2,4.1,4.4,5.5,7.1c1.3,2.8,2,6,2,9.7c0,3.9-0.7,7.5-2.1,10.8
			c-1.4,3.3-3.4,6.2-5.9,8.7c-2.5,2.5-5.4,4.4-8.8,5.8c-3.4,1.4-7,2.1-10.8,2.1c-3.9,0-7.5-0.7-10.8-2.1c-3.4-1.4-6.3-3.4-8.8-5.9
			c-2.5-2.5-4.5-5.4-5.9-8.7C8.7,438.6,8,435,8,431.2c0-3.8,0.8-7.3,2.3-10.5c1.5-3.2,3.5-6,6-8.3L22.7,418.9z"/>
		<path class="st0" d="M98.5,450.7c-1.9,2.8-4.1,4.9-6.7,6.2c-2.6,1.3-5.4,2-8.4,2c-2.4,0-4.6-0.5-6.7-1.4c-2.1-0.9-3.9-2.1-5.4-3.7
			c-1.5-1.5-2.8-3.3-3.7-5.4c-0.9-2.1-1.4-4.3-1.4-6.7c0-2.4,0.5-4.7,1.4-6.8c0.9-2.1,2.1-3.9,3.7-5.5c1.5-1.6,3.3-2.8,5.4-3.7
			c2.1-0.9,4.3-1.4,6.7-1.4c3,0,5.9,0.7,8.5,2.1c2.7,1.4,5,3.6,6.9,6.5l-20.2,18.8c0.7,0.5,1.7,0.9,2.8,1.1c1.1,0.2,2.2,0.2,3.3,0.1
			c1.9-0.2,3.8-0.9,5.5-2c1.7-1.1,3.1-2.5,4.3-4.1L98.5,450.7z M71.8,440.9c-0.1,1.8,0.1,3.4,0.7,4.9c0.6,1.5,1.5,2.6,2.6,3.5
			L91,433.7c-0.9-1.1-2.1-1.9-3.6-2.6c-1.5-0.7-3.1-1-4.9-0.9c-1.4,0.1-2.8,0.4-4,1c-1.3,0.6-2.4,1.3-3.3,2.3c-1,1-1.7,2.1-2.3,3.3
			C72.3,438,72,439.4,71.8,440.9z"/>
		<path class="st0" d="M128.8,436.7c-1.3-1.9-2.7-3.4-4.4-4.5c-1.7-1.1-3.7-1.7-6-1.7c-1.5,0-3,0.3-4.4,0.9
			c-1.4,0.6-2.6,1.4-3.6,2.4c-1,1-1.8,2.2-2.4,3.6c-0.6,1.4-0.9,2.8-0.9,4.4c0,1.5,0.3,3,0.9,4.4c0.6,1.4,1.4,2.6,2.4,3.6
			c1,1,2.2,1.8,3.6,2.4c1.4,0.6,2.9,0.9,4.4,0.9c2.1,0,4.1-0.5,5.9-1.6c1.8-1.1,3.3-2.6,4.5-4.6l4.2,4.1c-1.6,2.7-3.7,4.7-6.3,6.1
			c-2.6,1.3-5.4,2-8.3,2c-2.4,0-4.7-0.5-6.8-1.4c-2.1-0.9-3.9-2.1-5.4-3.7c-1.5-1.5-2.7-3.3-3.6-5.4c-0.9-2.1-1.3-4.3-1.3-6.7
			c0-2.4,0.4-4.7,1.3-6.8c0.9-2.1,2.1-3.9,3.6-5.4c1.5-1.5,3.3-2.7,5.4-3.6c2.1-0.9,4.3-1.3,6.8-1.3c2.9,0,5.7,0.7,8.2,1.9
			c2.5,1.3,4.7,3.3,6.4,5.9L128.8,436.7z"/>
		<path class="st0" d="M142.1,424.6v5.8c0.9-1.6,2.2-3,3.8-4.2c1.6-1.2,3.5-1.8,5.7-1.8v5.9c-1.2,0-2.4,0.2-3.5,0.7
			c-1.1,0.5-2.1,1.1-3,1.8c-0.9,0.8-1.6,1.7-2.2,2.7c-0.6,1-0.9,2.1-0.9,3.3v19.8h-5.8v-34.1H142.1z"/>
		<path class="st0" d="M185.8,450.7c-1.9,2.8-4.1,4.9-6.7,6.2c-2.6,1.3-5.4,2-8.4,2c-2.4,0-4.6-0.5-6.7-1.4
			c-2.1-0.9-3.9-2.1-5.4-3.7c-1.5-1.5-2.8-3.3-3.7-5.4c-0.9-2.1-1.4-4.3-1.4-6.7c0-2.4,0.5-4.7,1.4-6.8c0.9-2.1,2.1-3.9,3.7-5.5
			c1.5-1.6,3.3-2.8,5.4-3.7c2.1-0.9,4.3-1.4,6.7-1.4c3,0,5.9,0.7,8.5,2.1c2.7,1.4,5,3.6,6.9,6.5L166,451.9c0.7,0.5,1.7,0.9,2.8,1.1
			c1.1,0.2,2.2,0.2,3.3,0.1c1.9-0.2,3.8-0.9,5.5-2c1.7-1.1,3.1-2.5,4.3-4.1L185.8,450.7z M159.1,440.9c-0.1,1.8,0.1,3.4,0.7,4.9
			c0.6,1.5,1.5,2.6,2.6,3.5l15.9-15.5c-0.9-1.1-2.1-1.9-3.6-2.6c-1.5-0.7-3.1-1-4.9-0.9c-1.4,0.1-2.8,0.4-4,1
			c-1.3,0.6-2.4,1.3-3.3,2.3c-1,1-1.7,2.1-2.3,3.3C159.6,438,159.3,439.4,159.1,440.9z"/>
		<path class="st0" d="M187.2,424.5h3.2v-10.6h5.9v10.6h6.2v4.9h-6.2v18.9c0,1.6,0.5,2.9,1.5,3.9c1,1,2.3,1.5,4,1.5v5.2
			c-3.8,0-6.6-0.9-8.5-2.7c-1.9-1.8-2.9-4.5-2.9-7.9v-18.9h-3.2V424.5z"/>
		<path class="st0" d="M237,441.8c0,2.4-0.5,4.6-1.4,6.7c-0.9,2.1-2.1,3.9-3.7,5.4c-1.5,1.5-3.3,2.8-5.4,3.7
			c-2.1,0.9-4.3,1.4-6.7,1.4c-2.4,0-4.7-0.5-6.8-1.4c-2.1-0.9-3.9-2.1-5.4-3.7c-1.5-1.5-2.7-3.3-3.6-5.4c-0.9-2.1-1.3-4.3-1.3-6.7
			c0-2.4,0.4-4.7,1.3-6.8c0.9-2.1,2.1-3.9,3.6-5.5c1.5-1.6,3.3-2.8,5.4-3.7c2.1-0.9,4.3-1.4,6.8-1.4c2.4,0,4.6,0.5,6.7,1.4
			c2.1,0.9,3.9,2.1,5.4,3.7c1.5,1.6,2.8,3.4,3.7,5.5C236.6,437.1,237,439.3,237,441.8z M231.1,441.8c0-1.5-0.3-3-0.9-4.4
			c-0.6-1.4-1.4-2.6-2.4-3.6c-1-1-2.2-1.8-3.6-2.4c-1.4-0.6-2.8-0.9-4.4-0.9s-3,0.3-4.4,0.9c-1.4,0.6-2.6,1.4-3.6,2.4
			c-1,1-1.8,2.2-2.4,3.6c-0.6,1.4-0.9,2.9-0.9,4.4c0,1.5,0.3,3,0.9,4.4c0.6,1.4,1.4,2.6,2.4,3.6c1,1,2.2,1.8,3.6,2.4
			c1.4,0.6,2.8,0.9,4.4,0.9s3-0.3,4.4-0.9c1.4-0.6,2.6-1.4,3.6-2.4c1-1,1.8-2.2,2.4-3.6C230.8,444.7,231.1,443.3,231.1,441.8z"/>
		<path class="st0" d="M255.6,434.4c0-1.4-0.4-2.7-1.3-3.7c-0.9-1-1.9-1.5-3.2-1.5c-1.2,0-2.3,0.5-3.1,1.5c-0.9,1-1.3,2.2-1.3,3.5
			c0,1.3,0.5,2.3,1.6,3.1c1.1,0.8,2.7,1.5,5,2.2c2.6,0.7,4.5,1.8,5.8,3.2c1.3,1.4,1.9,3.4,1.9,6.1c0,1.4-0.3,2.7-0.8,3.9
			c-0.5,1.2-1.2,2.3-2.1,3.2c-0.9,0.9-2,1.6-3.2,2.2c-1.2,0.5-2.5,0.8-4,0.8c-1.4,0-2.7-0.2-3.9-0.7c-1.2-0.5-2.3-1.2-3.2-2
			c-0.9-0.9-1.6-1.9-2.2-3.1c-0.5-1.2-0.8-2.5-0.8-4h5.8c0,1.4,0.5,2.6,1.4,3.5c0.9,0.9,2,1.4,3.2,1.4c1.2,0,2.3-0.5,3.1-1.4
			c0.9-0.9,1.3-2.1,1.3-3.4c0-0.9-0.2-1.6-0.5-2.2c-0.3-0.6-0.8-1-1.4-1.4c-0.6-0.4-1.3-0.7-2.1-1c-0.8-0.3-1.7-0.6-2.7-0.8
			c-2.3-0.7-4.3-1.7-5.8-3.2c-1.6-1.5-2.3-3.5-2.3-6.1c0-1.4,0.2-2.8,0.7-4c0.5-1.2,1.2-2.3,2.1-3.2c0.9-0.9,2-1.6,3.2-2.1
			c1.2-0.5,2.6-0.8,4-0.8c3,0,5.4,0.9,7.3,2.7c1.8,1.8,2.8,4.2,2.8,7.3H255.6z"/>
		<path class="st0" d="M326.4,435.5c0,3.2-0.6,6.3-1.8,9.1c-1.2,2.8-2.9,5.3-5,7.4c-2.1,2.1-4.6,3.7-7.5,4.9
			c-2.9,1.2-5.9,1.8-9.2,1.8c-3.2,0-6.3-0.6-9.2-1.8c-2.9-1.2-5.3-2.9-7.5-4.9c-2.1-2.1-3.8-4.5-5-7.4c-1.2-2.8-1.8-5.9-1.8-9.1
			c0-3.2,0.6-6.3,1.8-9.2c1.2-2.9,2.9-5.3,5-7.5c2.1-2.1,4.6-3.8,7.5-5c2.9-1.2,5.9-1.8,9.2-1.8c3.2,0,6.3,0.6,9.2,1.8
			c2.9,1.2,5.3,2.9,7.5,5c2.1,2.1,3.8,4.6,5,7.5C325.8,429.2,326.4,432.2,326.4,435.5z M320.3,435.5c0-2.4-0.5-4.6-1.4-6.7
			c-0.9-2.1-2.2-3.9-3.7-5.5c-1.6-1.6-3.4-2.8-5.5-3.7c-2.1-0.9-4.4-1.4-6.7-1.4s-4.6,0.5-6.7,1.4c-2.1,0.9-3.9,2.1-5.5,3.7
			c-1.6,1.6-2.8,3.4-3.7,5.5s-1.4,4.3-1.4,6.7c0,2.4,0.5,4.6,1.4,6.7s2.1,3.9,3.7,5.5c1.6,1.6,3.4,2.8,5.5,3.7
			c2.1,0.9,4.4,1.3,6.7,1.3s4.6-0.4,6.7-1.3c2.1-0.9,3.9-2.1,5.5-3.7c1.6-1.6,2.8-3.4,3.7-5.5C319.8,440.1,320.3,437.8,320.3,435.5z
			"/>
		<path class="st0" d="M357.2,436.7c-1.3-1.9-2.7-3.4-4.4-4.5c-1.7-1.1-3.7-1.7-6-1.7c-1.5,0-3,0.3-4.4,0.9
			c-1.4,0.6-2.6,1.4-3.6,2.4c-1,1-1.8,2.2-2.4,3.6c-0.6,1.4-0.9,2.8-0.9,4.4c0,1.5,0.3,3,0.9,4.4c0.6,1.4,1.4,2.6,2.4,3.6
			c1,1,2.2,1.8,3.6,2.4c1.4,0.6,2.9,0.9,4.4,0.9c2.1,0,4.1-0.5,5.9-1.6c1.8-1.1,3.3-2.6,4.5-4.6l4.2,4.1c-1.6,2.7-3.7,4.7-6.3,6.1
			c-2.6,1.3-5.4,2-8.3,2c-2.4,0-4.7-0.5-6.8-1.4c-2.1-0.9-3.9-2.1-5.4-3.7c-1.5-1.5-2.7-3.3-3.6-5.4c-0.9-2.1-1.3-4.3-1.3-6.7
			c0-2.4,0.4-4.7,1.3-6.8c0.9-2.1,2.1-3.9,3.6-5.4c1.5-1.5,3.3-2.7,5.4-3.6c2.1-0.9,4.3-1.3,6.8-1.3c2.9,0,5.7,0.7,8.2,1.9
			c2.5,1.3,4.7,3.3,6.4,5.9L357.2,436.7z"/>
		<path class="st0" d="M369.2,424.6v16.9c0,1.8,0.3,3.4,0.8,4.9c0.5,1.5,1.3,2.8,2.3,3.9c1,1.1,2.2,1.9,3.6,2.5
			c1.4,0.6,2.9,0.9,4.6,0.9c1.5,0,3-0.3,4.4-1c1.4-0.6,2.6-1.5,3.6-2.7c1-1.1,1.8-2.5,2.4-4.1c0.6-1.6,0.9-3.4,0.9-5.3v-15.9h5.8
			v34.1h-5.8v-8.1c-1.3,2.5-3,4.5-5.2,6c-2.2,1.5-4.7,2.3-7.7,2.3c-2.2,0-4.2-0.4-6.1-1.2c-1.9-0.8-3.5-1.9-4.9-3.3
			c-1.4-1.4-2.5-3.1-3.3-5.1c-0.8-2-1.2-4.1-1.2-6.5v-18.1H369.2z"/>
		<path class="st0" d="M409,413.9v44.8h-5.8v-44.8H409z"/>
		<path class="st0" d="M412.2,424.5h3.2v-10.6h5.9v10.6h6.2v4.9h-6.2v18.9c0,1.6,0.5,2.9,1.5,3.9c1,1,2.3,1.5,4,1.5v5.2
			c-3.8,0-6.6-0.9-8.5-2.7c-1.9-1.8-2.9-4.5-2.9-7.9v-18.9h-3.2V424.5z"/>
		<path class="st0" d="M462.1,441.8c0,2.4-0.5,4.6-1.4,6.7c-0.9,2.1-2.1,3.9-3.7,5.4c-1.5,1.5-3.3,2.8-5.4,3.7
			c-2.1,0.9-4.3,1.4-6.7,1.4c-2.4,0-4.7-0.5-6.8-1.4c-2.1-0.9-3.9-2.1-5.4-3.7c-1.5-1.5-2.7-3.3-3.6-5.4c-0.9-2.1-1.3-4.3-1.3-6.7
			c0-2.4,0.4-4.7,1.3-6.8c0.9-2.1,2.1-3.9,3.6-5.5c1.5-1.6,3.3-2.8,5.4-3.7c2.1-0.9,4.3-1.4,6.8-1.4c2.4,0,4.6,0.5,6.7,1.4
			c2.1,0.9,3.9,2.1,5.4,3.7c1.5,1.6,2.8,3.4,3.7,5.5C461.6,437.1,462.1,439.3,462.1,441.8z M456.2,441.8c0-1.5-0.3-3-0.9-4.4
			c-0.6-1.4-1.4-2.6-2.4-3.6c-1-1-2.2-1.8-3.6-2.4c-1.4-0.6-2.8-0.9-4.4-0.9c-1.5,0-3,0.3-4.4,0.9c-1.4,0.6-2.6,1.4-3.6,2.4
			c-1,1-1.8,2.2-2.4,3.6c-0.6,1.4-0.9,2.9-0.9,4.4c0,1.5,0.3,3,0.9,4.4c0.6,1.4,1.4,2.6,2.4,3.6c1,1,2.2,1.8,3.6,2.4
			c1.4,0.6,2.8,0.9,4.4,0.9c1.5,0,3-0.3,4.4-0.9c1.4-0.6,2.6-1.4,3.6-2.4c1-1,1.8-2.2,2.4-3.6C455.9,444.7,456.2,443.3,456.2,441.8z
			"/>
		<path class="st0" d="M480.6,434.4c0-1.4-0.4-2.7-1.3-3.7c-0.9-1-1.9-1.5-3.2-1.5c-1.2,0-2.3,0.5-3.1,1.5c-0.9,1-1.3,2.2-1.3,3.5
			c0,1.3,0.5,2.3,1.6,3.1c1.1,0.8,2.7,1.5,5,2.2c2.6,0.7,4.5,1.8,5.8,3.2c1.3,1.4,1.9,3.4,1.9,6.1c0,1.4-0.3,2.7-0.8,3.9
			c-0.5,1.2-1.2,2.3-2.1,3.2c-0.9,0.9-2,1.6-3.2,2.2c-1.2,0.5-2.5,0.8-4,0.8c-1.4,0-2.7-0.2-3.9-0.7c-1.2-0.5-2.3-1.2-3.2-2
			c-0.9-0.9-1.6-1.9-2.2-3.1c-0.5-1.2-0.8-2.5-0.8-4h5.8c0,1.4,0.5,2.6,1.4,3.5c0.9,0.9,2,1.4,3.2,1.4c1.2,0,2.3-0.5,3.1-1.4
			c0.9-0.9,1.3-2.1,1.3-3.4c0-0.9-0.2-1.6-0.5-2.2c-0.3-0.6-0.8-1-1.4-1.4c-0.6-0.4-1.3-0.7-2.1-1c-0.8-0.3-1.7-0.6-2.7-0.8
			c-2.3-0.7-4.3-1.7-5.8-3.2c-1.6-1.5-2.3-3.5-2.3-6.1c0-1.4,0.2-2.8,0.7-4c0.5-1.2,1.2-2.3,2.1-3.2c0.9-0.9,2-1.6,3.2-2.1
			c1.2-0.5,2.6-0.8,4-0.8c3,0,5.4,0.9,7.3,2.7c1.8,1.8,2.8,4.2,2.8,7.3H480.6z"/>
	</g>
</g>
</svg>
