<?xml version="1.0" encoding="UTF-8"?>
<svg id="Capa_1" data-name="Capa 1" xmlns="http://www.w3.org/2000/svg" viewBox="0 0 1172.62 262.79">
  <defs>
    <style>
      .cls-1 {
        fill: #fff;
      }
    </style>
  </defs>
  <g>
    <g>
      <path class="cls-1" d="m335.44,117.92c0,64.54-52.32,116.86-116.86,116.86-7.3,0-14.43-.67-21.36-1.95,54.34-10.03,95.5-57.66,95.5-114.91,0-50.86-32.49-94.14-77.86-110.19-2.54-.58-5.14-1.06-7.78-1.47-2.64-.4-5.36-.54-8.05-.49-11.9.24-17.24,4.83-17.32,16.7-.27,38.85-.4,77.71.14,116.55.3,21.19.59,42.21-7.63,62.04-3.98-.07-7.98-.1-11.96-.1.76-64.52.45-129.34-.92-193.6-1.36,64.26-1.67,129.08-.9,193.6-6.64,0-13.27.09-19.89.27,1.5-4.78,2.67-9.94,3.44-15.48,1.7-12.14,2.01-24.54,2.03-36.82.05-42.7-.18-85.4-.6-128.11-.12-12.09-4.33-15.85-16.36-16.4h-8.17V0h5.74c.81.01,1.63.01,2.44.01,29.35.23,58.73-.02,88.05,1.07.49-.02.98-.02,1.48-.02,64.54,0,116.86,52.32,116.86,116.86Z"/>
      <path class="cls-1" d="m160.75,224.65c-19.28,26.21-46.97,39.11-82.1,38.08-32.67-.95-57.57-17.29-73.89-45.98-.61-1.07-.94-2.31-1.05-3.71,8.84,12.02,19.85,21.33,32.87,28.38,34.5,18.69,86.69,10.03,103.24-38.08,6.87.18,13.75.28,20.63.29.08,7.01.18,14.02.29,21.01Z"/>
      <path class="cls-1" d="m173.14,203.55c-.31.69-.65,1.4-.98,2.09-3.07,6.3-6.48,12.09-10.22,17.35.12-6.45.2-12.91.28-19.36,3.64,0,7.29-.03,10.92-.08Z"/>
      <path class="cls-1" d="m0,161.94c2.96-27.19,27.45-52.72,54.89-58.1,14.71-2.88,29.07-2.01,42.89,4.19,9.29,4.17,14.63,12.9,13.56,22-1.08,9.27-7.55,16.43-16.67,18.32-6.45,1.33-11.84-1.09-17.4-4.25-7.59-4.32-15.35-9.35-23.67-11.18-22.05-4.86-41.14,5.9-53.6,29.02Z"/>
    </g>
    <path class="cls-1" d="m140.53,201.23c-.22.72-.46,1.42-.7,2.11-8.53-.21-17.05-.57-25.54-1.05,8.72-.5,17.47-.85,26.25-1.06Z"/>
    <path class="cls-1" d="m161.94,223c-.16,11.03-.37,22.04-.61,33.03-.22-10.44-.42-20.91-.58-31.38.4-.54.81-1.09,1.19-1.65Z"/>
    <path class="cls-1" d="m208.15,202.29c-11.62.67-23.31,1.09-35.01,1.26.38-.83.74-1.65,1.07-2.48,11.34.17,22.67.59,33.94,1.22Z"/>
  </g>
  <g>
    <g>
      <path class="cls-1" d="m402.71,106.95v27.61c0,4.68-.02,8.68-.06,12.02-.04,3.34-.17,6.29-.4,8.86-.23,2.57-.58,4.87-1.04,6.9-.46,2.03-1.11,4.08-1.96,6.15-1.23,2.91-3.16,5.77-5.81,8.57-2.65,2.8-6.31,5.81-10.99,9.03-.77.53-1.55,1.07-2.36,1.61-.81.53-1.51.96-2.13,1.27-.31.15-.58.23-.81.23-.54,0-.81-.23-.81-.69,0-.39.13-.67.4-.86.27-.19.67-.48,1.21-.86.69-.39,1.4-.88,2.13-1.5.73-.62,1.36-1.19,1.9-1.73,1.84-1.92,3.45-3.85,4.83-5.81s2.53-4.49,3.45-7.59c.92-3.11,1.61-7.02,2.07-11.73.46-4.72.69-10.79.69-18.23v-51.02c0-1.73-.02-3.11-.06-4.14-.04-1.04-.1-2.01-.17-2.93-.15-2-.54-3.49-1.15-4.49-.61-.99-1.88-1.69-3.8-2.07-.46-.15-1.09-.25-1.9-.29-.81-.04-1.48-.06-2.01-.06-.62,0-.92-.23-.92-.69,0-.61.61-.92,1.84-.92,1.3,0,2.68.02,4.14.06,1.46.04,2.82.08,4.08.12,1.27.04,2.34.08,3.22.12.88.04,1.4.06,1.55.06s.67-.02,1.55-.06c.88-.04,1.9-.07,3.05-.12,1.15-.04,2.34-.07,3.57-.12,1.23-.04,2.26-.06,3.11-.06,1.23,0,1.84.31,1.84.92,0,.46-.31.69-.92.69-.39,0-.79.02-1.21.06-.42.04-.98.13-1.67.29-1.53.31-2.59.98-3.16,2.01s-.94,2.55-1.09,4.54c-.08.92-.13,1.9-.17,2.93-.04,1.04-.06,2.42-.06,4.14v17.77Z"/>
      <path class="cls-1" d="m425.25,123.4c0-3.91.79-8.11,2.36-12.6,1.57-4.49,3.99-8.63,7.25-12.42,3.26-3.8,7.42-6.94,12.48-9.43,5.06-2.49,11.08-3.74,18.06-3.74,5.68,0,10.97.85,15.87,2.53,4.91,1.69,9.14,4.12,12.71,7.3,3.57,3.18,6.36,7.04,8.4,11.56,2.03,4.53,3.05,9.63,3.05,15.3s-.98,10.6-2.93,15.47c-1.96,4.87-4.7,9.11-8.22,12.71-3.53,3.61-7.8,6.46-12.83,8.57-5.02,2.11-10.57,3.16-16.62,3.16-6.9,0-12.85-1.17-17.83-3.51-4.99-2.34-9.09-5.37-12.31-9.09-3.22-3.72-5.6-7.86-7.13-12.42-1.54-4.56-2.3-9.03-2.3-13.4Zm10.47-2.59c0,5.69.81,10.81,2.42,15.38,1.61,4.57,3.85,8.47,6.73,11.7,2.88,3.23,6.25,5.7,10.12,7.43,3.87,1.73,8.11,2.59,12.71,2.59,2.3,0,5-.4,8.11-1.21,3.11-.81,6.1-2.4,8.97-4.78s5.31-5.74,7.3-10.08c1.99-4.34,2.99-10.04,2.99-17.11,0-5.84-.82-11-2.47-15.5-1.65-4.49-3.88-8.24-6.67-11.23-2.8-3-6.02-5.26-9.66-6.8-3.64-1.54-7.46-2.31-11.45-2.31-4.22,0-8.11.67-11.68,2.02-3.57,1.35-6.63,3.34-9.2,5.99-2.57,2.65-4.58,5.98-6.04,9.97-1.46,3.99-2.19,8.64-2.19,13.94Z"/>
      <path class="cls-1" d="m529.7,101.08l1.15,46.13c.07,2,.19,3.66.35,5,.15,1.34.38,2.46.69,3.34.3.88.69,1.54,1.15,1.96.46.42,1.04.71,1.73.86.92.23,1.88.39,2.88.46.99.08,1.73.12,2.19.12.53,0,.81.27.81.81s-.62.81-1.84.81c-2.92,0-5.31-.06-7.19-.17-1.88-.12-3.05-.17-3.51-.17s-1.63.06-3.51.17c-1.88.12-3.97.17-6.27.17-1.08,0-1.61-.27-1.61-.81s.27-.81.81-.81c.38,0,.98-.04,1.78-.12.81-.07,1.59-.23,2.36-.46.61-.15,1.11-.46,1.5-.92.38-.46.67-1.15.86-2.07.19-.92.32-2.13.4-3.62.07-1.5.12-3.35.12-5.58v-56.02c0-1.99.13-3.32.4-3.97.27-.65.59-.98.98-.98.61,0,1.28.36,2.01,1.09.73.73,1.36,1.36,1.9,1.9.39.39,1.54,1.59,3.45,3.62,1.92,2.03,4.33,4.58,7.25,7.65,2.92,3.07,6.21,6.52,9.89,10.35,3.68,3.84,7.48,7.75,11.39,11.73,2.53,2.61,5.04,5.23,7.53,7.88,2.49,2.65,4.83,5.12,7.02,7.42,2.19,2.3,4.1,4.34,5.75,6.1,1.65,1.77,2.85,3.03,3.62,3.8l-1.04-49c-.08-3.15-.35-5.37-.81-6.67-.46-1.3-1.46-2.11-2.99-2.42-.92-.15-1.88-.27-2.88-.35-1-.07-1.69-.12-2.07-.12s-.62-.12-.69-.35c-.08-.23-.12-.42-.12-.58,0-.46.65-.69,1.96-.69,2.3,0,4.49.04,6.56.12,2.07.08,3.41.12,4.03.12s1.69-.04,3.22-.12c1.53-.07,3.34-.12,5.41-.12,1.23,0,1.84.23,1.84.69,0,.16-.1.35-.29.58-.19.23-.48.35-.86.35h-.92c-.39,0-.88.08-1.5.23-.85.16-1.5.42-1.96.81-.46.39-.81.9-1.04,1.55s-.39,1.48-.46,2.47c-.08,1-.12,2.23-.12,3.68l-.23,57.29c0,1.61-.02,2.88-.06,3.8-.04.92-.08,1.63-.12,2.13-.04.5-.12.81-.23.92s-.25.17-.4.17c-.23,0-.5-.08-.81-.23-.31-.16-.75-.44-1.32-.86-.58-.42-1.31-1.01-2.19-1.78-.88-.76-2.01-1.8-3.39-3.11-.23-.23-1.25-1.21-3.05-2.93-1.8-1.73-3.97-3.87-6.5-6.44-2.53-2.57-5.29-5.37-8.28-8.4-2.99-3.03-5.83-5.92-8.51-8.68-2.92-3.07-5.77-6.08-8.57-9.03-2.8-2.95-5.39-5.68-7.76-8.17-2.38-2.49-4.43-4.66-6.15-6.5s-2.97-3.18-3.74-4.03Z"/>
      <path class="cls-1" d="m614.02,149.74l23.81-61.2c.61-1.61,1.07-2.65,1.38-3.11s.65-.69,1.04-.69c.54,0,.94.33,1.21.98.27.65.67,1.52,1.21,2.59.3.69.98,2.3,2.01,4.83,1.04,2.53,2.28,5.58,3.74,9.14,1.46,3.57,3.05,7.48,4.77,11.73,1.73,4.26,3.43,8.45,5.12,12.6,1.69,4.14,3.3,8.07,4.83,11.79,1.53,3.72,2.8,6.81,3.8,9.26.92,2.23,1.78,3.99,2.59,5.29.81,1.31,1.57,2.34,2.3,3.11.73.77,1.4,1.31,2.01,1.61.61.31,1.19.54,1.73.69.76.23,1.5.39,2.19.46.69.08,1.3.12,1.84.12.3,0,.59.06.86.17.27.12.4.33.4.63s-.23.52-.69.63-1,.17-1.61.17h-5.92c-1.5,0-3.11-.02-4.83-.06-1.73-.04-3.47-.1-5.23-.17-1-.08-1.84-.13-2.53-.17-.69-.04-1.04-.21-1.04-.52,0-.23.06-.36.17-.4.12-.04.29-.13.52-.29.3-.15.63-.42.98-.81.35-.38.33-.99-.06-1.84l-9.09-22.43c-.23-.38-.54-.58-.92-.58h-23.35c-.46,0-.81.27-1.04.81l-5.75,15.64c-1,2.61-1.5,4.79-1.5,6.56,0,1,.36,1.69,1.09,2.07.73.39,1.51.58,2.36.58h.92c.69,0,1.04.27,1.04.81s-.5.81-1.5.81c-.62,0-1.38-.02-2.3-.06-.92-.04-1.84-.08-2.76-.12-.92-.04-1.75-.08-2.47-.12-.73-.04-1.25-.06-1.55-.06-.23,0-.71.02-1.44.06-.73.04-1.57.07-2.53.12-.96.04-2,.07-3.11.12-1.11.04-2.17.06-3.16.06-1.3,0-1.96-.27-1.96-.81s.31-.81.92-.81c.39,0,.88-.02,1.5-.06.61-.04,1.11-.09,1.5-.17,2.3-.3,4.04-1.27,5.23-2.88,1.19-1.61,2.28-3.64,3.28-6.1Zm14.61-20.36h20.47c.3,0,.42-.23.35-.69l-10.01-26.8c-.61-1.46-1.19-1.46-1.73,0l-9.43,26.8c-.16.46-.04.69.35.69Z"/>
      <path class="cls-1" d="m701.45,161.82c-2.38,0-4.91-.19-7.59-.58-2.69-.39-5.06-1.07-7.13-2.07-.69-.38-1.11-.76-1.27-1.15-.16-.38-.23-1.23-.23-2.53,0-2.46.07-4.58.23-6.38.15-1.8.27-3.12.35-3.97,0-1.07.27-1.61.81-1.61.61,0,.92.39.92,1.15,0,.39.02.9.06,1.55.04.65.13,1.32.29,2.01.38,1.77,1.11,3.26,2.19,4.49,1.07,1.23,2.36,2.23,3.85,2.99s3.11,1.32,4.83,1.67,3.43.52,5.12.52c5.06,0,8.86-1.25,11.39-3.74,2.53-2.49,3.8-5.58,3.8-9.26,0-1.76-.25-3.34-.75-4.72-.5-1.38-1.27-2.7-2.3-3.97-1.04-1.27-2.36-2.55-3.97-3.85-1.61-1.3-3.53-2.8-5.75-4.49l-4.6-3.45c-5.45-4.07-9.22-7.73-11.33-10.99-2.11-3.26-3.16-6.57-3.16-9.95,0-2.84.53-5.41,1.61-7.71,1.07-2.3,2.61-4.24,4.6-5.81,1.99-1.57,4.35-2.78,7.07-3.62,2.72-.84,5.77-1.27,9.14-1.27,1.99,0,3.93.12,5.81.35,1.88.23,3.43.5,4.66.81.99.23,1.74.36,2.24.4.5.04.94.06,1.32.06.69,0,1.04.23,1.04.69,0,.23-.08,1.17-.23,2.82-.16,1.65-.23,4.16-.23,7.53,0,1.46-.27,2.19-.81,2.19-.39,0-.62-.12-.69-.35-.08-.23-.16-.53-.23-.92-.08-.61-.27-1.44-.58-2.47-.31-1.04-.62-1.82-.92-2.36-.16-.3-.5-.73-1.04-1.27-.54-.53-1.32-1.07-2.36-1.61-1.04-.53-2.34-.99-3.91-1.38-1.57-.38-3.51-.58-5.81-.58-3.68,0-6.84.9-9.49,2.7-2.65,1.8-3.97,4.43-3.97,7.88,0,1.54.21,2.95.63,4.26.42,1.31,1.15,2.59,2.19,3.85,1.04,1.27,2.38,2.57,4.03,3.91,1.65,1.34,3.74,2.86,6.27,4.54l2.88,1.96c3.07,2.07,5.65,4.08,7.76,6.04s3.81,3.87,5.12,5.75c1.3,1.88,2.24,3.8,2.82,5.75.58,1.96.86,3.97.86,6.04,0,2.92-.67,5.83-2.01,8.74-1.34,2.92-3.82,5.56-7.42,7.94-2.15,1.38-4.68,2.3-7.59,2.76-2.92.46-5.75.69-8.51.69Z"/>
      <path class="cls-1" d="m795.54,127.19v-38.02c0-1.73-.02-3.11-.06-4.14-.04-1.04-.1-2.01-.17-2.93-.15-2-.54-3.49-1.15-4.49-.61-.99-1.88-1.69-3.8-2.07-.46-.15-1.09-.25-1.9-.29-.81-.04-1.48-.06-2.01-.06-.62,0-.92-.23-.92-.69,0-.61.61-.92,1.84-.92,1.3,0,2.68.02,4.14.06,1.46.04,2.82.08,4.08.12,1.27.04,2.34.08,3.22.12.88.04,1.4.06,1.55.06.3,0,.98-.02,2.01-.06,1.04-.04,2.26-.07,3.68-.12,1.42-.04,2.97-.07,4.66-.12,1.69-.04,3.41-.06,5.18-.06,2.84,0,6.19.02,10.06.06,3.87.04,7.92.44,12.14,1.21,4.22.77,8.4,2.05,12.54,3.85,4.14,1.8,7.94,4.47,11.39,7.99,1.46,1.54,2.86,3.26,4.2,5.18,1.34,1.92,2.53,4.08,3.57,6.5,1.04,2.42,1.86,5.08,2.47,7.99.61,2.92.92,6.1.92,9.55s-.35,7.02-1.04,10.24c-.69,3.22-1.61,6.19-2.76,8.91-1.15,2.72-2.47,5.2-3.97,7.42-1.5,2.23-3.05,4.18-4.66,5.87-1.23,1.31-2.82,2.72-4.77,4.26-1.96,1.54-4.35,2.97-7.19,4.31-2.84,1.34-6.14,2.46-9.89,3.34-3.76.88-8.09,1.32-13,1.32-2.46,0-5.12-.08-8-.23-2.88-.16-5.54-.31-7.99-.46-2.53-.16-4.68-.31-6.44-.46-1.77-.16-2.8-.23-3.11-.23h-1.5c-.85,0-1.88.04-3.11.12-1.15,0-2.34.04-3.57.12-1.23.07-2.26.12-3.11.12-1.23,0-1.84-.31-1.84-.92,0-.46.3-.69.92-.69.53,0,1.11-.04,1.73-.12.61-.07,1.19-.19,1.73-.35,1.15-.23,1.94-.92,2.36-2.07.42-1.15.75-2.57.98-4.26.31-2.45.48-5.85.52-10.18.04-4.33.06-9.26.06-14.78Zm9.66-22.09v23.01c0,2.76.02,5.25.06,7.48.04,2.23.07,4.1.12,5.64.04,1.54.06,2.57.06,3.11,0,.69.04,1.48.12,2.36.07.88.15,1.74.23,2.59.07.85.19,1.61.35,2.3.15.69.35,1.19.58,1.5.38.53.98,1.07,1.78,1.61s1.96,1.04,3.45,1.5,3.41.82,5.75,1.09c2.34.27,5.2.4,8.57.4,5.37,0,10.41-.92,15.13-2.76,4.72-1.84,8.8-4.49,12.25-7.94,1.46-1.46,2.76-3.22,3.91-5.29s2.13-4.31,2.93-6.73c.81-2.42,1.4-4.93,1.78-7.53.38-2.61.58-5.25.58-7.94,0-3.68-.35-7.02-1.04-10.01-.69-2.99-1.59-5.69-2.7-8.11-1.11-2.42-2.32-4.52-3.62-6.33-1.31-1.8-2.53-3.32-3.68-4.54-2.69-2.84-5.52-5.12-8.51-6.84s-6.06-3.05-9.2-3.97c-3.15-.92-6.38-1.51-9.72-1.78-3.34-.27-6.73-.4-10.18-.4-.62,0-1.29.02-2.01.06-.73.04-1.48.1-2.24.17-.77.08-1.44.17-2.01.29s-.98.21-1.21.29c-.92.39-1.38,1.15-1.38,2.3,0,1-.02,2.42-.06,4.26-.04,1.84-.06,3.89-.06,6.15v14.09Z"/>
      <path class="cls-1" d="m888.72,149.74l23.81-61.2c.61-1.61,1.07-2.65,1.38-3.11s.65-.69,1.04-.69c.54,0,.94.33,1.21.98.27.65.67,1.52,1.21,2.59.3.69.98,2.3,2.01,4.83,1.04,2.53,2.28,5.58,3.74,9.14,1.46,3.57,3.05,7.48,4.77,11.73,1.73,4.26,3.43,8.45,5.12,12.6,1.69,4.14,3.3,8.07,4.83,11.79,1.53,3.72,2.8,6.81,3.8,9.26.92,2.23,1.78,3.99,2.59,5.29.81,1.31,1.57,2.34,2.3,3.11.73.77,1.4,1.31,2.01,1.61.61.31,1.19.54,1.73.69.76.23,1.5.39,2.19.46.69.08,1.3.12,1.84.12.3,0,.59.06.86.17.27.12.4.33.4.63s-.23.52-.69.63-1,.17-1.61.17h-5.92c-1.5,0-3.11-.02-4.83-.06-1.73-.04-3.47-.1-5.23-.17-1-.08-1.84-.13-2.53-.17-.69-.04-1.04-.21-1.04-.52,0-.23.06-.36.17-.4.12-.04.29-.13.52-.29.3-.15.63-.42.98-.81.35-.38.33-.99-.06-1.84l-9.09-22.43c-.23-.38-.54-.58-.92-.58h-23.35c-.46,0-.81.27-1.04.81l-5.75,15.64c-1,2.61-1.5,4.79-1.5,6.56,0,1,.36,1.69,1.09,2.07.73.39,1.51.58,2.36.58h.92c.69,0,1.04.27,1.04.81s-.5.81-1.5.81c-.62,0-1.38-.02-2.3-.06-.92-.04-1.84-.08-2.76-.12-.92-.04-1.75-.08-2.47-.12-.73-.04-1.25-.06-1.55-.06-.23,0-.71.02-1.44.06-.73.04-1.57.07-2.53.12-.96.04-2,.07-3.11.12-1.11.04-2.17.06-3.16.06-1.3,0-1.96-.27-1.96-.81s.31-.81.92-.81c.39,0,.88-.02,1.5-.06.61-.04,1.11-.09,1.5-.17,2.3-.3,4.04-1.27,5.23-2.88,1.19-1.61,2.28-3.64,3.28-6.1Zm14.61-20.36h20.47c.3,0,.42-.23.35-.69l-10.01-26.8c-.61-1.46-1.19-1.46-1.73,0l-9.43,26.8c-.16.46-.04.69.35.69Z"/>
      <path class="cls-1" d="m972.01,101.08l1.15,46.13c.07,2,.19,3.66.35,5,.15,1.34.38,2.46.69,3.34.3.88.69,1.54,1.15,1.96.46.42,1.04.71,1.73.86.92.23,1.88.39,2.88.46.99.08,1.73.12,2.19.12.53,0,.81.27.81.81s-.62.81-1.84.81c-2.92,0-5.31-.06-7.19-.17-1.88-.12-3.05-.17-3.51-.17s-1.63.06-3.51.17c-1.88.12-3.97.17-6.27.17-1.08,0-1.61-.27-1.61-.81s.27-.81.81-.81c.38,0,.98-.04,1.78-.12.81-.07,1.59-.23,2.36-.46.61-.15,1.11-.46,1.5-.92.38-.46.67-1.15.86-2.07.19-.92.32-2.13.4-3.62.07-1.5.12-3.35.12-5.58v-56.02c0-1.99.13-3.32.4-3.97.27-.65.59-.98.98-.98.61,0,1.28.36,2.01,1.09.73.73,1.36,1.36,1.9,1.9.39.39,1.54,1.59,3.45,3.62,1.92,2.03,4.33,4.58,7.25,7.65,2.92,3.07,6.21,6.52,9.89,10.35,3.68,3.84,7.48,7.75,11.39,11.73,2.53,2.61,5.04,5.23,7.53,7.88,2.49,2.65,4.83,5.12,7.02,7.42,2.19,2.3,4.1,4.34,5.75,6.1,1.65,1.77,2.85,3.03,3.62,3.8l-1.04-49c-.08-3.15-.35-5.37-.81-6.67-.46-1.3-1.46-2.11-2.99-2.42-.92-.15-1.88-.27-2.88-.35-1-.07-1.69-.12-2.07-.12s-.62-.12-.69-.35c-.08-.23-.12-.42-.12-.58,0-.46.65-.69,1.96-.69,2.3,0,4.49.04,6.56.12,2.07.08,3.41.12,4.03.12s1.69-.04,3.22-.12c1.53-.07,3.34-.12,5.41-.12,1.23,0,1.84.23,1.84.69,0,.16-.1.35-.29.58-.19.23-.48.35-.86.35h-.92c-.39,0-.88.08-1.5.23-.85.16-1.5.42-1.96.81-.46.39-.81.9-1.04,1.55-.23.65-.39,1.48-.46,2.47-.08,1-.12,2.23-.12,3.68l-.23,57.29c0,1.61-.02,2.88-.06,3.8-.04.92-.08,1.63-.12,2.13-.04.5-.12.81-.23.92s-.25.17-.4.17c-.23,0-.5-.08-.81-.23-.31-.16-.75-.44-1.32-.86-.58-.42-1.31-1.01-2.19-1.78-.88-.76-2.01-1.8-3.39-3.11-.23-.23-1.25-1.21-3.05-2.93-1.8-1.73-3.97-3.87-6.5-6.44-2.53-2.57-5.29-5.37-8.28-8.4-2.99-3.03-5.83-5.92-8.51-8.68-2.92-3.07-5.77-6.08-8.57-9.03-2.8-2.95-5.39-5.68-7.76-8.17-2.38-2.49-4.43-4.66-6.15-6.5-1.73-1.84-2.97-3.18-3.74-4.03Z"/>
      <path class="cls-1" d="m1086.81,90.96v41.14c0,4.76.02,8.99.06,12.68.04,3.69.17,6.53.4,8.53.15,1.46.46,2.63.92,3.51.46.89,1.46,1.44,2.99,1.67.69.16,1.51.27,2.47.35.96.08,1.67.12,2.13.12.54,0,.81.27.81.81s-.53.81-1.61.81c-1.38,0-2.78-.02-4.2-.06-1.42-.04-2.73-.08-3.91-.12-1.19-.04-2.19-.08-2.99-.12-.81-.04-1.28-.06-1.44-.06s-.63.02-1.44.06c-.81.04-1.77.07-2.88.12-1.11.04-2.23.07-3.34.12-1.11.04-2.05.06-2.82.06-1.08,0-1.61-.27-1.61-.81,0-.46.27-.69.81-.69.46,0,.96-.04,1.5-.12.53-.07,1.04-.19,1.5-.35,1.07-.23,1.8-.81,2.19-1.73.38-.92.65-2.11.81-3.57.23-2,.36-4.84.4-8.53.04-3.69.06-7.91.06-12.68v-41.14l-14.61.23c-3.22.08-5.54.33-6.96.75-1.42.42-2.51,1.21-3.28,2.36-.61.85-1,1.48-1.15,1.9-.15.42-.31.82-.46,1.21-.15.61-.5.92-1.04.92-.16,0-.31-.06-.46-.17-.16-.12-.23-.32-.23-.63,0-.23.1-.88.29-1.96.19-1.08.42-2.2.69-3.38.27-1.18.52-2.28.75-3.28.23-1.01.38-1.62.46-1.85.08-.3.23-.69.46-1.15s.42-.69.58-.69c.39,0,.88.16,1.5.46.61.31,1.61.54,2.99.69,1.46.16,2.99.27,4.6.35,1.61.08,2.72.12,3.34.12h38.19c1.69,0,3.11-.04,4.26-.12,1.15-.07,2.15-.19,2.99-.35.77-.15,1.38-.27,1.84-.35.46-.07.81-.12,1.04-.12.3,0,.46.39.46,1.15s-.02,1.68-.06,2.8c-.04,1.12-.08,2.24-.12,3.35-.04,1.11-.08,2.13-.12,3.05-.04.92-.06,1.53-.06,1.84,0,.85-.31,1.27-.92,1.27-.23,0-.4-.12-.52-.35s-.21-.69-.29-1.38l-.12-1.04c-.08-.77-.31-1.46-.69-2.07-.38-.61-1.02-1.17-1.9-1.67-.88-.5-2.11-.88-3.68-1.15-1.57-.27-3.55-.44-5.92-.52l-12.65-.23Z"/>
      <path class="cls-1" d="m1134.89,132.14v-32.27c0-1.5-.02-2.68-.06-3.57-.04-.88-.1-1.71-.17-2.47-.16-1.69-.46-2.95-.92-3.8-.46-.84-1.54-1.38-3.22-1.61-.39-.07-.94-.13-1.67-.17-.73-.04-1.32-.06-1.78-.06-.54,0-.81-.27-.81-.81s.53-.81,1.61-.81c1.15,0,2.38.02,3.68.06,1.3.04,2.53.06,3.68.06s2.13.02,2.93.06c.81.04,1.28.06,1.44.06h24.16c1-.07,1.92-.17,2.76-.29.85-.12,1.46-.21,1.84-.29.23-.07.46-.17.69-.29s.46-.17.69-.17c.3,0,.46.31.46.92,0,.39-.1.9-.29,1.55-.19.65-.36,1.67-.52,3.05,0,.23-.02.63-.06,1.21-.04.58-.1,1.21-.17,1.9-.08.69-.14,1.34-.17,1.96-.04.61-.1,1.07-.17,1.38-.08.23-.19.46-.35.69-.16.23-.35.35-.58.35-.54,0-.81-.42-.81-1.27,0-.38-.04-.9-.12-1.55-.07-.65-.23-1.28-.46-1.9-.15-.38-.36-.73-.63-1.04-.27-.3-.67-.58-1.21-.81s-1.23-.44-2.07-.63c-.85-.19-1.96-.36-3.34-.52-.46-.07-1.42-.13-2.88-.17-1.46-.04-3.01-.08-4.66-.12-1.65-.04-3.16-.06-4.54-.06h-2.53c-.39,0-.58.35-.58,1.04v26.57c0,.69.19,1.04.58,1.04h8.05c1.92,0,3.72-.02,5.41-.06,1.69-.04,2.84-.1,3.45-.17,1.23-.15,2.22-.29,2.99-.4s1.42-.44,1.96-.98c.85-.84,1.34-1.27,1.5-1.27.38,0,.58.27.58.81,0,.31-.1.88-.29,1.73-.19.85-.36,2.07-.52,3.68-.16,1-.27,2.21-.35,3.62-.08,1.42-.12,2.32-.12,2.7s-.06.79-.17,1.21c-.12.42-.36.63-.75.63-.46,0-.69-.3-.69-.92,0-.46-.02-.96-.06-1.5-.04-.53-.17-1.11-.4-1.73-.15-.69-.56-1.31-1.21-1.84-.65-.54-1.98-.92-3.97-1.15-.69-.07-1.8-.15-3.34-.23-1.54-.07-3.11-.13-4.72-.17-1.61-.04-3.11-.06-4.49-.06h-2.76c-.46,0-.69.23-.69.69v24.85c.07,1.61.27,2.93.58,3.97.3,1.04.9,1.84,1.78,2.42.88.58,2.09.96,3.62,1.15,1.54.19,3.57.29,6.1.29,1.3,0,2.99-.04,5.06-.12,2.07-.07,3.76-.38,5.06-.92,1.31-.61,2.32-1.4,3.05-2.36.73-.96,1.25-2.43,1.55-4.43.23-.99.58-1.5,1.04-1.5.3,0,.5.16.58.46.07.31.12.65.12,1.04,0,.16-.04.63-.12,1.44-.08.81-.19,1.73-.35,2.76-.16,1.04-.31,2.03-.46,2.99-.16.96-.31,1.71-.46,2.24-.16.62-.37,1.09-.63,1.44-.27.35-.59.59-.98.75-.39.15-.9.25-1.55.29-.65.04-1.48.06-2.47.06-3.84,0-7.21-.04-10.12-.12-2.92-.08-5.41-.16-7.48-.23-2.15-.16-3.89-.23-5.23-.23h-4.66c-.84,0-1.8.04-2.88.12-1,.07-2.01.13-3.05.17-1.04.04-1.98.06-2.82.06-1.08,0-1.61-.27-1.61-.81s.27-.81.81-.81c.46,0,.98-.06,1.55-.17s1.09-.21,1.55-.29c.99-.15,1.63-.69,1.9-1.61.27-.92.52-2.11.75-3.57.3-2,.48-4.83.52-8.51.04-3.68.06-7.9.06-12.65Z"/>
    </g>
    <g>
      <path class="cls-1" d="m465.14,163.27c-22.31,0-40.47-17.76-40.47-39.6s18.15-39.6,40.47-39.6,40.47,17.76,40.47,39.6-18.15,39.6-40.47,39.6Zm0-78.08c-21.69,0-39.33,17.27-39.33,38.49s17.64,38.49,39.33,38.49,39.33-17.27,39.33-38.49-17.64-38.49-39.33-38.49Z"/>
      <path class="cls-1" d="m500.08,143.12h-69.88l34.94-43.14.15.19,34.79,42.96Zm-69.08-.38h68.28l-34.14-42.15-34.14,42.15Z"/>
      <path class="cls-1" d="m465.14,147.3l-.15-.19-34.79-42.96h69.88l-34.94,43.14Zm-34.14-42.77l34.14,42.15,34.14-42.15h-68.28Z"/>
      <path class="cls-1" d="m465.14,100.7c-4.69,0-8.51-3.74-8.51-8.33s3.82-8.33,8.51-8.33,8.51,3.74,8.51,8.33-3.82,8.33-8.51,8.33Zm0-15.54c-4.07,0-7.38,3.24-7.38,7.22s3.31,7.22,7.38,7.22,7.38-3.24,7.38-7.22-3.31-7.22-7.38-7.22Z"/>
      <path class="cls-1" d="m444.49,95.31c-2.81,0-5.09-2.24-5.09-4.98s2.28-4.98,5.09-4.98,5.09,2.24,5.09,4.98-2.28,4.98-5.09,4.98Zm0-9.59c-2.59,0-4.7,2.07-4.7,4.6s2.11,4.6,4.7,4.6,4.7-2.07,4.7-4.6-2.11-4.6-4.7-4.6Z"/>
      <path class="cls-1" d="m425.24,128.63c-2.81,0-5.09-2.24-5.09-4.98s2.28-4.98,5.09-4.98,5.09,2.24,5.09,4.98-2.28,4.98-5.09,4.98Zm0-9.59c-2.59,0-4.7,2.07-4.7,4.6s2.11,4.6,4.7,4.6,4.7-2.07,4.7-4.6-2.11-4.6-4.7-4.6Z"/>
      <path class="cls-1" d="m505.04,128.63c-2.81,0-5.09-2.24-5.09-4.98s2.28-4.98,5.09-4.98,5.09,2.24,5.09,4.98-2.28,4.98-5.09,4.98Zm0-9.59c-2.59,0-4.7,2.07-4.7,4.6s2.11,4.6,4.7,4.6,4.7-2.07,4.7-4.6-2.11-4.6-4.7-4.6Z"/>
      <path class="cls-1" d="m486.2,95.31c-2.81,0-5.09-2.24-5.09-4.98s2.28-4.98,5.09-4.98,5.09,2.24,5.09,4.98-2.28,4.98-5.09,4.98Zm0-9.59c-2.59,0-4.7,2.07-4.7,4.6s2.11,4.6,4.7,4.6,4.7-2.07,4.7-4.6-2.11-4.6-4.7-4.6Z"/>
      <path class="cls-1" d="m444.49,162c-2.81,0-5.09-2.24-5.09-4.98s2.28-4.98,5.09-4.98,5.09,2.24,5.09,4.98-2.28,4.98-5.09,4.98Zm0-9.59c-2.59,0-4.7,2.07-4.7,4.6s2.11,4.6,4.7,4.6,4.7-2.06,4.7-4.6-2.11-4.6-4.7-4.6Z"/>
      <path class="cls-1" d="m486.2,162c-2.81,0-5.09-2.24-5.09-4.98s2.28-4.98,5.09-4.98,5.09,2.24,5.09,4.98-2.28,4.98-5.09,4.98Zm0-9.59c-2.59,0-4.7,2.07-4.7,4.6s2.11,4.6,4.7,4.6,4.7-2.06,4.7-4.6-2.11-4.6-4.7-4.6Z"/>
      <path class="cls-1" d="m439.59,128.86c-2.92,0-5.3-2.33-5.3-5.18s2.38-5.18,5.3-5.18,5.3,2.33,5.3,5.18-2.38,5.18-5.3,5.18Zm0-9.99c-2.71,0-4.91,2.16-4.91,4.8s2.2,4.8,4.91,4.8,4.91-2.16,4.91-4.8-2.2-4.8-4.91-4.8Z"/>
      <path class="cls-1" d="m490.7,128.86c-2.92,0-5.3-2.33-5.3-5.18s2.38-5.18,5.3-5.18,5.3,2.33,5.3,5.18-2.38,5.18-5.3,5.18Zm0-9.99c-2.71,0-4.91,2.16-4.91,4.8s2.2,4.8,4.91,4.8,4.91-2.16,4.91-4.8-2.2-4.8-4.91-4.8Z"/>
      <path class="cls-1" d="m465.14,163.01c-4.69,0-8.51-3.68-8.51-8.21s3.82-8.21,8.51-8.21,8.51,3.68,8.51,8.21-3.82,8.21-8.51,8.21Zm0-15.31c-4.07,0-7.38,3.19-7.38,7.1s3.31,7.1,7.38,7.1,7.38-3.19,7.38-7.1-3.31-7.1-7.38-7.1Z"/>
      <rect class="cls-1" x="464.95" y="104.34" width=".39" height="19.31"/>
      <polygon class="cls-1" points="464.96 123.7 460.17 106.23 460.55 106.13 465.33 123.6 464.96 123.7"/>
      <polygon class="cls-1" points="464.98 123.74 457 110.22 457.33 110.03 465.31 123.55 464.98 123.74"/>
      <polygon class="cls-1" points="465.01 123.78 454.45 113.45 454.72 113.18 465.28 123.51 465.01 123.78"/>
      <polygon class="cls-1" points="465.05 123.81 452.06 116.47 452.25 116.14 465.24 123.48 465.05 123.81"/>
      <polygon class="cls-1" points="465.09 123.83 449.63 119.78 449.73 119.41 465.2 123.46 465.09 123.83"/>
      <path class="cls-1" d="m484.26,123.83h-38.44l19.31-23.98.15.19,18.97,23.79Zm-19.31-.38h18.52l-18.33-22.99-18.51,22.99h18.33Z"/>
      <polygon class="cls-1" points="465.13 123.7 464.75 123.6 469.54 106.13 469.91 106.23 465.13 123.7"/>
      <polygon class="cls-1" points="465.11 123.74 464.77 123.55 472.75 110.03 473.09 110.22 465.11 123.74"/>
      <polygon class="cls-1" points="465.08 123.78 464.8 123.51 475.37 113.18 475.64 113.45 465.08 123.78"/>
      <polygon class="cls-1" points="465.04 123.81 464.84 123.48 477.83 116.14 478.03 116.47 465.04 123.81"/>
      <polygon class="cls-1" points="464.99 123.83 464.89 123.46 480.77 119.55 480.86 119.92 464.99 123.83"/>
      <rect class="cls-1" x="464.95" y="123.47" width=".39" height="19.31"/>
      <polygon class="cls-1" points="460.55 140.99 460.17 140.89 464.96 123.42 465.33 123.52 460.55 140.99"/>
      <polygon class="cls-1" points="457.33 137.09 457 136.9 464.98 123.38 465.31 123.57 457.33 137.09"/>
      <polygon class="cls-1" points="454.72 133.94 454.45 133.67 465.01 123.34 465.28 123.61 454.72 133.94"/>
      <polygon class="cls-1" points="452.25 130.97 452.06 130.64 465.05 123.31 465.24 123.64 452.25 130.97"/>
      <polygon class="cls-1" points="449.73 127.71 449.63 127.34 465.09 123.29 465.2 123.65 449.73 127.71"/>
      <polygon class="cls-1" points="469.74 141.13 464.75 123.52 465.13 123.42 470.11 141.02 469.74 141.13"/>
      <polygon class="cls-1" points="472.88 137.31 464.77 123.57 465.11 123.38 473.22 137.12 472.88 137.31"/>
      <polygon class="cls-1" points="475.54 134.11 464.8 123.61 465.08 123.34 475.81 133.84 475.54 134.11"/>
      <polygon class="cls-1" points="477.99 131.06 465 123.73 465.2 123.4 478.19 130.73 477.99 131.06"/>
      <polygon class="cls-1" points="480.76 127.82 464.89 123.65 464.99 123.29 480.86 127.45 480.76 127.82"/>
      <path class="cls-1" d="m467.15,123.65c0,1.08-.9,1.96-2,1.96s-2-.88-2-1.96.9-1.96,2-1.96,2,.88,2,1.96Z"/>
      <path class="cls-1" d="m440.97,123.67c0,.74-.62,1.35-1.38,1.35s-1.38-.6-1.38-1.35.62-1.35,1.38-1.35,1.38.6,1.38,1.35Z"/>
      <path class="cls-1" d="m492.07,123.67c0,.74-.62,1.35-1.38,1.35s-1.38-.6-1.38-1.35.62-1.35,1.38-1.35,1.38.6,1.38,1.35Z"/>
      <path class="cls-1" d="m466.52,154.8c0,.74-.62,1.35-1.38,1.35s-1.38-.6-1.38-1.35.62-1.35,1.38-1.35,1.38.6,1.38,1.35Z"/>
      <path class="cls-1" d="m466.52,92.38c0,.74-.62,1.35-1.38,1.35s-1.38-.6-1.38-1.35.62-1.35,1.38-1.35,1.38.6,1.38,1.35Z"/>
      <path class="cls-1" d="m446.08,90.33c0,.74-.62,1.35-1.38,1.35s-1.38-.6-1.38-1.35.62-1.35,1.38-1.35,1.38.6,1.38,1.35Z"/>
      <path class="cls-1" d="m487.57,90.33c0,.74-.62,1.35-1.38,1.35s-1.38-.6-1.38-1.35.62-1.35,1.38-1.35,1.38.6,1.38,1.35Z"/>
      <path class="cls-1" d="m446.08,157.02c0,.74-.62,1.35-1.38,1.35s-1.38-.6-1.38-1.35.62-1.35,1.38-1.35,1.38.6,1.38,1.35Z"/>
      <path class="cls-1" d="m426.61,123.47c0,.74-.62,1.35-1.38,1.35s-1.38-.6-1.38-1.35.62-1.35,1.38-1.35,1.38.6,1.38,1.35Z"/>
      <path class="cls-1" d="m506.41,123.47c0,.74-.62,1.35-1.38,1.35s-1.38-.6-1.38-1.35.62-1.35,1.38-1.35,1.38.6,1.38,1.35Z"/>
      <path class="cls-1" d="m487.57,157.02c0,.74-.62,1.35-1.38,1.35s-1.38-.6-1.38-1.35.62-1.35,1.38-1.35,1.38.6,1.38,1.35Z"/>
      <path class="cls-1" d="m465.14,163.02l-.15-.18-32.42-39.16.1-.12,32.48-39.22,32.6,39.34-.1.12-32.5,39.22Zm-32.08-39.34l32.08,38.74,32.1-38.74-32.1-38.74-32.08,38.74Z"/>
      <path class="cls-1" d="m464.69,147.49l-18.91-23.51v-.69l18.91-23.49h.89s18.73,23.49,18.73,23.49v.68l-18.73,23.51h-.89Zm-17.75-23.85l18.19,22.61,18.01-22.61-18.01-22.59-18.19,22.59Z"/>
    </g>
  </g>
</svg>