<?xml version="1.0" encoding="UTF-8"?>
<svg id="Capa_1" data-name="Capa 1" xmlns="http://www.w3.org/2000/svg" viewBox="0 0 465.25 82.1">
  <defs>
    <style>
      .cls-1 {
        fill: #fff;
      }
    </style>
  </defs>
  <g>
    <path class="cls-1" d="m44.06,38.72c-1.54-1.64-4.01-1.39-4.54-.88,1.04,1.76-.5,3.08-1.85,2.68-.26-.07-.46-.22-.69-.36-1.49,5.62,7.25,7.92,8.17,1.45-.15-.56.14-1.58-1.09-2.89h0Zm.3-14.08c-.69-.95-1.41-1.88-2.1-2.84-.39-.55-.76-1.19-1.2-1.69-.21.27-3.13,4.27-3.32,4.53,3.46-.48,3.77-.32,6.62,0h0Zm-3.29-2.98c.6.57,1.08,1.43,1.54,2.11-1.15.06-2.07.07-3.09.01.44-.73.99-1.48,1.55-2.12Z"/>
    <path class="cls-1" d="m40.48,29.69c-9.32.29-16.38,4.87-22.47,11.74,5.98,6.87,14.1,11.7,23.35,11.66,7.52-.04,14.81-3.68,20.04-8.96.81-.82,1.7-1.71,2.39-2.64-5.72-7.76-14.85-11.99-23.31-11.8h0Zm-19.14,11.91c.57-.46,3.99-2.67,4.4-2.93l.05.08c-1.1,2.06-1.47,3.15.07,5.98-.3-.18-4.05-2.71-4.51-3.13h0Zm27.46,6.45c-6.01,6.93-17.18,3.09-17.95-5.65-.53-6.02,3.65-10.8,9.32-11.31h.06c8.68-.77,14.69,9.76,8.58,16.96h0Zm9.46-4.64c-.78.46-1.64.91-2.49,1.23.61-.75,1.16-1.44,1.28-2.43.18-1.41-.49-2.55-1.31-3.64,1.26.34,3.8,2.22,4.9,3.09-.79.58-1.56,1.23-2.39,1.75Z"/>
    <path class="cls-1" d="m40.3,33.07s-.04,0-.06,0c-8.04.83-9.94,10.39-4.42,14.79,3.88,3.09,9.43,2.15,12.2-2,3.84-5.64-.97-13.5-7.73-12.8Zm6.12,12.92c-2.72,3.1-7.24,3.3-10.11.7-3.57-3.22-2.88-8.58.06-10.72.64-.82,3.07-2.02,5.51-1.67,1.3.16,3.49,1.16,4.3,2.22l.02.03c2.33,2.17,2.77,6.54.22,9.44Zm-8.43,11.84s2.84,4.14,3.01,4.36c.2-.26,2.81-3.73,3.21-4.37-3.56.46-5.12.05-6.22.01Zm4.48.96c-.41.74-.93,1.43-1.43,2.12-.35-.44-1.06-1.6-1.36-2.09.92,0,1.85-.02,2.77-.07l.02.05Z"/>
    <path class="cls-1" d="m81.12,43.07c1.1-.77,1.36-2.28.6-3.38-.17-.24-.38-.45-.62-.61-1.28-.87-2.54-1.74-3.84-2.59.43-1.16.06-2.41,1.88-6.38.51-1.15.06-2.5-1.04-3.12-2.3-1.2-1.53-1.28-3.84-3.14.1-.54,0-1.1-.29-1.57-3.07-5.32-7.31-9.18-12.16-12.86-1.02-.79-2.06-1.47-3.29-1.09-2.27-2.38-2.59-2.27-2.97-3.79-.35-1.33-1.72-2.13-3.05-1.78-.18.05-.36.12-.53.21-.26.15-.93.58-1.79.94-1.77.75-3.79.43-4.74.7C43.37,1.54,42.77-.13,40.84,0c-1.5.15-1.74,1.02-4.25,4.61-1.31-.38-2.51.27-6.64-1.55-1.38-.66-2.99.2-3.34,1.64-.19.82-.48,1.06-1.3,1.76-.29.24-1.53,1.31-1.69,1.64-.66-.17-1.35-.04-1.91.34-4.44,2.88-6.49,4.61-10.27,8.97-2.21,2.94-3.83,4.6-3.33,6.28-.48.41-.97.8-1.64,1.57-.26.31-.54.61-.85.87-.84.71-2.21.7-2.68,2.17-.51,1.49.42,1.99.97,3.89v.03c.65,1.82.63,3.58,1.06,4.32-1.69,1.06-3,1.89-3.94,2.54C.36,39.56-.02,40.32,0,41.11c0,.8.41,1.55,1.06,1.98,1.28.85,2.56,1.67,3.91,2.49-.33.5-.31.86-.43,1.3-.48,2.05-.82,3.53-1.64,5.39-.28.66-.25,1.41.07,2.05.58,1.24,1.91,1.34,2.22,1.5.56.32.92,1.33,3.05,2.92,0,0,.03,0,.03.03-.12.57-.02,1.16.26,1.67,2.99,5.23,7.68,9.78,11.53,12.27,2.06,1.39,2.87,1.67,3.6,1.43l.36.44c1.47,1.65,2.31,1.61,2.68,3.02.4,1.51,2.2,2.33,3.6,1.45,1.89-1.17,2.57-1.1,4.06-1.45.83-.15,1.41-.18,2.03-.58.19.28.92,1.52,2.68,4.01.41.63,1.11,1.01,1.88,1.04.03.03.05.03.1.03.72,0,1.41-.33,1.86-.9.77-.92,2.34-3.43,2.68-4.06.14.07.3.12.46.15,2.52.56,3.83.43,5.46,1.69,1.36.98,3.26.45,3.79-1.21.26-.97.44-1.09,1.04-1.64.95-.8,2.15-2.24,2.25-2.44.66.22,1.38.14,1.98-.22,8.84-5.3,11.49-11.02,11.91-11.53.75-1.1,1.42-2.07,1.16-3.16.41-.21,1.6-1.29,2.17-1.88.26-.26.76-.88.9-1.02.59-.3,1.96-.26,2.56-1.67.75-1.62-.37-1.85-1.3-5.46-.48-2.35-.58-2.75-.82-3.14.26-.13,3.42-2.17,3.96-2.54h0Zm-4.19-13.94c-1.31,2.93-1.72,4.84-1.92,6.44-.52-3.48-2.73-6.65-5.52-8.28-.76-.45-1.59-.77-2.4-1.11-1.42-2.67-1.85-2.65-2.83-4.28,3.53.73,6.43,2,9.14,4.41,1.55,1.38.89,1.38,3.53,2.82h0Zm-38.82,39.85c-13.68-1.21-24.37-12.36-25.14-26.12-1.39-26.18,30.11-39.82,48.31-21.08,17.69,18.14,3.79,49.58-23.17,47.2h0Zm28.18-7.75s.01,0,.08.03c-.06.26-.44.6-.62.81-1.24,1.44-2.63,2.74-4.15,3.87h-.04c-.07-.11.03-.48.06-.64.11-.75.15-1.51.2-2.27.84-1.24,1.26-1.01,4.48-1.79Zm-12.99,7.28c-.54,1.54-2.62,3.58-5.39,4.06l-.04-.08c.37-.86.76-1.79,1.29-2.57,1.16-.46,1.97-.53,4.1-1.5.02.02.02.05.03.08Zm-18.95,4.35c-.26-.14-3.78-1.13-5.6-4.33,1.36.6,2.77,1.06,4.19,1.52.45.69,1.19,2.03,1.41,2.81h0Zm-13.83-6.86c-.72-.18-4.06-3.86-4.66-4.67,1.43.22.91.33,4.19.74.05,1.35.22,2.61.47,3.93h0Zm-6.72-12.45c-.26-.08-.54-.26-.77-.41-1.98-1.22-3.34-3.4-3.88-5.64.09.04,2.51,1.43,3.03,1.79,1.03,3.21,1.06,2.86,1.62,4.25Zm-4.57-19.03c0-.27.06-.54.15-.8.75-2.52,2.24-4.09,4.53-5.32-.03.56-.38.44-1.62,4.41-.99.62-2.04,1.15-3.06,1.71h0Zm6.5-13.66v-.05c.24-.56,2.94-3.26,4.79-4.72.15.43-.21.48-.41,3.54l-.52.51c-2.12.18-1.9.22-3.86.72h0Zm12.65-7.01c.42-1.36,2.64-3.76,6.11-4.6h.04c0,.29-.73,1.3-.9,1.65-.2.4-.36.82-.52,1.24-1.59.49-3.15,1.07-4.67,1.74l-.05-.03Zm19.33-4.62c2.55.68,4.71,2.19,5.92,4.57-1.6-.54-.82-.63-4.68-1.72-.36-.97-.78-1.92-1.24-2.84h0Zm13.62,6.67c.62.33,4.69,4.28,5.05,4.94-1.19-.27-2.46-.59-3.68-.61-.24-.26-.49-.5-.75-.73-.24-1.19-.39-2.4-.62-3.6Zm8.62,33.4c1.04-.59,2.11-1.12,3.14-1.72.11.36-.83,3.02-3.04,4.85-.48.39-1,.72-1.53,1.05-.12-.29.36-.44,1.43-4.17h0Zm-.11-16.68c-.69-1.95-.51-1.86-1.58-4.31.2.1.4.25.59.37,2.08,1.38,3.69,3.38,4.19,5.87-.5-.24-1.19-.75-3.2-1.94h0Zm-6.48-18.91c3.31,2.79,6.36,6.03,8.52,9.8-.75-.43-1.48-.89-2.2-1.37-.56-.51-3.11-4.1-7.19-7.48-.55-.45-1.43-.98-1.87-1.46-.35-.38-1.02-1.93-1.4-2.55.64.21,3.25,2.3,4.13,3.06h0Zm-10.21-8.58h.05v.06l.03-.03c.63,2.53,1.85,2.95,3.46,4.75,1.89,2.12,3.21,5.24,3.41,8.08-1.26-1-2.63-2.1-4.09-2.8-.09-.04-.12-.05-.17-.15-.46-.54-.97-5.66-9.72-8.09,4.07-.16,4.59-.48,7.04-1.82h0Zm-13.59-.52c.5-.72.97-1.46,1.49-2.17.26.26,5.45,8.02,5.95,9.27-4.62-.91-7.82-.69-11.75-.05,1.16-2.5,2.75-4.8,4.32-7.05h0Zm-14.06,5.03c1.45-1.64,2.91-2,3.47-4.35,2.65,1.18,4.08,1.47,6.95,1.66-.95.39-2.2.5-4.4,1.69-2.84,1.54-4.26,3.24-5.18,6.32-.52.34-2.3,1.18-4.66,3.34.38-2.84,1.91-6.5,3.83-8.68Zm-6.51,3.69c1.54-1.24,2.26-1.68,4.03-2.84l.03.04c-.07.38-.31.27-1.43,2.64-5.15,3.54-8.05,7.98-8.76,8.59-.36.3-.83.48-1.25.7-.4.22-.8.45-1.19.69l-.03-.06c1.16-2.21,4.63-6.54,8.59-9.76h0Zm-9.79,12.62c2.3-2.03,5.67-3.28,8.62-4.03.07,0,.03-.01.1.03-.08.3-.86,1.14-1.09,1.45-.63.85-1.19,1.78-1.75,2.68-4.49,1.6-6.97,4.72-8.05,9.27-.29-2.48-.95-4.52-1.84-6.23.68-.32,2.34-1.72,4.01-3.19h0Zm-6.8,15.15c1.24-.87,7.05-4.53,9.14-5.57l.07.02c.1.31-.31,1.6-.43,3.76-.15,2.47-.01,4.96.42,7.4-2.25-1.19-6.28-3.69-9.19-5.61h0Zm5.92,14.56c-1.45-1.49-1.23-1.82-3.24-2.37,1.01-2.26,1.37-4.01,1.92-6.39.11.27.15.59.24.88.7,2.53,2.8,5.6,5.3,7.03.76.44,1.59.72,2.41,1.03.64.78.45.93,2.89,4.24-3.34-.49-7.11-1.97-9.52-4.42h0Zm3.72,5.89c-.52-.74-.97-1.52-1.42-2.3.28.09,2.18,1.14,2.41,1.33.44.36.78.94,1.13,1.4,2.14,2.74,4.72,5.19,6.57,6.57,1.51,1.14,1.12.77,1.93,2.25.19.35.4.69.6,1.03-1.77-.66-7.42-4.82-11.22-10.28h0Zm16.99,15.46c-.6-2.34-1.8-2.43-3.21-4.01-2.22-2.48-3.39-5.58-3.9-8.84.86.42.98.98,4.3,2.9.13.36.27.72.41,1.08,1.94,4.88,6.87,6.25,8.4,6.9-2.17.46-3.45.41-5.99,1.96h0Zm12.01,2.68c-.94-1.37-4.95-7.29-5.78-9.11.74.17,1.51.26,2.25.34,4.11.49,6.41-.02,9.21-.4l.03.05c-.37.82-4.83,8.04-5.72,9.12Zm14.91-6.56c-1.44,1.67-2.26,1.59-2.98,3.94-2.08-1.59-3.76-1.57-6.43-2.13,4.57-1.12,7.48-2.21,9.24-7.63,1.42-.81,2.78-1.71,4.08-2.7.17.74-1.01,5.11-3.91,8.52h0Zm13.15-10.36c-2.61,3.68-5.96,6.35-9.77,8.64l-.05-.08c.52-.84.97-1.68,1.38-2.58,5.82-3.82,7.49-7.68,8.33-8.38.4-.33,1.69-.82,2.26-1.15.03.03.02,0,.04.08-.23.46-2.02,3.24-2.18,3.48h0Zm6.33-8.91c-1.32.83-2.49,4.36-11.23,6.42,1-1.38,1.99-2.71,2.76-4.24.9-.52,1.87-.87,2.76-1.44,2.79-1.77,4.63-4.52,5.35-7.74.35.35.21,2.87,2.01,6.39-.54.15-1.16.3-1.64.6h0Zm-4.9-7c.15-1.96,1.02-5.52-.1-11.75.87.29,8.53,5.46,9.29,5.99-.81.56-7.44,4.81-9.19,5.76h0Z"/>
    <path class="cls-1" d="m66.93,35.35c-2.82-12.66-14.39-21.42-27.34-20.69-23.46,1.21-33.72,29.88-16.46,46.16,5.35,5.05,11.57,7.03,18.84,6.95,15.81-.49,28.72-15.39,24.96-32.42h0Zm-12.72-14.54c5.11,3.27,8.81,8.35,10.34,14.22.27,1.03.58,2.15.61,3.22-.33-.25-.65-.67-.94-.98-.18-.71-.27-1.43-.47-2.13-2.35-8.44-9.24-14.93-17.16-16.82-1.34-.32-2.69-.44-4.04-.62-.17-.28-.37-.55-.56-.82,3.16-.01,7.88,1.15,12.22,3.92h0Zm-1.58,4.6c-1.91-1.4-4.62-2.83-6.95-3.13-.24-.37-.75-.89-.81-1.33,6.54.65,13.61,6.66,15.33,12.7-2.82-1.89-2.61-4.58-7.58-8.24h0Zm1.58,4.23c-.7-.15-.42-.43-5.58-2.38-.22-.52-.57-.97-.8-1.48,1.91.7,4.92,2.45,6.38,3.85Zm-13.15-12.32c.46.44,5.82,8.49,6.33,9.6-.76-.11-1.51-.33-2.26-.48-4.92-.96-7.77-.02-10.53.56.3-.52,4.75-7.43,6.47-9.67h0Zm-17.36,14.87c-.46.52-1.31,1.06-1.87,1.52l-.08.03c1.07-4.9,7.62-11.44,15.37-12.78h.1v.07c-.19.42-.51.88-.81,1.24-8.79,1.88-12.32,9.48-12.71,9.93h0Zm10.6-6.48c-.07.37-.71,1.23-.94,1.59-1.82.57-3.66,1.45-5.36,2.32-.04,0-.01,0-.08-.02.17-.24.52-.46.76-.65,3.06-2.36,5.3-3.15,5.56-3.28l.05.04Zm5.44-8.8l.44-.02c-.23.28-.47.56-.72.83-.58.07-1.17.11-1.75.19-10.08,1.48-17.29,8.83-19.5,17.69-.24,1-.16,1.86-1.09,2.31,1.09-10.62,10.12-20.1,22.62-21.01h0Zm-21.28,33.12c-.67-1.73-.95-3.06-1.36-5,.26.16.82.82.94,1.1.31.68.83,4.07,3.46,8.04,4.3,6.51,10.35,9.64,17.9,10.12.2.3.39.59.57.9-10.74-.7-18.25-6.7-21.51-15.17h0Zm18.03,10.13c.39.44.76.89,1.08,1.38-1.77-.3-3.49-.7-5.13-1.45-3.8-1.73-6.92-4.66-9.13-8.18-.55-.87-1.08-1.79-1.45-2.76.31.17.61.45.9.65.35.25.75.49,1.06.78.83.79,3.75,7.45,12.66,9.56Zm-8.4-7.26c.66.14.73.53,4.87,2.06.41.63.89,1.21,1.33,1.82-.97-.31-4.3-2.11-6.2-3.88h0Zm9.13,6.27c-.9-1.3-1.97-2.49-2.89-3.78,3.63.63,5.86,1.81,13.37.07-1.26,1.89-5.48,7.82-6.72,9.22-.5-.58-.07-.19-3.76-5.52h0Zm19.87-7.04c1.2-1.82.26-.74,2.91-2.74.01.49-1.76,3.41-2.81,4.72-3.59,4.49-8.76,6.99-12.64,7.42.05-.31.78-1.09,1.01-1.36,4.64-1.07,8.67-3.68,11.54-8.04h0Zm-9.39,4.76c.03-.31.94-1.44,1.15-1.81,1.38-.44,2.74-.97,4.06-1.57l.05.03c-.18.36-2.97,2.62-5.2,3.36h-.06Zm16.84-9.49c-3.12,11.08-12.35,17.62-22.63,17.85l-.03-.03c.03-.17.51-.68.66-.87,5.5-.32,10.67-2.46,14.63-6.16,3.71-3.48,5.64-7.55,6.91-12.41.33-.33.66-.67.98-1.02l.04.05c-.03.8-.33,1.82-.55,2.59h0Zm-22.3,7.92c-6.98.45-16.07-2.67-24.11-10.95-.87-.9-1.65-1.92-2.48-2.87.82-1.2,2.31-2.85,3.32-3.92,6.67-7.05,16.49-11.89,26.08-10.27,8.14,1.38,16.53,7.43,21.27,14.1-6.03,7.74-14.44,13.31-24.08,13.91h0Z"/>
  </g>
  <g>
    <g>
      <path class="cls-1" d="m306.71,69.94v7.33c0,2.71.75,4.1,3.25,4.1v.35c-2.81,0-3.72-1.58-3.72-4.46v-7.33h-1.37v-.35h1.37v-4.36h.47v4.36h3.25v.35h-3.25Z"/>
      <path class="cls-1" d="m311.38,65.22h.85v.83h-.85v-.83Zm.19,4.71h.47v11.79h-.47v-11.79Z"/>
      <path class="cls-1" d="m313.64,75.99c0-3.63,1.77-6.41,6.36-6.41,2.62,0,5.7,1.01,5.7,3.7,0,2.97-3.44,2.83-5.66,2.38-2.52-.52-5.99-1.51-5.99.5,0,3.58,2.4,5.56,5.75,5.56s5.42-1.74,5.42-4.69h.47c0,3.39-2.78,5.04-5.89,5.04-3.77,0-6.18-2.43-6.18-6.08Zm6.34-6.06c-3.51,0-5.61,1.65-5.87,5.4h.05c.99-1.27,3.75-.42,5.99-.02,1.32.24,5.12.9,5.12-2.03,0-2.36-2.64-3.35-5.28-3.35Z"/>
      <path class="cls-1" d="m327.59,73.21h.05c.73-2.52,2.99-3.63,5.37-3.63,3.46,0,5.14,2.33,5.14,6.22v5.92h-.47v-5.92c0-3.72-1.51-5.87-4.67-5.87-2.78,0-5.42,1.65-5.42,4.74v7.05h-.47v-11.79h.47v3.28Z"/>
      <path class="cls-1" d="m346.02,82.1c-3.49,0-6.46-2.12-6.46-6.29s3.11-6.22,6.46-6.22,5.28,2.12,5.7,3.58h.05v-7.94h.47v16.5h-.47v-3.28h-.05c-.42,1.46-2.17,3.65-5.7,3.65Zm-.02-.38c2.92,0,5.77-1.56,5.77-4.81v-2.26c0-3.28-2.97-4.71-5.77-4.71-3.44,0-5.94,2.19-5.94,5.87s2.26,5.92,5.94,5.92Z"/>
      <path class="cls-1" d="m364.45,78.3h-.05c-.02.4-.99,3.77-5.7,3.77-2.17,0-5.04-.99-5.04-3.84,0-5.28,10.8-2.19,10.8-4.38,0-3.3-2.22-3.91-4.86-3.91-3.49,0-5.49,1.34-5.49,4.38h-.45c0-3.39,2.5-4.74,5.92-4.74s5.35,1.04,5.35,4.27v7.87h-.47v-3.42Zm-5.75,3.42c3.04,0,5.75-1.82,5.75-4.71v-2.69h-.05c-1.04,1.91-10.3-.71-10.3,3.91,0,1.84,1.63,3.49,4.6,3.49Z"/>
      <path class="cls-1" d="m371.05,75.99c0-3.63,1.77-6.41,6.36-6.41,2.62,0,5.7,1.01,5.7,3.7,0,2.97-3.44,2.83-5.66,2.38-2.52-.52-5.99-1.51-5.99.5,0,3.58,2.4,5.56,5.75,5.56s5.42-1.74,5.42-4.69h.47c0,3.39-2.78,5.04-5.89,5.04-3.77,0-6.18-2.43-6.18-6.08Zm6.34-6.06c-3.51,0-5.61,1.65-5.87,5.4h.05c.99-1.27,3.75-.42,5.99-.02,1.32.24,5.12.9,5.12-2.03,0-2.36-2.64-3.35-5.28-3.35Z"/>
      <path class="cls-1" d="m389.86,69.94c-2.81,0-4.86.83-4.86,2.62,0,4.2,10.8.35,10.8,5.68,0,2.24-2,3.84-5.04,3.84s-6.22-1.72-6.22-5.07h.47c0,3.04,2.76,4.71,5.75,4.71s4.57-1.53,4.57-3.49c0-4.9-10.8-1.06-10.8-5.68,0-2.15,2.4-2.97,5.33-2.97,5.09,0,5.96,2.71,5.99,4.74h-.47c-.02-1.93-.78-4.38-5.52-4.38Z"/>
      <path class="cls-1" d="m410.22,75.81c0,4.03-3.21,6.27-6.48,6.27s-6.48-2.24-6.48-6.27,3.18-6.22,6.48-6.22,6.48,2.29,6.48,6.22Zm-6.48,5.92c3.11,0,6.01-2.15,6.01-5.92s-2.9-5.87-6.01-5.87-6.01,2.19-6.01,5.87,2.9,5.92,6.01,5.92Z"/>
      <path class="cls-1" d="m412.06,69.94v7.33c0,2.71.75,4.1,3.25,4.1v.35c-2.81,0-3.72-1.58-3.72-4.46v-7.33h-1.37v-.35h1.37v-4.36h.47v4.36h3.25v.35h-3.25Z"/>
      <path class="cls-1" d="m416.72,75.99c0-3.63,1.77-6.41,6.36-6.41,2.62,0,5.7,1.01,5.7,3.7,0,2.97-3.44,2.83-5.66,2.38-2.52-.52-5.99-1.51-5.99.5,0,3.58,2.4,5.56,5.75,5.56s5.42-1.74,5.42-4.69h.47c0,3.39-2.78,5.04-5.89,5.04-3.77,0-6.18-2.43-6.18-6.08Zm6.34-6.06c-3.51,0-5.61,1.65-5.87,5.4h.05c.99-1.27,3.75-.42,5.99-.02,1.32.24,5.12.9,5.12-2.03,0-2.36-2.64-3.35-5.28-3.35Zm-3.56-2.22c3.13-.02,5.7-.66,7.17-2.24l-.26-.26c-1.44,1.56-3.63,2.24-6.91,2.26v.24Z"/>
      <path class="cls-1" d="m430.67,72.95h.05c.68-2.52,2.57-3.49,4.71-3.49v.47c-2.83,0-4.76,1.65-4.76,4.74v7.05h-.47v-11.79h.47v3.02Z"/>
      <path class="cls-1" d="m436.14,65.22h.85v.83h-.85v-.83Zm.19,4.71h.47v11.79h-.47v-11.79Z"/>
      <path class="cls-1" d="m444.89,69.94c-3.56,0-6.01,2.64-6.01,5.87s2.26,5.92,6.01,5.92c3.49,0,5.73-2.1,5.73-4.71h.47c0,3.09-2.71,5.07-6.2,5.07s-6.48-2.57-6.48-6.27,2.76-6.22,6.48-6.22c3.46,0,6.2,2,6.2,5.09h-.47c0-2.88-2.52-4.74-5.73-4.74Z"/>
      <path class="cls-1" d="m463.29,78.3h-.05c-.02.4-.99,3.77-5.7,3.77-2.17,0-5.04-.99-5.04-3.84,0-5.28,10.8-2.19,10.8-4.38,0-3.3-2.22-3.91-4.86-3.91-3.49,0-5.49,1.34-5.49,4.38h-.45c0-3.39,2.5-4.74,5.92-4.74s5.35,1.04,5.35,4.27v7.87h-.47v-3.42Zm-5.75,3.42c3.04,0,5.75-1.82,5.75-4.71v-2.69h-.05c-1.04,1.91-10.3-.71-10.3,3.91,0,1.84,1.63,3.49,4.6,3.49Z"/>
    </g>
    <g>
      <path class="cls-1" d="m103.45,27.88c-1.29,1.17-2.29,2.6-3.02,4.27-.73,1.68-1.09,3.44-1.09,5.28,0,1.96.38,3.79,1.13,5.49.75,1.71,1.77,3.2,3.06,4.48,1.28,1.29,2.79,2.31,4.53,3.06,1.73.75,3.57,1.13,5.53,1.13s3.8-.38,5.53-1.13c1.73-.75,3.24-1.77,4.53-3.06,1.28-1.28,2.3-2.78,3.06-4.48.75-1.7,1.13-3.53,1.13-5.49,0-2.12-.43-3.92-1.3-5.41-.87-1.48-1.97-2.71-3.31-3.69-1.34-.98-2.82-1.74-4.44-2.3-1.62-.56-3.18-.98-4.69-1.26-3.85-.67-6.76-2.05-8.72-4.15-1.96-2.1-2.91-4.65-2.85-7.67,0-1.4.26-2.71.8-3.94.53-1.23,1.27-2.31,2.22-3.23.95-.92,2.08-1.65,3.39-2.18,1.31-.53,2.75-.8,4.32-.8s2.97.24,4.23.71c1.26.48,2.33,1.1,3.23,1.89.89.78,1.62,1.69,2.18,2.72.56,1.03.95,2.14,1.17,3.31l-5.36,2.1c-.11-1.31-.66-2.38-1.63-3.2-.98-.83-2.08-1.24-3.31-1.24s-2.39.43-3.31,1.3c-.92.87-1.36,1.92-1.3,3.15.11,2.63,2.23,4.34,6.37,5.12,2.68.39,5.21,1.06,7.58,2.01,2.37.95,4.47,2.2,6.28,3.74,1.81,1.54,3.24,3.4,4.27,5.58,1.03,2.18,1.55,4.7,1.55,7.56,0,3.02-.56,5.83-1.68,8.43-1.12,2.6-2.65,4.87-4.61,6.8-1.96,1.93-4.25,3.44-6.87,4.53-2.63,1.09-5.45,1.64-8.46,1.64s-5.84-.56-8.46-1.68c-2.63-1.12-4.92-2.65-6.87-4.61-1.96-1.95-3.49-4.23-4.61-6.83-1.12-2.6-1.68-5.41-1.68-8.42s.59-5.7,1.76-8.21c1.17-2.51,2.74-4.66,4.69-6.45l5.03,5.11Z"/>
      <path class="cls-1" d="m162.62,52.72c-1.49,2.21-3.24,3.83-5.25,4.84-2.01,1.02-4.2,1.52-6.55,1.52-1.85,0-3.59-.35-5.22-1.06-1.63-.71-3.05-1.66-4.24-2.85-1.2-1.2-2.15-2.61-2.85-4.24-.71-1.63-1.06-3.37-1.06-5.22s.35-3.64,1.06-5.28c.71-1.63,1.66-3.05,2.85-4.27,1.2-1.21,2.61-2.18,4.24-2.88,1.63-.71,3.37-1.06,5.22-1.06,2.36,0,4.58.54,6.66,1.63,2.08,1.09,3.89,2.77,5.41,5.06l-15.77,14.68c.58.4,1.3.68,2.18.84.87.16,1.74.19,2.61.08,1.52-.18,2.94-.7,4.27-1.55,1.32-.85,2.44-1.93,3.34-3.24l3.1,2.99Zm-20.83-7.72c-.11,1.38.07,2.65.54,3.81.47,1.16,1.14,2.07,2.01,2.72l12.45-12.13c-.69-.83-1.61-1.51-2.77-2.04-1.16-.53-2.43-.75-3.81-.68-1.12.07-2.18.33-3.15.76s-1.84,1.02-2.58,1.77c-.74.74-1.35,1.6-1.82,2.58-.47.98-.76,2.05-.87,3.21Z"/>
      <path class="cls-1" d="m186.33,41.79c-.98-1.49-2.12-2.66-3.43-3.54-1.3-.87-2.86-1.3-4.68-1.3-1.2,0-2.34.23-3.43.68-1.09.45-2.03,1.08-2.83,1.88s-1.43,1.73-1.9,2.8c-.47,1.07-.71,2.2-.71,3.4s.24,2.33.71,3.4c.47,1.07,1.11,2,1.9,2.8.8.8,1.74,1.42,2.83,1.88,1.09.45,2.23.68,3.43.68,1.67,0,3.2-.43,4.6-1.28,1.4-.85,2.56-2.06,3.51-3.62l3.32,3.21c-1.27,2.1-2.92,3.68-4.95,4.73-2.03,1.05-4.19,1.58-6.47,1.58-1.89,0-3.64-.35-5.28-1.06-1.63-.71-3.05-1.66-4.24-2.85-1.2-1.2-2.14-2.61-2.83-4.24-.69-1.63-1.03-3.37-1.03-5.22s.34-3.64,1.03-5.28c.69-1.63,1.63-3.05,2.83-4.24,1.2-1.2,2.61-2.14,4.24-2.83,1.63-.69,3.39-1.03,5.28-1.03,2.28,0,4.41.51,6.39,1.52,1.98,1.02,3.65,2.56,5.03,4.62l-3.32,3.32Z"/>
      <path class="cls-1" d="m196.72,32.33v4.57c.72-1.27,1.72-2.37,2.99-3.29,1.27-.92,2.75-1.39,4.46-1.39v4.62c-.94,0-1.85.18-2.72.54-.87.36-1.65.84-2.34,1.44-.69.6-1.25,1.3-1.69,2.09-.44.8-.67,1.65-.71,2.56v15.5h-4.57v-26.65h4.57Z"/>
      <path class="cls-1" d="m230.82,52.72c-1.49,2.21-3.24,3.83-5.25,4.84-2.01,1.02-4.2,1.52-6.55,1.52-1.85,0-3.59-.35-5.22-1.06-1.63-.71-3.05-1.66-4.24-2.85-1.2-1.2-2.15-2.61-2.85-4.24-.71-1.63-1.06-3.37-1.06-5.22s.35-3.64,1.06-5.28c.71-1.63,1.66-3.05,2.85-4.27,1.2-1.21,2.61-2.18,4.24-2.88,1.63-.71,3.37-1.06,5.22-1.06,2.36,0,4.58.54,6.66,1.63,2.08,1.09,3.89,2.77,5.41,5.06l-15.77,14.68c.58.4,1.3.68,2.18.84.87.16,1.74.19,2.61.08,1.52-.18,2.94-.7,4.27-1.55,1.32-.85,2.44-1.93,3.34-3.24l3.1,2.99Zm-20.83-7.72c-.11,1.38.07,2.65.54,3.81.47,1.16,1.14,2.07,2.01,2.72l12.45-12.13c-.69-.83-1.61-1.51-2.77-2.04-1.16-.53-2.43-.75-3.81-.68-1.12.07-2.18.33-3.15.76s-1.84,1.02-2.58,1.77c-.74.74-1.35,1.6-1.82,2.58-.47.98-.76,2.05-.87,3.21Z"/>
      <path class="cls-1" d="m231.9,32.22h2.5v-8.27h4.62v8.27h4.84v3.81h-4.84v14.74c0,1.27.4,2.29,1.2,3.07.8.78,1.83,1.17,3.1,1.17v4.08c-2.94,0-5.16-.71-6.66-2.12-1.5-1.41-2.26-3.48-2.26-6.2v-14.74h-2.5v-3.81Z"/>
      <path class="cls-1" d="m270.84,45.7c0,1.85-.35,3.59-1.06,5.22-.71,1.63-1.66,3.05-2.85,4.24-1.2,1.2-2.61,2.15-4.24,2.85-1.63.71-3.37,1.06-5.22,1.06s-3.64-.35-5.27-1.06c-1.63-.71-3.05-1.66-4.24-2.85-1.2-1.2-2.14-2.61-2.83-4.24-.69-1.63-1.03-3.37-1.03-5.22s.34-3.64,1.03-5.28c.69-1.63,1.63-3.05,2.83-4.27,1.2-1.21,2.61-2.18,4.24-2.88,1.63-.71,3.39-1.06,5.27-1.06s3.59.35,5.22,1.06c1.63.71,3.05,1.67,4.24,2.88,1.2,1.21,2.15,2.64,2.85,4.27.71,1.63,1.06,3.39,1.06,5.28Zm-4.62,0c0-1.2-.23-2.34-.68-3.43-.45-1.09-1.08-2.03-1.88-2.83-.8-.8-1.73-1.43-2.8-1.9-1.07-.47-2.2-.71-3.4-.71s-2.33.24-3.4.71c-1.07.47-2,1.11-2.8,1.9-.8.8-1.42,1.74-1.88,2.83-.45,1.09-.68,2.23-.68,3.43s.23,2.33.68,3.4c.45,1.07,1.08,2,1.88,2.8.8.8,1.73,1.42,2.8,1.88,1.07.45,2.2.68,3.4.68s2.33-.23,3.4-.68c1.07-.45,2-1.08,2.8-1.88.8-.8,1.42-1.73,1.88-2.8.45-1.07.68-2.2.68-3.4Z"/>
      <path class="cls-1" d="m285.3,39.99c0-1.12-.34-2.08-1.03-2.86-.69-.78-1.52-1.17-2.5-1.17s-1.76.39-2.45,1.17c-.69.78-1.03,1.7-1.03,2.75,0,.98.42,1.79,1.25,2.42.83.63,2.14,1.21,3.92,1.71,2.03.58,3.54,1.41,4.54,2.47,1,1.07,1.5,2.66,1.5,4.76,0,1.09-.2,2.1-.6,3.05-.4.94-.95,1.77-1.66,2.47-.71.71-1.53,1.27-2.47,1.69-.94.42-1.98.63-3.1.63s-2.1-.19-3.05-.57c-.94-.38-1.77-.91-2.47-1.58-.71-.67-1.27-1.48-1.69-2.42-.42-.94-.63-1.98-.63-3.1h4.57c0,1.09.35,1.99,1.06,2.72.71.73,1.53,1.09,2.47,1.09s1.76-.35,2.45-1.06c.69-.71,1.03-1.6,1.03-2.69,0-.69-.14-1.25-.41-1.69-.27-.43-.64-.8-1.09-1.09-.45-.29-1-.54-1.63-.76-.63-.22-1.33-.43-2.09-.65-1.81-.51-3.33-1.33-4.54-2.47-1.21-1.14-1.82-2.73-1.82-4.76,0-1.12.19-2.16.57-3.1.38-.94.92-1.77,1.63-2.47.71-.71,1.53-1.26,2.47-1.66.94-.4,1.99-.6,3.15-.6,2.36,0,4.25.7,5.68,2.09,1.43,1.4,2.15,3.29,2.15,5.68h-4.19Z"/>
      <path class="cls-1" d="m340.61,40.81c0,2.54-.47,4.91-1.41,7.12-.94,2.21-2.25,4.13-3.92,5.76-1.67,1.63-3.62,2.92-5.85,3.86-2.23.94-4.61,1.41-7.15,1.41s-4.92-.47-7.15-1.41c-2.23-.94-4.17-2.23-5.82-3.86-1.65-1.63-2.95-3.55-3.89-5.76-.94-2.21-1.41-4.59-1.41-7.12s.47-4.92,1.41-7.15c.94-2.23,2.24-4.17,3.89-5.82s3.59-2.95,5.82-3.89c2.23-.94,4.61-1.41,7.15-1.41s4.92.47,7.15,1.41c2.23.94,4.18,2.24,5.85,3.89,1.67,1.65,2.97,3.59,3.92,5.82.94,2.23,1.41,4.61,1.41,7.15Zm-4.79-.03c0-1.85-.36-3.6-1.09-5.23-.73-1.63-1.69-3.06-2.91-4.28-1.22-1.22-2.65-2.18-4.3-2.89-1.65-.71-3.4-1.06-5.25-1.06s-3.6.35-5.25,1.06c-1.65.71-3.08,1.67-4.3,2.89-1.22,1.22-2.18,2.64-2.88,4.28s-1.06,3.38-1.06,5.23.35,3.6,1.06,5.23,1.67,3.06,2.88,4.28c1.21,1.22,2.65,2.17,4.3,2.86,1.65.69,3.4,1.03,5.25,1.03s3.6-.34,5.25-1.03c1.65-.69,3.08-1.64,4.3-2.86,1.21-1.22,2.18-2.64,2.91-4.28.72-1.63,1.09-3.38,1.09-5.23Z"/>
      <path class="cls-1" d="m364.64,41.79c-.98-1.49-2.12-2.66-3.43-3.54-1.3-.87-2.86-1.3-4.68-1.3-1.2,0-2.34.23-3.43.68-1.09.45-2.03,1.08-2.83,1.88s-1.43,1.73-1.9,2.8c-.47,1.07-.71,2.2-.71,3.4s.24,2.33.71,3.4c.47,1.07,1.11,2,1.9,2.8.8.8,1.74,1.42,2.83,1.88,1.09.45,2.23.68,3.43.68,1.67,0,3.2-.43,4.59-1.28,1.4-.85,2.56-2.06,3.51-3.62l3.32,3.21c-1.27,2.1-2.92,3.68-4.95,4.73s-4.19,1.58-6.47,1.58c-1.89,0-3.64-.35-5.28-1.06-1.63-.71-3.05-1.66-4.24-2.85-1.2-1.2-2.14-2.61-2.83-4.24-.69-1.63-1.03-3.37-1.03-5.22s.34-3.64,1.03-5.28c.69-1.63,1.63-3.05,2.83-4.24,1.2-1.2,2.61-2.14,4.24-2.83,1.63-.69,3.39-1.03,5.28-1.03,2.28,0,4.41.51,6.39,1.52,1.98,1.02,3.65,2.56,5.03,4.62l-3.32,3.32Z"/>
      <path class="cls-1" d="m374.05,32.33v13.16c0,1.38.21,2.65.63,3.81.42,1.16,1.01,2.17,1.79,3.02.78.85,1.71,1.51,2.8,1.98,1.09.47,2.28.71,3.59.71,1.2,0,2.33-.25,3.4-.76,1.07-.51,1.99-1.2,2.77-2.09.78-.89,1.4-1.96,1.88-3.21.47-1.25.71-2.64.71-4.16v-12.45h4.57v26.65h-4.57v-6.36c-1.02,1.96-2.37,3.53-4.08,4.7-1.7,1.18-3.7,1.77-5.98,1.77-1.7,0-3.29-.31-4.76-.92-1.47-.62-2.75-1.49-3.83-2.61-1.09-1.12-1.94-2.46-2.56-4-.62-1.54-.92-3.24-.92-5.09v-14.14h4.57Z"/>
      <path class="cls-1" d="m405.1,23.95v35.02h-4.57V23.95h4.57Z"/>
      <path class="cls-1" d="m407.66,32.22h2.5v-8.27h4.62v8.27h4.84v3.81h-4.84v14.74c0,1.27.4,2.29,1.2,3.07.8.78,1.83,1.17,3.1,1.17v4.08c-2.94,0-5.16-.71-6.66-2.12s-2.26-3.48-2.26-6.2v-14.74h-2.5v-3.81Z"/>
      <path class="cls-1" d="m446.59,45.7c0,1.85-.35,3.59-1.06,5.22s-1.66,3.05-2.86,4.24c-1.2,1.2-2.61,2.15-4.24,2.85-1.63.71-3.37,1.06-5.22,1.06s-3.64-.35-5.27-1.06c-1.63-.71-3.05-1.66-4.24-2.85-1.2-1.2-2.14-2.61-2.83-4.24-.69-1.63-1.03-3.37-1.03-5.22s.34-3.64,1.03-5.28c.69-1.63,1.63-3.05,2.83-4.27,1.2-1.21,2.61-2.18,4.24-2.88s3.39-1.06,5.27-1.06,3.59.35,5.22,1.06c1.63.71,3.05,1.67,4.24,2.88,1.2,1.21,2.15,2.64,2.86,4.27s1.06,3.39,1.06,5.28Zm-4.62,0c0-1.2-.23-2.34-.68-3.43-.45-1.09-1.08-2.03-1.88-2.83-.8-.8-1.73-1.43-2.8-1.9-1.07-.47-2.2-.71-3.4-.71s-2.33.24-3.4.71c-1.07.47-2,1.11-2.8,1.9-.8.8-1.42,1.74-1.88,2.83-.45,1.09-.68,2.23-.68,3.43s.23,2.33.68,3.4c.45,1.07,1.08,2,1.88,2.8.8.8,1.73,1.42,2.8,1.88,1.07.45,2.2.68,3.4.68s2.33-.23,3.4-.68c1.07-.45,2-1.08,2.8-1.88.8-.8,1.42-1.73,1.88-2.8.45-1.07.68-2.2.68-3.4Z"/>
      <path class="cls-1" d="m461.06,39.99c0-1.12-.35-2.08-1.03-2.86-.69-.78-1.52-1.17-2.5-1.17s-1.76.39-2.45,1.17c-.69.78-1.03,1.7-1.03,2.75,0,.98.42,1.79,1.25,2.42.83.63,2.14,1.21,3.92,1.71,2.03.58,3.54,1.41,4.54,2.47,1,1.07,1.5,2.66,1.5,4.76,0,1.09-.2,2.1-.6,3.05-.4.94-.95,1.77-1.66,2.47s-1.53,1.27-2.47,1.69c-.94.42-1.98.63-3.1.63s-2.1-.19-3.05-.57c-.94-.38-1.77-.91-2.47-1.58-.71-.67-1.27-1.48-1.69-2.42-.42-.94-.63-1.98-.63-3.1h4.57c0,1.09.35,1.99,1.06,2.72.71.73,1.53,1.09,2.47,1.09s1.76-.35,2.45-1.06c.69-.71,1.03-1.6,1.03-2.69,0-.69-.14-1.25-.41-1.69-.27-.43-.63-.8-1.09-1.09-.45-.29-1-.54-1.63-.76-.63-.22-1.33-.43-2.09-.65-1.81-.51-3.33-1.33-4.54-2.47-1.21-1.14-1.82-2.73-1.82-4.76,0-1.12.19-2.16.57-3.1.38-.94.92-1.77,1.63-2.47s1.53-1.26,2.47-1.66c.94-.4,1.99-.6,3.15-.6,2.36,0,4.25.7,5.68,2.09,1.43,1.4,2.15,3.29,2.15,5.68h-4.19Z"/>
    </g>
  </g>
</svg>